SplineFontDB: 3.0
FontName: gargi
FullName: gargi
FamilyName: gargi
Weight: Medium
Copyright: Open Type rules and extra glyphsets made by the Localization Team HBCSE,TIFR,\nHomi Bhabha Centre For Science Education, Tata Institute Of Fundamental Research V.N. Purav Marg, Mankhurd, Mumbai 400 088, INDIA.\n\nCore Devanagari Glyphs (c) Cyberscape Multimedia ltd,\n#101, Mahalakshmi Mansion\n21st Main, 22nd "A" Cross\nBanashankari 2nd Stage\nBangalore 560 070, India.\n\nThe matching English glyphs: Copyright (URW)++,Copyright 1999 by (URW)++ Design & Development; Cyrillic glyphs added by Valek Filippov (C) 2001-2002. \n\nDevanagari character shapes improved and maintained by Monika Shah and Sonali Sonania of janabhaaratii Team, C-DAC, Mumbai.\n\nThis font is released under GNU GPL version 2 by Dr. Alka Irani and Prof Jitendra Shah,janabhaaratii Team,C-DAC, Mumbai.\ngargi is free software; you can redistribute it and/or modify it under the terms of the GNU General Public License as published by the Free Software Foundation; either version 2 of the License, or (at your option) any later version.\n\ngargi is distributed in the hope that it will be useful, but WITHOUT ANY WARRANTY; without even the implied warranty of MERCHANTABILITY or FITNESS FOR A PARTICULAR PURPOSE.  See the\nGNU General Public License for more details. \nYou should have received a copy of the GNU General Public License along with gargi; if not, write to the Free Software Foundation, Inc., 51 Franklin St, Fifth Floor, Boston, MA  02110-1301  USA\n\njanabhaaratii is localisation project at C-DAC Mumbai (formerly National\nCentre for Software Technology) ; funded by TDIL, Govt. of India.\n\nContact:monika_shah@lycos.com,sonalisonania@yahoo.com,\njitendras@vsnl.com,alka@ncst.ernet.in\nwebsite : www.janabhaaratii.org.in
Version: 1.9
ItalicAngle: 0
UnderlinePosition: -143
UnderlineWidth: 20
Ascent: 819
Descent: 205
InvalidEm: 0
sfntRevision: 0x0001e666
LayerCount: 2
Layer: 0 1 "Back" 1
Layer: 1 1 "Fore" 0

StartChar: .notdef
Encoding: 65536 -1 0
Width: 414
Flags: W
LayerCount: 2
Fore
SplineSet
36 0 m 1,0,-1
 36 716 l 1,1,-1
 394 716 l 1,2,-1
 394 0 l 1,3,-1
 36 0 l 1,0,-1
71 36 m 1,4,-1
 358 36 l 1,5,-1
 358 680 l 1,6,-1
 71 680 l 1,7,-1
 71 36 l 1,4,-1
EndSplineSet
EndChar

StartChar: exclam
Encoding: 33 33 5
Width: 289
GlyphClass: 2
Flags: W
LayerCount: 2
Fore
SplineSet
216 758 m 1,0,-1
 216 407 l 1,1,-1
 193 175 l 1,2,-1
 153 175 l 1,3,-1
 130 407 l 1,4,-1
 130 758 l 1,5,-1
 216 758 l 1,0,-1
216 108 m 1,6,-1
 216 0 l 1,7,-1
 129 0 l 1,8,-1
 129 108 l 1,9,-1
 216 108 l 1,6,-1
EndSplineSet
EndChar

StartChar: quotedbl
Encoding: 34 34 6
Width: 369
GlyphClass: 2
Flags: W
LayerCount: 2
Fore
SplineSet
54 737 m 1,0,-1
 151 737 l 1,1,-1
 151 622 l 1,2,-1
 123 483 l 1,3,-1
 82 483 l 1,4,-1
 54 622 l 1,5,-1
 54 737 l 1,0,-1
220 737 m 1,6,-1
 317 737 l 1,7,-1
 317 622 l 1,8,-1
 289 483 l 1,9,-1
 249 483 l 1,10,-1
 220 622 l 1,11,-1
 220 737 l 1,6,-1
EndSplineSet
EndChar

StartChar: numbersign
Encoding: 35 35 7
Width: 578
GlyphClass: 2
Flags: W
LayerCount: 2
Fore
SplineSet
504 725 m 1,0,-1
 467 521 l 1,1,-1
 564 521 l 1,2,-1
 564 450 l 1,3,-1
 453 450 l 1,4,-1
 421 269 l 1,5,-1
 530 269 l 1,6,-1
 530 199 l 1,7,-1
 409 199 l 1,8,-1
 368 -21 l 1,9,-1
 289 -21 l 1,10,-1
 329 199 l 1,11,-1
 200 199 l 1,12,-1
 159 -21 l 1,13,-1
 80 -21 l 1,14,-1
 120 199 l 1,15,-1
 15 199 l 1,16,-1
 15 269 l 1,17,-1
 133 269 l 1,18,-1
 165 450 l 1,19,-1
 53 450 l 1,20,-1
 53 521 l 1,21,-1
 179 521 l 1,22,-1
 216 725 l 1,23,-1
 295 725 l 1,24,-1
 258 521 l 1,25,-1
 388 521 l 1,26,-1
 424 725 l 1,27,-1
 504 725 l 1,0,-1
374 450 m 1,28,-1
 245 450 l 1,29,-1
 212 269 l 1,30,-1
 342 269 l 1,31,-1
 374 450 l 1,28,-1
EndSplineSet
EndChar

StartChar: dollar
Encoding: 36 36 8
Width: 578
GlyphClass: 2
Flags: W
LayerCount: 2
Fore
SplineSet
253 801 m 1,0,-1
 314 801 l 1,1,-1
 314 745 l 1,2,3
 445 735 445 735 494 639 c 0,4,5
 516 595 516 595 516 540 c 1,6,-1
 434 540 l 1,7,8
 433 620 433 620 373 655 c 0,9,10
 346 671 346 671 314 672 c 1,11,-1
 314 413 l 1,12,13
 418 381 418 381 450 363 c 0,14,15
 539 313 539 313 539 203 c 0,16,17
 539 95 539 95 468 31 c 0,18,19
 457 21 457 21 443 12 c 0,20,21
 392 -18 392 -18 314 -24 c 1,22,-1
 314 -131 l 1,23,-1
 253 -131 l 1,24,-1
 253 -24 l 1,25,26
 93 -14 93 -14 48 108 c 0,27,28
 33 149 33 149 34 199 c 0,29,30
 34 208 34 208 34 216 c 1,31,-1
 116 216 l 1,32,33
 124 139 124 139 138 114 c 0,34,35
 140 111 140 111 142 107 c 0,36,37
 179 57 179 57 253 48 c 1,38,-1
 253 331 l 1,39,40
 156 360 156 360 122 385 c 0,41,42
 48 438 48 438 48 537 c 0,43,44
 48 688 48 688 193 732 c 0,45,46
 220 740 220 740 253 745 c 1,47,-1
 253 801 l 1,0,-1
253 421 m 1,48,-1
 253 671 l 1,49,50
 153 657 153 657 135 578 c 0,51,52
 132 564 132 564 132 547 c 0,53,54
 132 453 132 453 253 421 c 1,48,-1
314 321 m 1,55,-1
 314 48 l 1,56,57
 378 55 378 55 410 86 c 0,58,59
 453 128 453 128 453 190 c 0,60,61
 453 254 453 254 405 285 c 0,62,63
 374 304 374 304 314 321 c 1,55,-1
EndSplineSet
EndChar

StartChar: percent
Encoding: 37 37 9
Width: 924
GlyphClass: 2
Flags: W
LayerCount: 2
Fore
SplineSet
207 712 m 0,0,1
 294 712 294 712 347 644 c 0,2,3
 385 596 385 596 385 532 c 0,4,5
 385 450 385 450 319 397 c 0,6,7
 270 357 270 357 208 357 c 0,8,9
 124 357 124 357 70 422 c 0,10,11
 30 472 30 472 30 535 c 0,12,13
 30 619 30 619 96 673 c 0,14,15
 145 712 145 712 207 712 c 0,0,1
207 640 m 0,16,17
 151 640 151 640 120 592 c 0,18,19
 102 566 102 566 102 535 c 0,20,21
 102 479 102 479 149 447 c 0,22,23
 176 430 176 430 208 430 c 0,24,25
 264 430 264 430 295 476 c 0,26,27
 313 502 313 502 313 534 c 0,28,29
 313 593 313 593 263 624 c 0,30,31
 238 640 238 640 207 640 c 0,16,17
633 737 m 1,32,-1
 702 737 l 1,33,-1
 291 -21 l 1,34,-1
 223 -21 l 1,35,-1
 633 737 l 1,32,-1
716 335 m 0,36,37
 804 335 804 335 857 266 c 0,38,39
 893 218 893 218 893 156 c 0,40,41
 893 74 893 74 828 21 c 0,42,43
 779 -20 779 -20 717 -20 c 0,44,45
 632 -20 632 -20 578 46 c 0,46,47
 539 96 539 96 539 158 c 0,48,49
 539 242 539 242 605 295 c 0,50,51
 654 335 654 335 716 335 c 0,36,37
716 262 m 0,52,53
 659 262 659 262 628 215 c 0,54,55
 610 189 610 189 610 158 c 0,56,57
 610 101 610 101 659 70 c 0,58,59
 685 53 685 53 717 53 c 0,60,61
 773 53 773 53 804 100 c 0,62,63
 822 126 822 126 822 156 c 0,64,65
 822 215 822 215 772 246 c 0,66,67
 747 262 747 262 716 262 c 0,52,53
EndSplineSet
EndChar

StartChar: ampersand
Encoding: 38 38 10
Width: 693
GlyphClass: 2
Flags: W
LayerCount: 2
Fore
SplineSet
513 347 m 2,0,-1
 596 347 l 1,1,2
 596 250 596 250 536 157 c 1,3,-1
 662 0 l 1,4,-1
 549 0 l 1,5,-1
 485 81 l 1,6,7
 434 31 434 31 405 14 c 0,8,9
 346 -24 346 -24 267 -24 c 0,10,11
 147 -24 147 -24 88 61 c 0,12,13
 54 112 54 112 54 183 c 0,14,15
 54 267 54 267 108 322 c 0,16,17
 146 360 146 360 223 405 c 1,18,19
 150 496 150 496 140 546 c 0,20,21
 138 560 138 560 138 574 c 0,22,23
 138 654 138 654 206 703 c 0,24,25
 254 737 254 737 316 737 c 0,26,27
 410 737 410 737 458 669 c 0,28,29
 486 628 486 628 486 574 c 0,30,31
 486 502 486 502 428 451 c 0,32,33
 398 424 398 424 342 393 c 1,34,-1
 480 224 l 1,35,36
 513 280 513 280 513 342 c 0,37,38
 513 345 513 345 513 347 c 2,0,-1
296 448 m 1,39,40
 381 501 381 501 396 540 c 0,41,42
 404 555 404 555 404 576 c 0,43,44
 404 630 404 630 357 654 c 0,45,46
 337 665 337 665 313 665 c 0,47,48
 251 665 251 665 230 613 c 0,49,50
 224 596 224 596 224 575 c 0,51,52
 224 541 224 541 250 504 c 0,53,54
 264 486 264 486 296 448 c 1,39,40
435 142 m 1,55,-1
 268 350 l 1,56,57
 171 288 171 288 150 236 c 0,58,59
 141 215 141 215 141 190 c 0,60,61
 141 123 141 123 198 83 c 0,62,63
 234 57 234 57 278 57 c 0,64,65
 347 57 347 57 418 125 c 0,66,67
 426 133 426 133 435 142 c 1,55,-1
EndSplineSet
EndChar

StartChar: quotesingle
Encoding: 39 39 11
Width: 229
GlyphClass: 2
Flags: W
LayerCount: 2
Fore
SplineSet
67 758 m 1,0,-1
 163 758 l 1,1,-1
 163 653 l 2,2,3
 163 535 163 535 79 519 c 2,4,-1
 67 517 l 1,5,-1
 67 556 l 1,6,7
 113 563 113 563 116 631 c 2,8,-1
 116 650 l 1,9,-1
 67 650 l 1,10,-1
 67 758 l 1,0,-1
EndSplineSet
EndChar

StartChar: parenleft
Encoding: 40 40 12
Width: 346
GlyphClass: 2
Flags: W
LayerCount: 2
Fore
SplineSet
245 758 m 1,0,-1
 303 758 l 1,1,2
 174 550 174 550 161 312 c 0,3,4
 160 290 160 290 160 269 c 0,5,6
 160 27 160 27 287 -194 c 0,7,8
 294 -208 294 -208 303 -220 c 1,9,-1
 245 -220 l 1,10,11
 128 -67 128 -67 89 133 c 0,12,13
 76 204 76 204 76 269 c 0,14,15
 76 456 76 456 173 642 c 0,16,17
 205 705 205 705 245 758 c 1,0,-1
EndSplineSet
EndChar

StartChar: parenright
Encoding: 41 41 13
Width: 346
GlyphClass: 2
Flags: W
LayerCount: 2
Fore
SplineSet
97 -220 m 1,0,-1
 40 -220 l 1,1,2
 168 -12 168 -12 181 226 c 0,3,4
 182 248 182 248 182 268 c 0,5,6
 182 511 182 511 55 732 c 0,7,8
 48 746 48 746 40 758 c 1,9,-1
 97 758 l 1,10,11
 214 604 214 604 253 405 c 0,12,13
 266 334 266 334 266 268 c 0,14,15
 266 82 266 82 170 -104 c 0,16,17
 137 -167 137 -167 97 -220 c 1,0,-1
EndSplineSet
EndChar

StartChar: asterisk
Encoding: 42 42 14
Width: 404
GlyphClass: 2
Flags: W
LayerCount: 2
Fore
SplineSet
166 758 m 1,0,-1
 232 758 l 1,1,-1
 227 642 l 1,2,-1
 337 681 l 1,3,-1
 357 620 l 1,4,-1
 244 589 l 1,5,-1
 317 496 l 1,6,-1
 264 459 l 1,7,-1
 200 555 l 1,8,-1
 134 459 l 1,9,-1
 82 496 l 1,10,-1
 154 589 l 1,11,-1
 42 620 l 1,12,-1
 61 681 l 1,13,-1
 172 642 l 1,14,-1
 166 758 l 1,0,-1
EndSplineSet
EndChar

StartChar: plus
Encoding: 43 43 15
Width: 607
GlyphClass: 2
Flags: W
LayerCount: 2
Fore
SplineSet
555 278 m 1,0,-1
 555 205 l 1,1,-1
 340 205 l 1,2,-1
 340 -10 l 1,3,-1
 267 -10 l 1,4,-1
 267 205 l 1,5,-1
 52 205 l 1,6,-1
 52 278 l 1,7,-1
 267 278 l 1,8,-1
 267 493 l 1,9,-1
 340 493 l 1,10,-1
 340 278 l 1,11,-1
 555 278 l 1,0,-1
EndSplineSet
EndChar

StartChar: comma
Encoding: 44 44 16
Width: 289
GlyphClass: 2
Flags: W
LayerCount: 2
Fore
SplineSet
90 108 m 1,0,-1
 200 108 l 1,1,-1
 200 -17 l 2,2,3
 200 -153 200 -153 90 -153 c 1,4,-1
 90 -113 l 1,5,6
 135 -111 135 -111 146 -79 c 0,7,8
 153 -59 153 -59 153 -19 c 2,9,-1
 153 0 l 1,10,-1
 90 0 l 1,11,-1
 90 108 l 1,0,-1
EndSplineSet
EndChar

StartChar: hyphen
Encoding: 45 45 17
Width: 346
GlyphClass: 2
Flags: W
LayerCount: 2
Fore
SplineSet
295 324 m 1,0,-1
 295 250 l 1,1,-1
 48 250 l 1,2,-1
 48 324 l 1,3,-1
 295 324 l 1,0,-1
EndSplineSet
EndChar

StartChar: period
Encoding: 46 46 18
Width: 289
GlyphClass: 2
Flags: W
LayerCount: 2
Fore
SplineSet
199 108 m 1,0,-1
 199 0 l 1,1,-1
 90 0 l 1,2,-1
 90 108 l 1,3,-1
 199 108 l 1,0,-1
EndSplineSet
EndChar

StartChar: slash
Encoding: 47 47 19
Width: 289
GlyphClass: 2
Flags: W
LayerCount: 2
Fore
SplineSet
238 758 m 1,0,-1
 295 758 l 1,1,-1
 49 -21 l 1,2,-1
 -8 -21 l 1,3,-1
 238 758 l 1,0,-1
EndSplineSet
EndChar

StartChar: zero
Encoding: 48 48 20
Width: 578
GlyphClass: 2
Flags: W
LayerCount: 2
Fore
SplineSet
286 737 m 2,0,1
 393 737 393 737 456 656 c 0,2,3
 527 558 527 558 527 350 c 0,4,5
 527 69 527 69 384 -3 c 0,6,7
 340 -24 340 -24 286 -24 c 0,8,9
 103 -24 103 -24 58 201 c 0,10,11
 45 269 45 269 45 357 c 0,12,13
 45 560 45 560 116 656 c 0,14,15
 173 730 173 730 271 737 c 1,16,-1
 286 737 l 2,0,1
286 656 m 256,17,18
 138 656 138 656 138 356 c 0,19,20
 138 52 138 52 284 52 c 0,21,22
 407 52 407 52 428 252 c 0,23,24
 434 300 434 300 434 359 c 0,25,26
 434 656 434 656 286 656 c 256,17,18
EndSplineSet
EndChar

StartChar: one
Encoding: 49 49 21
Width: 578
GlyphClass: 2
Flags: W
LayerCount: 2
Fore
SplineSet
269 525 m 1,0,-1
 106 525 l 1,1,-1
 106 591 l 1,2,3
 212 604 212 604 243 628 c 0,4,5
 275 651 275 651 296 725 c 1,6,-1
 301 737 l 1,7,-1
 361 737 l 1,8,-1
 361 0 l 1,9,-1
 269 0 l 1,10,-1
 269 525 l 1,0,-1
EndSplineSet
EndChar

StartChar: two
Encoding: 50 50 22
Width: 578
GlyphClass: 2
Flags: W
LayerCount: 2
Fore
SplineSet
526 90 m 1,0,-1
 526 0 l 1,1,-1
 35 0 l 1,2,3
 43 133 43 133 95 203 c 0,4,5
 138 260 138 260 242 319 c 2,6,-1
 338 373 l 2,7,8
 438 431 438 431 438 519 c 0,9,10
 438 594 438 594 375 634 c 0,11,12
 339 657 339 657 292 657 c 0,13,14
 214 657 214 657 173 598 c 0,15,16
 168 592 168 592 165 586 c 0,17,18
 148 552 148 552 144 482 c 1,19,-1
 52 482 l 1,20,21
 55 586 55 586 92 642 c 0,22,23
 154 737 154 737 295 737 c 0,24,25
 398 737 398 737 463 679 c 0,26,27
 531 617 531 617 531 521 c 0,28,29
 531 384 531 384 375 298 c 2,30,-1
 271 242 l 2,31,32
 177 187 177 187 152 136 c 0,33,34
 142 115 142 115 138 90 c 1,35,-1
 526 90 l 1,0,-1
EndSplineSet
EndChar

StartChar: three
Encoding: 51 51 23
Width: 578
GlyphClass: 2
Flags: W
LayerCount: 2
Fore
SplineSet
230 338 m 1,0,-1
 230 416 l 1,1,2
 317 417 317 417 352 432 c 0,3,4
 411 456 411 456 411 531 c 0,5,6
 411 620 411 620 338 648 c 0,7,8
 313 657 313 657 281 657 c 0,9,10
 199 657 199 657 162 601 c 0,11,12
 159 596 159 596 157 592 c 0,13,14
 141 562 141 562 140 499 c 1,15,-1
 49 499 l 1,16,17
 53 718 53 718 246 736 c 0,18,19
 262 737 262 737 280 737 c 0,20,21
 425 737 425 737 479 640 c 0,22,23
 504 595 504 595 504 535 c 0,24,25
 504 422 504 422 401 382 c 1,26,27
 498 348 498 348 519 269 c 0,28,29
 526 242 526 242 526 206 c 0,30,31
 526 78 526 78 428 16 c 0,32,33
 366 -24 366 -24 277 -24 c 0,34,35
 123 -24 123 -24 66 83 c 0,36,37
 38 133 38 133 33 214 c 1,38,-1
 125 214 l 1,39,40
 133 77 133 77 242 60 c 0,41,42
 260 57 260 57 280 57 c 0,43,44
 388 57 388 57 421 139 c 0,45,46
 433 168 433 168 433 205 c 0,47,48
 433 339 433 339 280 339 c 2,49,-1
 241 338 l 1,50,-1
 230 338 l 1,0,-1
EndSplineSet
EndChar

StartChar: four
Encoding: 52 52 24
Width: 578
GlyphClass: 2
Flags: W
LayerCount: 2
Fore
SplineSet
340 177 m 1,0,-1
 29 177 l 1,1,-1
 29 274 l 1,2,-1
 364 737 l 1,3,-1
 432 737 l 1,4,-1
 432 259 l 1,5,-1
 541 259 l 1,6,-1
 541 177 l 1,7,-1
 432 177 l 1,8,-1
 432 0 l 1,9,-1
 340 0 l 1,10,-1
 340 177 l 1,0,-1
340 259 m 1,11,-1
 340 581 l 1,12,-1
 109 259 l 1,13,-1
 340 259 l 1,11,-1
EndSplineSet
EndChar

StartChar: five
Encoding: 53 53 25
Width: 578
GlyphClass: 2
Flags: W
LayerCount: 2
Fore
SplineSet
495 737 m 1,0,-1
 495 647 l 1,1,-1
 188 647 l 1,2,-1
 159 441 l 1,3,4
 220 486 220 486 295 486 c 0,5,6
 420 486 420 486 487 395 c 0,7,8
 534 332 534 332 534 240 c 0,9,10
 534 106 534 106 443 31 c 0,11,12
 376 -24 376 -24 281 -24 c 0,13,14
 164 -24 164 -24 97 46 c 0,15,16
 88 55 88 55 81 64 c 0,17,18
 53 99 53 99 36 181 c 1,19,-1
 128 181 l 1,20,21
 160 57 160 57 279 57 c 0,22,23
 384 57 384 57 423 141 c 0,24,25
 440 179 440 179 440 228 c 0,26,27
 440 341 440 341 361 385 c 0,28,29
 326 405 326 405 279 405 c 0,30,31
 212 405 212 405 165 360 c 0,32,33
 155 349 155 349 144 336 c 1,34,-1
 59 336 l 1,35,-1
 114 737 l 1,36,-1
 495 737 l 1,0,-1
EndSplineSet
EndChar

StartChar: six
Encoding: 54 54 26
Width: 578
GlyphClass: 2
Flags: W
LayerCount: 2
Fore
SplineSet
518 545 m 1,0,-1
 426 545 l 1,1,2
 408 636 408 636 332 653 c 0,3,4
 318 656 318 656 303 656 c 0,5,6
 187 656 187 656 152 506 c 0,7,8
 138 450 138 450 138 376 c 1,9,10
 199 459 199 459 308 459 c 0,11,12
 423 459 423 459 488 372 c 0,13,14
 534 311 534 311 534 225 c 0,15,16
 534 101 534 101 448 30 c 0,17,18
 384 -24 384 -24 292 -24 c 0,19,20
 168 -24 168 -24 107 68 c 0,21,22
 47 159 47 159 45 324 c 2,23,-1
 45 336 l 2,24,25
 45 528 45 528 111 632 c 0,26,27
 170 720 170 720 274 735 c 0,28,29
 291 737 291 737 309 737 c 0,30,31
 428 737 428 737 486 641 c 0,32,33
 510 600 510 600 518 545 c 1,0,-1
296 378 m 0,34,35
 208 378 208 378 166 309 c 0,36,37
 144 271 144 271 144 223 c 0,38,39
 144 133 144 133 207 85 c 0,40,41
 244 57 244 57 293 57 c 0,42,43
 372 57 372 57 414 123 c 0,44,45
 440 164 440 164 440 217 c 0,46,47
 440 323 440 323 366 362 c 0,48,49
 336 378 336 378 296 378 c 0,34,35
EndSplineSet
EndChar

StartChar: seven
Encoding: 55 55 27
Width: 578
GlyphClass: 2
Flags: W
LayerCount: 2
Fore
SplineSet
541 737 m 1,0,-1
 541 660 l 1,1,2
 331 382 331 382 262 100 c 0,3,4
 250 51 250 51 241 0 c 1,5,-1
 144 0 l 1,6,7
 196 227 196 227 292 405 c 0,8,9
 349 510 349 510 446 647 c 1,10,-1
 48 647 l 1,11,-1
 48 737 l 1,12,-1
 541 737 l 1,0,-1
EndSplineSet
EndChar

StartChar: eight
Encoding: 56 56 28
Width: 578
GlyphClass: 2
Flags: W
LayerCount: 2
Fore
SplineSet
407 388 m 1,0,1
 534 328 534 328 534 204 c 0,2,3
 534 87 534 87 444 24 c 0,4,5
 379 -24 379 -24 286 -24 c 0,6,7
 157 -24 157 -24 87 61 c 0,8,9
 38 122 38 122 38 205 c 0,10,11
 38 328 38 328 164 388 c 1,12,13
 89 435 89 435 73 485 c 0,14,15
 64 509 64 509 64 541 c 0,16,17
 64 644 64 644 149 699 c 0,18,19
 206 737 206 737 286 737 c 0,20,21
 407 737 407 737 468 658 c 0,22,23
 508 608 508 608 508 541 c 0,24,25
 508 470 508 470 461 427 c 0,26,27
 441 409 441 409 407 388 c 1,0,1
286 656 m 0,28,29
 203 656 203 656 172 596 c 0,30,31
 158 571 158 571 158 540 c 0,32,33
 158 467 158 467 222 438 c 0,34,35
 250 424 250 424 286 424 c 0,36,37
 369 424 369 424 400 484 c 0,38,39
 414 509 414 509 414 539 c 0,40,41
 414 617 414 617 346 645 c 0,42,43
 320 656 320 656 286 656 c 0,28,29
286 347 m 0,44,45
 193 347 193 347 153 281 c 0,46,47
 132 246 132 246 132 203 c 0,48,49
 132 118 132 118 201 78 c 0,50,51
 236 57 236 57 284 57 c 0,52,53
 379 57 379 57 419 125 c 0,54,55
 440 159 440 159 440 203 c 0,56,57
 440 288 440 288 370 328 c 0,58,59
 334 347 334 347 286 347 c 0,44,45
EndSplineSet
EndChar

StartChar: nine
Encoding: 57 57 29
Width: 578
GlyphClass: 2
Flags: W
LayerCount: 2
Fore
SplineSet
55 168 m 1,0,-1
 147 168 l 1,1,2
 165 77 165 77 241 60 c 0,3,4
 255 57 255 57 270 57 c 0,5,6
 386 57 386 57 421 207 c 0,7,8
 435 263 435 263 435 337 c 1,9,10
 362 257 362 257 266 255 c 0,11,12
 150 255 150 255 85 341 c 0,13,14
 40 402 40 402 40 489 c 0,15,16
 40 613 40 613 125 683 c 0,17,18
 189 737 189 737 281 737 c 0,19,20
 405 737 405 737 467 646 c 0,21,22
 527 554 527 554 529 389 c 0,23,24
 529 384 529 384 529 378 c 0,25,26
 529 185 529 185 462 81 c 0,27,28
 407 -3 407 -3 306 -21 c 0,29,30
 285 -24 285 -24 264 -24 c 0,31,32
 145 -24 145 -24 87 73 c 0,33,34
 63 114 63 114 55 168 c 1,0,-1
280 657 m 0,35,36
 201 657 201 657 159 591 c 0,37,38
 133 550 133 550 133 496 c 0,39,40
 133 390 133 390 207 352 c 0,41,42
 237 336 237 336 277 336 c 0,43,44
 363 336 363 336 406 404 c 0,45,46
 430 441 430 441 430 491 c 0,47,48
 430 581 430 581 366 629 c 0,49,50
 328 657 328 657 280 657 c 0,35,36
EndSplineSet
EndChar

StartChar: colon
Encoding: 58 58 30
Width: 289
GlyphClass: 2
Flags: W
LayerCount: 2
Fore
SplineSet
223 108 m 1,0,-1
 223 0 l 1,1,-1
 114 0 l 1,2,-1
 114 108 l 1,3,-1
 223 108 l 1,0,-1
223 545 m 1,4,-1
 223 437 l 1,5,-1
 114 437 l 1,6,-1
 114 545 l 1,7,-1
 223 545 l 1,4,-1
EndSplineSet
EndChar

StartChar: semicolon
Encoding: 59 59 31
Width: 289
GlyphClass: 2
Flags: W
LayerCount: 2
Fore
SplineSet
224 545 m 1,0,-1
 224 437 l 1,1,-1
 115 437 l 1,2,-1
 115 545 l 1,3,-1
 224 545 l 1,0,-1
114 108 m 1,4,-1
 224 108 l 1,5,-1
 224 -17 l 2,6,7
 224 -153 224 -153 114 -153 c 1,8,-1
 114 -113 l 1,9,10
 159 -111 159 -111 170 -79 c 0,11,12
 177 -59 177 -59 177 -19 c 2,13,-1
 177 0 l 1,14,-1
 114 0 l 1,15,-1
 114 108 l 1,4,-1
EndSplineSet
EndChar

StartChar: less
Encoding: 60 60 32
Width: 607
GlyphClass: 2
Flags: W
LayerCount: 2
Fore
SplineSet
47 206 m 1,0,-1
 47 278 l 1,1,-1
 555 493 l 1,2,-1
 555 411 l 1,3,-1
 146 243 l 1,4,-1
 555 73 l 1,5,-1
 555 -9 l 1,6,-1
 47 206 l 1,0,-1
EndSplineSet
EndChar

StartChar: equal
Encoding: 61 61 33
Width: 607
GlyphClass: 2
Flags: W
LayerCount: 2
Fore
SplineSet
555 367 m 1,0,-1
 555 294 l 1,1,-1
 52 294 l 1,2,-1
 52 367 l 1,3,-1
 555 367 l 1,0,-1
555 188 m 1,4,-1
 555 115 l 1,5,-1
 52 115 l 1,6,-1
 52 188 l 1,7,-1
 555 188 l 1,4,-1
EndSplineSet
EndChar

StartChar: greater
Encoding: 62 62 34
Width: 607
GlyphClass: 2
Flags: W
LayerCount: 2
Fore
SplineSet
561 278 m 1,0,-1
 561 206 l 1,1,-1
 52 -9 l 1,2,-1
 52 73 l 1,3,-1
 462 240 l 1,4,-1
 52 411 l 1,5,-1
 52 493 l 1,6,-1
 561 278 l 1,0,-1
EndSplineSet
EndChar

StartChar: question
Encoding: 63 63 35
Width: 578
GlyphClass: 2
Flags: W
LayerCount: 2
Fore
SplineSet
343 207 m 1,0,-1
 250 207 l 1,1,-1
 250 264 l 2,2,3
 250 316 250 316 279 355 c 0,4,5
 296 378 296 378 333 412 c 0,6,7
 340 418 340 418 358 434 c 0,8,9
 435 502 435 502 436 571 c 0,10,11
 436 644 436 644 372 675 c 0,12,13
 341 690 341 690 303 690 c 0,14,15
 217 690 217 690 186 629 c 0,16,17
 168 594 168 594 168 527 c 1,18,-1
 80 527 l 1,19,20
 80 747 80 747 267 769 c 0,21,22
 287 771 287 771 308 771 c 0,23,24
 439 771 439 771 497 684 c 0,25,26
 529 636 529 636 529 571 c 0,27,28
 529 498 529 498 476 437 c 0,29,30
 457 413 457 413 425 385 c 0,31,32
 360 324 360 324 349 296 c 0,33,34
 343 281 343 281 343 256 c 2,35,-1
 343 207 l 1,0,-1
343 108 m 1,36,-1
 343 0 l 1,37,-1
 250 0 l 1,38,-1
 250 108 l 1,39,-1
 343 108 l 1,36,-1
EndSplineSet
EndChar

StartChar: at
Encoding: 64 64 36
Width: 1055
GlyphClass: 2
Flags: W
LayerCount: 2
Fore
SplineSet
692 521 m 1,0,-1
 778 521 l 1,1,-1
 684 230 l 2,2,3
 672 193 672 193 672 178 c 0,4,5
 672 150 672 150 702 136 c 0,6,7
 712 132 712 132 724 132 c 0,8,9
 790 132 790 132 846 207 c 0,10,11
 899 281 899 281 899 371 c 0,12,13
 899 496 899 496 798 589 c 0,14,15
 695 684 695 684 548 691 c 0,16,17
 541 691 541 691 532 691 c 0,18,19
 380 691 380 691 262 584 c 0,20,21
 148 482 148 482 127 336 c 0,22,23
 124 310 124 310 124 284 c 0,24,25
 124 137 124 137 233 36 c 0,26,27
 345 -68 345 -68 514 -68 c 0,28,29
 596 -68 596 -68 714 -34 c 1,30,-1
 744 -104 l 1,31,32
 627 -148 627 -148 509 -148 c 0,33,34
 321 -148 321 -148 185 -36 c 0,35,36
 58 68 58 68 38 220 c 0,37,38
 35 244 35 244 35 268 c 0,39,40
 35 428 35 428 134 564 c 0,41,42
 163 604 163 604 200 636 c 0,43,44
 312 738 312 738 469 764 c 0,45,46
 508 771 508 771 546 771 c 0,47,48
 719 771 719 771 847 666 c 0,49,50
 967 568 967 568 986 427 c 0,51,52
 989 406 989 406 989 384 c 0,53,54
 989 258 989 258 900 152 c 0,55,56
 821 59 821 59 706 59 c 0,57,58
 607 59 607 59 592 139 c 1,59,60
 523 64 523 64 444 64 c 0,61,62
 359 64 359 64 310 136 c 0,63,64
 275 187 275 187 275 255 c 0,65,66
 275 368 275 368 357 456 c 0,67,68
 437 542 437 542 542 543 c 0,69,70
 629 543 629 543 669 452 c 1,71,-1
 692 521 l 1,0,-1
536 476 m 0,72,73
 467 476 467 476 416 405 c 0,74,75
 368 338 368 338 368 254 c 0,76,77
 368 184 368 184 417 149 c 0,78,79
 442 131 442 131 471 131 c 0,80,81
 531 131 531 131 577 199 c 0,82,83
 612 249 612 249 628 336 c 0,84,85
 632 359 632 359 633 376 c 2,86,-1
 631 404 l 1,87,88
 620 453 620 453 571 470 c 0,89,90
 554 476 554 476 536 476 c 0,72,73
EndSplineSet
EndChar

StartChar: A
Encoding: 65 65 37
Width: 693
GlyphClass: 2
Flags: W
LayerCount: 2
Fore
SplineSet
493 228 m 1,0,-1
 201 228 l 1,1,-1
 121 0 l 1,2,-1
 18 0 l 1,3,-1
 288 758 l 1,4,-1
 413 758 l 1,5,-1
 679 0 l 1,6,-1
 571 0 l 1,7,-1
 493 228 l 1,0,-1
466 309 m 1,8,-1
 349 654 l 1,9,-1
 225 309 l 1,10,-1
 466 309 l 1,8,-1
EndSplineSet
EndChar

StartChar: B
Encoding: 66 66 38
Width: 578
GlyphClass: 2
Flags: W
LayerCount: 2
Fore
SplineSet
56 758 m 1,0,-1
 142 758 l 1,1,-1
 142 471 l 1,2,3
 202 561 202 561 311 561 c 0,4,5
 444 561 444 561 505 448 c 0,6,7
 544 378 544 378 544 275 c 0,8,9
 544 107 544 107 449 27 c 0,10,11
 390 -24 390 -24 307 -24 c 0,12,13
 196 -24 196 -24 134 70 c 1,14,-1
 134 0 l 1,15,-1
 56 0 l 1,16,-1
 56 758 l 1,0,-1
294 479 m 0,17,18
 208 479 208 479 167 392 c 0,19,20
 142 340 142 340 142 268 c 0,21,22
 142 138 142 138 214 84 c 0,23,24
 249 57 249 57 294 57 c 0,25,26
 382 57 382 57 425 139 c 0,27,28
 453 192 453 192 453 265 c 0,29,30
 453 397 453 397 379 452 c 0,31,32
 342 479 342 479 294 479 c 0,17,18
EndSplineSet
EndChar

StartChar: C
Encoding: 67 67 39
Width: 520
GlyphClass: 2
Flags: W
LayerCount: 2
Fore
SplineSet
490 362 m 1,0,-1
 402 362 l 1,1,2
 389 463 389 463 302 478 c 0,3,4
 288 480 288 480 274 480 c 0,5,6
 176 480 176 480 139 376 c 0,7,8
 123 329 123 329 123 263 c 0,9,10
 123 121 123 121 205 74 c 0,11,12
 235 56 235 56 276 56 c 0,13,14
 387 56 387 56 409 187 c 1,15,-1
 496 187 l 1,16,17
 485 45 485 45 376 -3 c 0,18,19
 332 -24 332 -24 274 -24 c 0,20,21
 139 -24 139 -24 75 85 c 0,22,23
 32 158 32 158 32 263 c 0,24,25
 32 430 32 430 128 510 c 0,26,27
 189 561 189 561 275 561 c 0,28,29
 385 561 385 561 445 490 c 1,30,-1
 453 479 l 2,31,32
 484 435 484 435 490 362 c 1,0,-1
EndSplineSet
EndChar

StartChar: D
Encoding: 68 68 40
Width: 578
GlyphClass: 2
Flags: W
LayerCount: 2
Fore
SplineSet
515 758 m 1,0,-1
 515 0 l 1,1,-1
 438 0 l 1,2,-1
 438 72 l 1,3,4
 378 -15 378 -15 288 -23 c 0,5,6
 277 -24 277 -24 264 -24 c 0,7,8
 129 -24 129 -24 67 93 c 0,9,10
 27 166 27 166 27 274 c 0,11,12
 27 434 27 434 120 512 c 0,13,14
 179 561 179 561 261 561 c 0,15,16
 373 561 373 561 428 476 c 1,17,-1
 428 758 l 1,18,-1
 515 758 l 1,0,-1
276 479 m 0,19,20
 187 479 187 479 145 394 c 0,21,22
 118 342 118 342 118 268 c 0,23,24
 118 141 118 141 190 85 c 0,25,26
 228 57 228 57 277 57 c 0,27,28
 363 57 363 57 404 142 c 0,29,30
 428 194 428 194 428 266 c 0,31,32
 428 402 428 402 354 456 c 0,33,34
 319 479 319 479 276 479 c 0,19,20
EndSplineSet
EndChar

StartChar: E
Encoding: 69 69 41
Width: 693
GlyphClass: 2
Flags: W
LayerCount: 2
Fore
SplineSet
190 345 m 1,0,-1
 190 85 l 1,1,-1
 638 85 l 1,2,-1
 638 0 l 1,3,-1
 94 0 l 1,4,-1
 94 758 l 1,5,-1
 619 758 l 1,6,-1
 619 673 l 1,7,-1
 190 673 l 1,8,-1
 190 431 l 1,9,-1
 603 431 l 1,10,-1
 603 345 l 1,11,-1
 190 345 l 1,0,-1
EndSplineSet
EndChar

StartChar: F
Encoding: 70 70 42
Width: 635
GlyphClass: 2
Flags: W
LayerCount: 2
Fore
SplineSet
190 345 m 1,0,-1
 190 0 l 1,1,-1
 94 0 l 1,2,-1
 94 758 l 1,3,-1
 602 758 l 1,4,-1
 602 673 l 1,5,-1
 190 673 l 1,6,-1
 190 431 l 1,7,-1
 552 431 l 1,8,-1
 552 345 l 1,9,-1
 190 345 l 1,0,-1
EndSplineSet
EndChar

StartChar: G
Encoding: 71 71 43
Width: 578
GlyphClass: 2
Flags: W
LayerCount: 2
Fore
SplineSet
428 545 m 1,0,-1
 509 545 l 1,1,-1
 509 89 l 2,2,3
 509 -71 509 -71 466 -137 c 0,4,5
 459 -148 459 -148 451 -157 c 0,6,7
 401 -219 401 -219 288 -226 c 0,8,9
 277 -227 277 -227 265 -227 c 0,10,11
 122 -227 122 -227 70 -135 c 0,12,13
 52 -103 52 -103 48 -62 c 1,14,-1
 136 -62 l 1,15,16
 142 -103 142 -103 170 -125 c 0,17,18
 207 -154 207 -154 268 -154 c 0,19,20
 353 -154 353 -154 389 -103 c 0,21,22
 420 -60 420 -60 420 46 c 2,23,-1
 420 74 l 1,24,25
 359 -11 359 -11 283 -22 c 0,26,27
 269 -24 269 -24 255 -24 c 0,28,29
 168 -24 168 -24 105 43 c 2,30,-1
 99 49 l 1,31,32
 30 129 30 129 30 263 c 0,33,34
 30 422 30 422 119 504 c 0,35,36
 178 561 178 561 262 561 c 0,37,38
 364 561 364 561 428 466 c 1,39,-1
 428 545 l 1,0,-1
271 480 m 0,40,41
 181 480 181 480 141 388 c 0,42,43
 121 338 121 338 121 268 c 0,44,45
 121 124 121 124 202 75 c 0,46,47
 232 56 232 56 272 56 c 0,48,49
 365 56 365 56 401 152 c 0,50,51
 420 200 420 200 420 265 c 0,52,53
 420 421 420 421 335 466 c 0,54,55
 307 480 307 480 271 480 c 0,40,41
EndSplineSet
EndChar

StartChar: H
Encoding: 72 72 44
Width: 750
GlyphClass: 2
Flags: W
LayerCount: 2
Fore
SplineSet
573 345 m 1,0,-1
 184 345 l 1,1,-1
 184 0 l 1,2,-1
 86 0 l 1,3,-1
 86 758 l 1,4,-1
 183 758 l 1,5,-1
 183 431 l 1,6,-1
 573 431 l 1,7,-1
 573 758 l 1,8,-1
 670 758 l 1,9,-1
 670 0 l 1,10,-1
 573 0 l 1,11,-1
 573 345 l 1,0,-1
EndSplineSet
EndChar

StartChar: I
Encoding: 73 73 45
Width: 289
GlyphClass: 2
Flags: W
LayerCount: 2
Fore
SplineSet
202 758 m 1,0,-1
 202 0 l 1,1,-1
 104 0 l 1,2,-1
 104 758 l 1,3,-1
 202 758 l 1,0,-1
EndSplineSet
EndChar

StartChar: J
Encoding: 74 74 46
Width: 520
GlyphClass: 2
Flags: W
LayerCount: 2
Fore
SplineSet
346 758 m 1,0,-1
 443 758 l 1,1,-1
 443 189 l 2,2,3
 443 60 443 60 349 5 c 0,4,5
 298 -24 298 -24 229 -24 c 0,6,7
 100 -24 100 -24 46 66 c 0,8,9
 18 113 18 113 18 177 c 2,10,-1
 18 243 l 1,11,-1
 116 243 l 1,12,-1
 116 194 l 2,13,14
 116 80 116 80 199 60 c 0,15,16
 213 57 213 57 230 57 c 0,17,18
 290 57 290 57 322 104 c 0,19,20
 346 139 346 139 346 225 c 2,21,-1
 346 758 l 1,0,-1
EndSplineSet
EndChar

StartChar: K
Encoding: 75 75 47
Width: 693
GlyphClass: 2
Flags: W
LayerCount: 2
Fore
SplineSet
179 265 m 1,0,-1
 179 0 l 1,1,-1
 82 0 l 1,2,-1
 82 758 l 1,3,-1
 179 758 l 1,4,-1
 179 374 l 1,5,-1
 556 758 l 1,6,-1
 681 758 l 1,7,-1
 372 449 l 1,8,-1
 684 0 l 1,9,-1
 570 0 l 1,10,-1
 303 389 l 1,11,-1
 179 265 l 1,0,-1
EndSplineSet
EndChar

StartChar: L
Encoding: 76 76 48
Width: 578
GlyphClass: 2
Flags: W
LayerCount: 2
Fore
SplineSet
180 758 m 1,0,-1
 180 85 l 1,1,-1
 554 85 l 1,2,-1
 554 0 l 1,3,-1
 83 0 l 1,4,-1
 83 758 l 1,5,-1
 180 758 l 1,0,-1
EndSplineSet
EndChar

StartChar: M
Encoding: 77 77 49
Width: 866
GlyphClass: 2
Flags: W
LayerCount: 2
Fore
SplineSet
487 0 m 1,0,-1
 385 0 l 1,1,-1
 170 635 l 1,2,-1
 170 0 l 1,3,-1
 78 0 l 1,4,-1
 78 758 l 1,5,-1
 212 758 l 1,6,-1
 437 98 l 1,7,-1
 657 758 l 1,8,-1
 791 758 l 1,9,-1
 791 0 l 1,10,-1
 700 0 l 1,11,-1
 700 635 l 1,12,-1
 487 0 l 1,0,-1
EndSplineSet
EndChar

StartChar: N
Encoding: 78 78 50
Width: 750
GlyphClass: 2
Flags: W
LayerCount: 2
Fore
SplineSet
672 758 m 1,0,-1
 672 0 l 1,1,-1
 563 0 l 1,2,-1
 171 615 l 1,3,-1
 171 0 l 1,4,-1
 79 0 l 1,5,-1
 79 758 l 1,6,-1
 184 758 l 1,7,-1
 580 138 l 1,8,-1
 580 758 l 1,9,-1
 672 758 l 1,0,-1
EndSplineSet
EndChar

StartChar: O
Encoding: 79 79 51
Width: 809
GlyphClass: 2
Flags: W
LayerCount: 2
Fore
SplineSet
405 771 m 0,0,1
 586 771 586 771 686 643 c 0,2,3
 772 535 772 535 772 367 c 0,4,5
 772 213 772 213 686 104 c 0,6,7
 666 77 666 77 641 56 c 0,8,9
 546 -24 546 -24 406 -24 c 0,10,11
 232 -24 232 -24 130 98 c 0,12,13
 40 206 40 206 40 373 c 0,14,15
 40 565 40 565 155 676 c 0,16,17
 254 771 254 771 405 771 c 0,0,1
405 685 m 0,18,19
 269 685 269 685 194 579 c 0,20,21
 136 496 136 496 136 373 c 0,22,23
 136 209 136 209 235 123 c 0,24,25
 305 61 305 61 406 61 c 0,26,27
 540 61 540 61 615 165 c 0,28,29
 675 248 675 248 675 369 c 0,30,31
 675 541 675 541 573 627 c 0,32,33
 504 685 504 685 405 685 c 0,18,19
EndSplineSet
EndChar

StartChar: P
Encoding: 80 80 52
Width: 693
GlyphClass: 2
Flags: W
LayerCount: 2
Fore
SplineSet
191 321 m 1,0,-1
 191 0 l 1,1,-1
 95 0 l 1,2,-1
 95 758 l 1,3,-1
 408 758 l 2,4,5
 575 758 575 758 624 635 c 0,6,7
 642 593 642 593 642 536 c 0,8,9
 642 435 642 435 576 375 c 0,10,11
 516 321 516 321 430 321 c 2,12,-1
 191 321 l 1,0,-1
191 407 m 1,13,-1
 393 407 l 2,14,15
 499 407 499 407 530 484 c 0,16,17
 541 509 541 509 541 540 c 0,18,19
 541 633 541 633 459 662 c 0,20,21
 430 673 430 673 393 673 c 2,22,-1
 191 673 l 1,23,-1
 191 407 l 1,13,-1
EndSplineSet
EndChar

StartChar: Q
Encoding: 81 81 53
Width: 578
GlyphClass: 2
Flags: W
LayerCount: 2
Fore
SplineSet
515 -227 m 1,0,-1
 428 -227 l 1,1,-1
 428 62 l 1,2,3
 369 -24 369 -24 260 -24 c 0,4,5
 127 -24 127 -24 66 88 c 0,6,7
 27 159 27 159 27 262 c 0,8,9
 27 430 27 430 122 510 c 0,10,11
 181 561 181 561 264 561 c 0,12,13
 375 561 375 561 438 472 c 1,14,-1
 438 545 l 1,15,-1
 515 545 l 1,16,-1
 515 -227 l 1,0,-1
277 479 m 0,17,18
 189 479 189 479 146 395 c 0,19,20
 118 342 118 342 118 268 c 0,21,22
 118 141 118 141 190 85 c 0,23,24
 228 57 228 57 277 57 c 0,25,26
 362 57 362 57 404 141 c 0,27,28
 428 193 428 193 428 265 c 0,29,30
 428 401 428 401 355 454 c 0,31,32
 320 479 320 479 277 479 c 0,17,18
EndSplineSet
EndChar

StartChar: R
Encoding: 82 82 54
Width: 346
GlyphClass: 2
Flags: W
LayerCount: 2
Fore
SplineSet
72 545 m 1,0,-1
 152 545 l 1,1,-1
 152 446 l 1,2,3
 212 543 212 543 272 557 c 0,4,5
 286 561 286 561 301 561 c 0,6,7
 312 561 312 561 334 557 c 1,8,-1
 334 469 l 1,9,10
 259 468 259 468 227 446 c 2,11,-1
 220 442 l 1,12,13
 159 397 159 397 159 283 c 2,14,-1
 159 0 l 1,15,-1
 72 0 l 1,16,-1
 72 545 l 1,0,-1
EndSplineSet
EndChar

StartChar: S
Encoding: 83 83 55
Width: 520
GlyphClass: 2
Flags: W
LayerCount: 2
Fore
SplineSet
456 393 m 1,0,-1
 364 393 l 1,1,2
 361 480 361 480 255 480 c 0,3,4
 170 480 170 480 146 430 c 0,5,6
 139 415 139 415 139 398 c 0,7,8
 139 352 139 352 208 329 c 0,9,10
 223 324 223 324 240 320 c 2,11,-1
 323 301 l 2,12,13
 446 271 446 271 470 199 c 0,14,15
 477 177 477 177 477 149 c 0,16,17
 477 50 477 50 386 4 c 0,18,19
 331 -24 331 -24 253 -24 c 0,20,21
 51 -24 51 -24 36 145 c 0,22,23
 35 153 35 153 35 162 c 1,24,-1
 127 162 l 1,25,26
 133 113 133 113 152 93 c 0,27,28
 186 56 186 56 260 56 c 0,29,30
 347 56 347 56 376 105 c 0,31,32
 387 122 387 122 387 141 c 0,33,34
 387 189 387 189 331 209 c 0,35,36
 318 213 318 213 303 217 c 2,37,-1
 222 237 l 2,38,39
 98 267 98 267 66 320 c 0,40,41
 49 349 49 349 49 394 c 0,42,43
 49 491 49 491 136 535 c 0,44,45
 187 561 187 561 258 561 c 0,46,47
 409 561 409 561 445 456 c 0,48,49
 456 427 456 427 456 393 c 1,0,-1
EndSplineSet
EndChar

StartChar: T
Encoding: 84 84 56
Width: 289
GlyphClass: 2
Flags: W
LayerCount: 2
Fore
SplineSet
264 545 m 1,0,-1
 264 474 l 1,1,-1
 175 474 l 1,2,-1
 175 101 l 2,3,4
 175 61 175 61 198 55 c 0,5,6
 207 52 207 52 223 52 c 0,7,8
 249 52 249 52 264 56 c 1,9,-1
 264 -17 l 1,10,11
 224 -24 224 -24 193 -24 c 0,12,13
 101 -24 101 -24 89 46 c 0,14,15
 88 53 88 53 88 62 c 2,16,-1
 88 474 l 1,17,-1
 15 474 l 1,18,-1
 15 545 l 1,19,-1
 88 545 l 1,20,-1
 88 695 l 1,21,-1
 175 695 l 1,22,-1
 175 545 l 1,23,-1
 264 545 l 1,0,-1
EndSplineSet
EndChar

StartChar: U
Encoding: 85 85 57
Width: 750
GlyphClass: 2
Flags: W
LayerCount: 2
Fore
SplineSet
574 758 m 1,0,-1
 671 758 l 1,1,-1
 671 226 l 2,2,3
 671 90 671 90 563 23 c 0,4,5
 488 -24 488 -24 379 -24 c 0,6,7
 207 -24 207 -24 131 81 c 0,8,9
 88 141 88 141 88 226 c 2,10,-1
 88 758 l 1,11,-1
 185 758 l 1,12,-1
 185 226 l 2,13,14
 185 145 185 145 240 101 c 0,15,16
 295 61 295 61 379 61 c 0,17,18
 508 61 508 61 554 145 c 0,19,20
 574 180 574 180 574 226 c 2,21,-1
 574 758 l 1,0,-1
EndSplineSet
EndChar

StartChar: V
Encoding: 86 86 58
Width: 693
GlyphClass: 2
Flags: W
LayerCount: 2
Fore
SplineSet
408 0 m 1,0,-1
 304 0 l 1,1,-1
 31 758 l 1,2,-1
 135 758 l 1,3,-1
 358 116 l 1,4,-1
 568 758 l 1,5,-1
 671 758 l 1,6,-1
 408 0 l 1,0,-1
EndSplineSet
EndChar

StartChar: W
Encoding: 87 87 59
Width: 750
GlyphClass: 2
Flags: W
LayerCount: 2
Fore
SplineSet
93 0 m 1,0,-1
 93 758 l 1,1,-1
 385 758 l 2,2,3
 554 758 554 758 636 621 c 0,4,5
 694 525 694 525 694 380 c 0,6,7
 694 162 694 162 573 63 c 0,8,9
 497 0 497 0 385 0 c 2,10,-1
 93 0 l 1,0,-1
189 85 m 1,11,-1
 368 85 l 2,12,13
 549 85 549 85 588 274 c 0,14,15
 597 320 597 320 597 379 c 0,16,17
 597 634 597 634 422 668 c 0,18,19
 396 673 396 673 368 673 c 2,20,-1
 189 673 l 1,21,-1
 189 85 l 1,11,-1
EndSplineSet
EndChar

StartChar: X
Encoding: 88 88 60
Width: 635
GlyphClass: 2
Flags: W
LayerCount: 2
Fore
SplineSet
368 673 m 1,0,-1
 368 0 l 1,1,-1
 271 0 l 1,2,-1
 271 673 l 1,3,-1
 22 673 l 1,4,-1
 22 758 l 1,5,-1
 617 758 l 1,6,-1
 617 673 l 1,7,-1
 368 673 l 1,0,-1
EndSplineSet
EndChar

StartChar: Y
Encoding: 89 89 61
Width: 520
GlyphClass: 2
Flags: W
LayerCount: 2
Fore
SplineSet
404 545 m 1,0,-1
 497 545 l 1,1,-1
 255 -114 l 2,2,3
 232 -174 232 -174 196 -201 c 0,4,5
 160 -227 160 -227 114 -227 c 0,6,7
 82 -227 82 -227 56 -213 c 1,8,-1
 56 -135 l 1,9,10
 84 -141 84 -141 102 -141 c 0,11,12
 149 -141 149 -141 167 -100 c 0,13,14
 170 -95 170 -95 172 -88 c 2,15,-1
 205 -2 l 1,16,-1
 21 545 l 1,17,-1
 113 545 l 1,18,-1
 253 121 l 1,19,-1
 404 545 l 1,0,-1
EndSplineSet
EndChar

StartChar: Z
Encoding: 90 90 62
Width: 635
GlyphClass: 2
Flags: W
LayerCount: 2
Fore
SplineSet
604 758 m 1,0,-1
 604 671 l 1,1,-1
 151 85 l 1,2,-1
 606 85 l 1,3,-1
 606 0 l 1,4,-1
 29 0 l 1,5,-1
 29 85 l 1,6,-1
 485 673 l 1,7,-1
 58 673 l 1,8,-1
 58 758 l 1,9,-1
 604 758 l 1,0,-1
EndSplineSet
EndChar

StartChar: bracketleft
Encoding: 91 91 63
Width: 289
GlyphClass: 2
Flags: W
LayerCount: 2
Fore
SplineSet
260 758 m 1,0,-1
 260 683 l 1,1,-1
 153 683 l 1,2,-1
 153 -146 l 1,3,-1
 260 -146 l 1,4,-1
 260 -220 l 1,5,-1
 67 -220 l 1,6,-1
 67 758 l 1,7,-1
 260 758 l 1,0,-1
EndSplineSet
EndChar

StartChar: backslash
Encoding: 92 92 64
Width: 289
GlyphClass: 2
Flags: W
LayerCount: 2
Fore
SplineSet
49 758 m 1,0,-1
 295 -21 l 1,1,-1
 238 -21 l 1,2,-1
 -8 758 l 1,3,-1
 49 758 l 1,0,-1
EndSplineSet
EndChar

StartChar: bracketright
Encoding: 93 93 65
Width: 289
GlyphClass: 2
Flags: W
LayerCount: 2
Fore
SplineSet
24 -220 m 1,0,-1
 24 -146 l 1,1,-1
 131 -146 l 1,2,-1
 131 683 l 1,3,-1
 24 683 l 1,4,-1
 24 758 l 1,5,-1
 217 758 l 1,6,-1
 217 -220 l 1,7,-1
 24 -220 l 1,0,-1
EndSplineSet
EndChar

StartChar: asciicircum
Encoding: 94 94 66
Width: 487
GlyphClass: 2
Flags: W
LayerCount: 2
Fore
SplineSet
205 737 m 1,0,-1
 281 737 l 1,1,-1
 442 342 l 1,2,-1
 370 342 l 1,3,-1
 243 654 l 1,4,-1
 118 342 l 1,5,-1
 46 342 l 1,6,-1
 205 737 l 1,0,-1
EndSplineSet
EndChar

StartChar: underscore
Encoding: 95 95 67
Width: 578
GlyphClass: 2
Flags: W
LayerCount: 2
Fore
SplineSet
601 -131 m 1,0,-1
 601 -183 l 1,1,-1
 -23 -183 l 1,2,-1
 -23 -131 l 1,3,-1
 601 -131 l 1,0,-1
EndSplineSet
EndChar

StartChar: grave
Encoding: 96 96 68
Width: 230
GlyphClass: 2
Flags: W
LayerCount: 2
Fore
SplineSet
164 496 m 1,0,-1
 68 496 l 1,1,-1
 68 601 l 2,2,3
 68 716 68 716 147 734 c 0,4,5
 155 736 155 736 164 737 c 1,6,-1
 164 698 l 1,7,8
 114 691 114 691 114 610 c 2,9,-1
 114 604 l 1,10,-1
 164 604 l 1,11,-1
 164 496 l 1,0,-1
EndSplineSet
EndChar

StartChar: a
Encoding: 97 97 69
Width: 578
GlyphClass: 2
Flags: W
LayerCount: 2
Fore
SplineSet
556 51 m 1,0,-1
 556 -15 l 1,1,2
 520 -24 520 -24 497 -24 c 0,3,4
 423 -24 423 -24 410 42 c 2,5,-1
 408 56 l 1,6,7
 317 -23 317 -23 223 -24 c 0,8,9
 108 -24 108 -24 63 54 c 0,10,11
 44 90 44 90 44 137 c 0,12,13
 44 243 44 243 139 283 c 0,14,15
 177 298 177 298 275 311 c 0,16,17
 291 313 291 313 314 316 c 0,18,19
 390 326 390 326 401 356 c 0,20,21
 405 364 405 364 405 376 c 2,22,-1
 405 399 l 2,23,24
 405 466 405 466 320 478 c 0,25,26
 303 480 303 480 283 480 c 0,27,28
 176 480 176 480 158 402 c 0,29,30
 156 393 156 393 155 384 c 1,31,-1
 68 384 l 1,32,33
 71 459 71 459 105 497 c 0,34,35
 162 561 162 561 286 561 c 0,36,37
 469 561 469 561 489 440 c 0,38,39
 491 426 491 426 491 412 c 2,40,-1
 491 92 l 2,41,42
 491 49 491 49 538 49 c 0,43,44
 547 49 547 49 556 51 c 1,0,-1
405 172 m 2,45,-1
 405 269 l 1,46,47
 371 254 371 254 286 242 c 0,48,49
 277 241 277 241 265 239 c 0,50,51
 155 224 155 224 138 167 c 0,52,53
 134 155 134 155 134 139 c 0,54,55
 134 72 134 72 204 56 c 0,56,57
 220 52 220 52 241 52 c 0,58,59
 316 52 316 52 370 101 c 0,60,61
 404 131 404 131 405 172 c 2,45,-1
EndSplineSet
EndChar

StartChar: b
Encoding: 98 98 70
Width: 578
GlyphClass: 2
Flags: W
LayerCount: 2
Fore
SplineSet
56 758 m 1,0,-1
 142 758 l 1,1,-1
 142 471 l 1,2,3
 202 561 202 561 311 561 c 0,4,5
 444 561 444 561 505 448 c 0,6,7
 544 378 544 378 544 275 c 0,8,9
 544 107 544 107 449 27 c 0,10,11
 390 -24 390 -24 307 -24 c 0,12,13
 196 -24 196 -24 134 70 c 1,14,-1
 134 0 l 1,15,-1
 56 0 l 1,16,-1
 56 758 l 1,0,-1
294 479 m 0,17,18
 208 479 208 479 167 392 c 0,19,20
 142 340 142 340 142 268 c 0,21,22
 142 138 142 138 214 84 c 0,23,24
 249 57 249 57 294 57 c 0,25,26
 382 57 382 57 425 139 c 0,27,28
 453 192 453 192 453 265 c 0,29,30
 453 397 453 397 379 452 c 0,31,32
 342 479 342 479 294 479 c 0,17,18
EndSplineSet
EndChar

StartChar: c
Encoding: 99 99 71
Width: 520
GlyphClass: 2
Flags: W
LayerCount: 2
Fore
SplineSet
490 362 m 1,0,-1
 402 362 l 1,1,2
 389 463 389 463 302 478 c 0,3,4
 288 480 288 480 274 480 c 0,5,6
 176 480 176 480 139 376 c 0,7,8
 123 329 123 329 123 263 c 0,9,10
 123 121 123 121 205 74 c 0,11,12
 235 56 235 56 276 56 c 0,13,14
 387 56 387 56 409 187 c 1,15,-1
 496 187 l 1,16,17
 485 45 485 45 376 -3 c 0,18,19
 332 -24 332 -24 274 -24 c 0,20,21
 139 -24 139 -24 75 85 c 0,22,23
 32 158 32 158 32 263 c 0,24,25
 32 430 32 430 128 510 c 0,26,27
 189 561 189 561 275 561 c 0,28,29
 385 561 385 561 445 490 c 1,30,-1
 453 479 l 2,31,32
 484 435 484 435 490 362 c 1,0,-1
EndSplineSet
EndChar

StartChar: d
Encoding: 100 100 72
Width: 578
GlyphClass: 2
Flags: W
LayerCount: 2
Fore
SplineSet
515 758 m 1,0,-1
 515 0 l 1,1,-1
 438 0 l 1,2,-1
 438 72 l 1,3,4
 378 -15 378 -15 288 -23 c 0,5,6
 277 -24 277 -24 264 -24 c 0,7,8
 129 -24 129 -24 67 93 c 0,9,10
 27 166 27 166 27 274 c 0,11,12
 27 434 27 434 120 512 c 0,13,14
 179 561 179 561 261 561 c 0,15,16
 373 561 373 561 428 476 c 1,17,-1
 428 758 l 1,18,-1
 515 758 l 1,0,-1
276 479 m 0,19,20
 187 479 187 479 145 394 c 0,21,22
 118 342 118 342 118 268 c 0,23,24
 118 141 118 141 190 85 c 0,25,26
 228 57 228 57 277 57 c 0,27,28
 363 57 363 57 404 142 c 0,29,30
 428 194 428 194 428 266 c 0,31,32
 428 402 428 402 354 456 c 0,33,34
 319 479 319 479 276 479 c 0,19,20
EndSplineSet
EndChar

StartChar: e
Encoding: 101 101 73
Width: 578
GlyphClass: 2
Flags: W
LayerCount: 2
Fore
SplineSet
534 243 m 1,0,-1
 132 243 l 1,1,2
 133 168 133 168 161 127 c 0,3,4
 206 56 206 56 292 56 c 0,5,6
 398 56 398 56 435 165 c 1,7,-1
 522 165 l 1,8,9
 499 40 499 40 391 -5 c 0,10,11
 345 -24 345 -24 289 -24 c 0,12,13
 148 -24 148 -24 82 90 c 0,14,15
 42 161 42 161 42 265 c 0,16,17
 42 430 42 430 139 510 c 0,18,19
 202 561 202 561 291 561 c 0,20,21
 411 561 411 561 478 475 c 0,22,23
 499 449 499 449 512 417 c 0,24,25
 534 360 534 360 534 243 c 1,0,-1
134 314 m 1,26,-1
 440 314 l 2,27,28
 441 316 441 316 441 320 c 0,29,30
 441 404 441 404 380 450 c 0,31,32
 340 480 340 480 290 480 c 0,33,34
 202 480 202 480 159 402 c 0,35,36
 138 365 138 365 134 314 c 1,26,-1
EndSplineSet
EndChar

StartChar: f
Encoding: 102 102 74
Width: 289
GlyphClass: 2
Flags: W
LayerCount: 2
Fore
SplineSet
268 545 m 1,0,-1
 268 474 l 1,1,-1
 178 474 l 1,2,-1
 178 0 l 1,3,-1
 92 0 l 1,4,-1
 92 474 l 1,5,-1
 19 474 l 1,6,-1
 19 545 l 1,7,-1
 92 545 l 1,8,-1
 92 638 l 2,9,10
 92 729 92 729 168 754 c 0,11,12
 191 761 191 761 219 761 c 0,13,14
 243 761 243 761 268 756 c 1,15,-1
 268 684 l 1,16,17
 249 685 249 685 238 685 c 0,18,19
 178 685 178 685 178 630 c 2,20,-1
 178 545 l 1,21,-1
 268 545 l 1,0,-1
EndSplineSet
EndChar

StartChar: g
Encoding: 103 103 75
Width: 578
GlyphClass: 2
Flags: W
LayerCount: 2
Fore
SplineSet
428 545 m 1,0,-1
 509 545 l 1,1,-1
 509 89 l 2,2,3
 509 -71 509 -71 466 -137 c 0,4,5
 459 -148 459 -148 451 -157 c 0,6,7
 401 -219 401 -219 288 -226 c 0,8,9
 277 -227 277 -227 265 -227 c 0,10,11
 122 -227 122 -227 70 -135 c 0,12,13
 52 -103 52 -103 48 -62 c 1,14,-1
 136 -62 l 1,15,16
 142 -103 142 -103 170 -125 c 0,17,18
 207 -154 207 -154 268 -154 c 0,19,20
 353 -154 353 -154 389 -103 c 0,21,22
 420 -60 420 -60 420 46 c 2,23,-1
 420 74 l 1,24,25
 359 -11 359 -11 283 -22 c 0,26,27
 269 -24 269 -24 255 -24 c 0,28,29
 168 -24 168 -24 105 43 c 2,30,-1
 99 49 l 1,31,32
 30 129 30 129 30 263 c 0,33,34
 30 422 30 422 119 504 c 0,35,36
 178 561 178 561 262 561 c 0,37,38
 364 561 364 561 428 466 c 1,39,-1
 428 545 l 1,0,-1
271 480 m 0,40,41
 181 480 181 480 141 388 c 0,42,43
 121 338 121 338 121 268 c 0,44,45
 121 124 121 124 202 75 c 0,46,47
 232 56 232 56 272 56 c 0,48,49
 365 56 365 56 401 152 c 0,50,51
 420 200 420 200 420 265 c 0,52,53
 420 421 420 421 335 466 c 0,54,55
 307 480 307 480 271 480 c 0,40,41
EndSplineSet
EndChar

StartChar: h
Encoding: 104 104 76
Width: 578
GlyphClass: 2
Flags: W
LayerCount: 2
Fore
SplineSet
73 758 m 1,0,-1
 159 758 l 1,1,-1
 159 470 l 1,2,3
 215 543 215 543 284 556 c 0,4,5
 306 561 306 561 334 561 c 0,6,7
 448 561 448 561 489 484 c 0,8,9
 505 452 505 452 505 412 c 2,10,-1
 505 0 l 1,11,-1
 419 0 l 1,12,-1
 419 378 l 2,13,14
 419 435 419 435 384 460 c 0,15,16
 350 485 350 485 307 485 c 0,17,18
 219 485 219 485 181 405 c 0,19,20
 159 361 159 361 159 301 c 2,21,-1
 159 0 l 1,22,-1
 73 0 l 1,23,-1
 73 758 l 1,0,-1
EndSplineSet
EndChar

StartChar: i
Encoding: 105 105 77
Width: 230
GlyphClass: 2
Flags: W
LayerCount: 2
Fore
SplineSet
156 545 m 1,0,-1
 156 0 l 1,1,-1
 70 0 l 1,2,-1
 70 545 l 1,3,-1
 156 545 l 1,0,-1
156 758 m 1,4,-1
 156 649 l 1,5,-1
 69 649 l 1,6,-1
 69 758 l 1,7,-1
 156 758 l 1,4,-1
EndSplineSet
EndChar

StartChar: j
Encoding: 106 106 78
Width: 230
GlyphClass: 2
Flags: W
LayerCount: 2
Fore
SplineSet
73 545 m 1,0,-1
 159 545 l 1,1,-1
 159 -113 l 2,2,3
 159 -220 159 -220 26 -227 c 0,4,5
 19 -227 19 -227 10 -227 c 0,6,7
 -3 -227 -3 -227 -19 -224 c 1,8,-1
 -19 -150 l 1,9,10
 -1 -151 -1 -151 2 -151 c 0,11,12
 56 -151 56 -151 68 -118 c 0,13,14
 73 -103 73 -103 73 -79 c 2,15,-1
 73 545 l 1,0,-1
159 758 m 1,16,-1
 159 649 l 1,17,-1
 73 649 l 1,18,-1
 73 758 l 1,19,-1
 159 758 l 1,16,-1
EndSplineSet
EndChar

StartChar: k
Encoding: 107 107 79
Width: 520
GlyphClass: 2
Flags: W
LayerCount: 2
Fore
SplineSet
147 758 m 1,0,-1
 147 314 l 1,1,-1
 378 545 l 1,2,-1
 489 545 l 1,3,-1
 300 357 l 1,4,-1
 522 0 l 1,5,-1
 415 0 l 1,6,-1
 231 295 l 1,7,-1
 147 212 l 1,8,-1
 147 0 l 1,9,-1
 60 0 l 1,10,-1
 60 758 l 1,11,-1
 147 758 l 1,0,-1
EndSplineSet
EndChar

StartChar: l
Encoding: 108 108 80
Width: 230
GlyphClass: 2
Flags: W
LayerCount: 2
Fore
SplineSet
158 758 m 1,0,-1
 158 0 l 1,1,-1
 71 0 l 1,2,-1
 71 758 l 1,3,-1
 158 758 l 1,0,-1
EndSplineSet
EndChar

StartChar: m
Encoding: 109 109 81
Width: 866
GlyphClass: 2
Flags: W
LayerCount: 2
Fore
SplineSet
73 545 m 1,0,-1
 153 545 l 1,1,-1
 153 468 l 1,2,3
 209 547 209 547 286 558 c 0,4,5
 302 561 302 561 320 561 c 0,6,7
 413 561 413 561 458 493 c 0,8,9
 463 486 463 486 467 477 c 1,10,11
 523 545 523 545 589 556 c 0,12,13
 609 561 609 561 634 561 c 0,14,15
 761 561 761 561 787 459 c 0,16,17
 792 436 792 436 792 409 c 2,18,-1
 792 0 l 1,19,-1
 705 0 l 1,20,-1
 705 375 l 2,21,22
 705 460 705 460 640 479 c 0,23,24
 623 485 623 485 604 485 c 0,25,26
 540 485 540 485 501 426 c 0,27,28
 476 389 476 389 476 342 c 2,29,-1
 476 0 l 1,30,-1
 389 0 l 1,31,-1
 389 375 l 2,32,33
 389 466 389 466 315 482 c 0,34,35
 303 485 303 485 288 485 c 0,36,37
 225 485 225 485 186 428 c 0,38,39
 160 390 160 390 160 342 c 2,40,-1
 160 0 l 1,41,-1
 73 0 l 1,42,-1
 73 545 l 1,0,-1
EndSplineSet
EndChar

StartChar: n
Encoding: 110 110 82
Width: 578
GlyphClass: 2
Flags: W
LayerCount: 2
Fore
SplineSet
73 545 m 1,0,-1
 153 545 l 1,1,-1
 153 453 l 1,2,3
 209 542 209 542 288 556 c 0,4,5
 309 561 309 561 334 561 c 0,6,7
 443 561 443 561 487 488 c 0,8,9
 506 454 506 454 506 412 c 2,10,-1
 506 0 l 1,11,-1
 420 0 l 1,12,-1
 420 378 l 2,13,14
 420 450 420 450 359 475 c 0,15,16
 336 485 336 485 308 485 c 0,17,18
 220 485 220 485 182 405 c 0,19,20
 160 361 160 361 160 301 c 2,21,-1
 160 0 l 1,22,-1
 73 0 l 1,23,-1
 73 545 l 1,0,-1
EndSplineSet
EndChar

StartChar: o
Encoding: 111 111 83
Width: 578
GlyphClass: 2
Flags: W
LayerCount: 2
Fore
SplineSet
283 561 m 0,0,1
 441 561 441 561 500 426 c 0,2,3
 530 359 530 359 530 264 c 0,4,5
 530 90 530 90 424 17 c 0,6,7
 366 -24 366 -24 284 -24 c 0,8,9
 134 -24 134 -24 72 100 c 0,10,11
 37 170 37 170 37 268 c 0,12,13
 37 449 37 449 147 522 c 0,14,15
 204 561 204 561 283 561 c 0,0,1
284 480 m 0,16,17
 187 480 187 480 148 385 c 0,18,19
 128 335 128 335 128 268 c 0,20,21
 128 126 128 126 209 76 c 0,22,23
 241 56 241 56 284 56 c 0,24,25
 378 56 378 56 418 148 c 0,26,27
 440 197 440 197 440 265 c 0,28,29
 440 416 440 416 355 464 c 0,30,31
 323 480 323 480 284 480 c 0,16,17
EndSplineSet
EndChar

StartChar: p
Encoding: 112 112 84
Width: 578
GlyphClass: 2
Flags: W
LayerCount: 2
Fore
SplineSet
56 -227 m 1,0,-1
 56 545 l 1,1,-1
 136 545 l 1,2,-1
 136 463 l 1,3,4
 198 561 198 561 310 561 c 0,5,6
 442 561 442 561 504 445 c 0,7,8
 544 371 544 371 544 263 c 0,9,10
 544 103 544 103 451 25 c 0,11,12
 393 -24 393 -24 311 -24 c 0,13,14
 210 -24 210 -24 144 57 c 1,15,-1
 144 -227 l 1,16,-1
 56 -227 l 1,0,-1
295 479 m 0,17,18
 209 479 209 479 168 392 c 0,19,20
 144 340 144 340 144 268 c 0,21,22
 144 138 144 138 215 84 c 0,23,24
 250 57 250 57 295 57 c 0,25,26
 383 57 383 57 426 141 c 0,27,28
 453 193 453 193 453 265 c 0,29,30
 453 397 453 397 380 452 c 0,31,32
 343 479 343 479 295 479 c 0,17,18
EndSplineSet
EndChar

StartChar: q
Encoding: 113 113 85
Width: 578
GlyphClass: 2
Flags: W
LayerCount: 2
Fore
SplineSet
515 -227 m 1,0,-1
 428 -227 l 1,1,-1
 428 62 l 1,2,3
 369 -24 369 -24 260 -24 c 0,4,5
 127 -24 127 -24 66 88 c 0,6,7
 27 159 27 159 27 262 c 0,8,9
 27 430 27 430 122 510 c 0,10,11
 181 561 181 561 264 561 c 0,12,13
 375 561 375 561 438 472 c 1,14,-1
 438 545 l 1,15,-1
 515 545 l 1,16,-1
 515 -227 l 1,0,-1
277 479 m 0,17,18
 189 479 189 479 146 395 c 0,19,20
 118 342 118 342 118 268 c 0,21,22
 118 141 118 141 190 85 c 0,23,24
 228 57 228 57 277 57 c 0,25,26
 362 57 362 57 404 141 c 0,27,28
 428 193 428 193 428 265 c 0,29,30
 428 401 428 401 355 454 c 0,31,32
 320 479 320 479 277 479 c 0,17,18
EndSplineSet
EndChar

StartChar: r
Encoding: 114 114 86
Width: 346
GlyphClass: 2
Flags: W
LayerCount: 2
Fore
SplineSet
72 545 m 1,0,-1
 152 545 l 1,1,-1
 152 446 l 1,2,3
 212 543 212 543 272 557 c 0,4,5
 286 561 286 561 301 561 c 0,6,7
 312 561 312 561 334 557 c 1,8,-1
 334 469 l 1,9,10
 259 468 259 468 227 446 c 2,11,-1
 220 442 l 1,12,13
 159 397 159 397 159 283 c 2,14,-1
 159 0 l 1,15,-1
 72 0 l 1,16,-1
 72 545 l 1,0,-1
EndSplineSet
EndChar

StartChar: s
Encoding: 115 115 87
Width: 520
GlyphClass: 2
Flags: W
LayerCount: 2
Fore
SplineSet
456 393 m 1,0,-1
 364 393 l 1,1,2
 361 480 361 480 255 480 c 0,3,4
 170 480 170 480 146 430 c 0,5,6
 139 415 139 415 139 398 c 0,7,8
 139 352 139 352 208 329 c 0,9,10
 223 324 223 324 240 320 c 2,11,-1
 323 301 l 2,12,13
 446 271 446 271 470 199 c 0,14,15
 477 177 477 177 477 149 c 0,16,17
 477 50 477 50 386 4 c 0,18,19
 331 -24 331 -24 253 -24 c 0,20,21
 51 -24 51 -24 36 145 c 0,22,23
 35 153 35 153 35 162 c 1,24,-1
 127 162 l 1,25,26
 133 113 133 113 152 93 c 0,27,28
 186 56 186 56 260 56 c 0,29,30
 347 56 347 56 376 105 c 0,31,32
 387 122 387 122 387 141 c 0,33,34
 387 189 387 189 331 209 c 0,35,36
 318 213 318 213 303 217 c 2,37,-1
 222 237 l 2,38,39
 98 267 98 267 66 320 c 0,40,41
 49 349 49 349 49 394 c 0,42,43
 49 491 49 491 136 535 c 0,44,45
 187 561 187 561 258 561 c 0,46,47
 409 561 409 561 445 456 c 0,48,49
 456 427 456 427 456 393 c 1,0,-1
EndSplineSet
EndChar

StartChar: t
Encoding: 116 116 88
Width: 289
GlyphClass: 2
Flags: W
LayerCount: 2
Fore
SplineSet
264 545 m 1,0,-1
 264 474 l 1,1,-1
 175 474 l 1,2,-1
 175 101 l 2,3,4
 175 61 175 61 198 55 c 0,5,6
 207 52 207 52 223 52 c 0,7,8
 249 52 249 52 264 56 c 1,9,-1
 264 -17 l 1,10,11
 224 -24 224 -24 193 -24 c 0,12,13
 101 -24 101 -24 89 46 c 0,14,15
 88 53 88 53 88 62 c 2,16,-1
 88 474 l 1,17,-1
 15 474 l 1,18,-1
 15 545 l 1,19,-1
 88 545 l 1,20,-1
 88 695 l 1,21,-1
 175 695 l 1,22,-1
 175 545 l 1,23,-1
 264 545 l 1,0,-1
EndSplineSet
EndChar

StartChar: u
Encoding: 117 117 89
Width: 578
GlyphClass: 2
Flags: W
LayerCount: 2
Fore
SplineSet
501 0 m 1,0,-1
 423 0 l 1,1,-1
 423 76 l 1,2,3
 365 -6 365 -6 288 -20 c 0,4,5
 267 -24 267 -24 241 -24 c 0,6,7
 130 -24 130 -24 87 49 c 0,8,9
 68 82 68 82 68 125 c 2,10,-1
 68 545 l 1,11,-1
 154 545 l 1,12,-1
 154 159 l 2,13,14
 154 86 154 86 215 61 c 0,15,16
 238 52 238 52 266 52 c 0,17,18
 355 52 355 52 394 133 c 0,19,20
 415 177 415 177 415 236 c 2,21,-1
 415 545 l 1,22,-1
 501 545 l 1,23,-1
 501 0 l 1,0,-1
EndSplineSet
EndChar

StartChar: v
Encoding: 118 118 90
Width: 520
GlyphClass: 2
Flags: W
LayerCount: 2
Fore
SplineSet
296 0 m 1,0,-1
 202 0 l 1,1,-1
 10 545 l 1,2,-1
 108 545 l 1,3,-1
 254 103 l 1,4,-1
 408 545 l 1,5,-1
 505 545 l 1,6,-1
 296 0 l 1,0,-1
EndSplineSet
EndChar

StartChar: w
Encoding: 119 119 91
Width: 750
GlyphClass: 2
Flags: W
LayerCount: 2
Fore
SplineSet
93 0 m 1,0,-1
 93 758 l 1,1,-1
 385 758 l 2,2,3
 554 758 554 758 636 621 c 0,4,5
 694 525 694 525 694 380 c 0,6,7
 694 162 694 162 573 63 c 0,8,9
 497 0 497 0 385 0 c 2,10,-1
 93 0 l 1,0,-1
189 85 m 1,11,-1
 368 85 l 2,12,13
 549 85 549 85 588 274 c 0,14,15
 597 320 597 320 597 379 c 0,16,17
 597 634 597 634 422 668 c 0,18,19
 396 673 396 673 368 673 c 2,20,-1
 189 673 l 1,21,-1
 189 85 l 1,11,-1
EndSplineSet
EndChar

StartChar: x
Encoding: 120 120 92
Width: 635
GlyphClass: 2
Flags: W
LayerCount: 2
Fore
SplineSet
368 673 m 1,0,-1
 368 0 l 1,1,-1
 271 0 l 1,2,-1
 271 673 l 1,3,-1
 22 673 l 1,4,-1
 22 758 l 1,5,-1
 617 758 l 1,6,-1
 617 673 l 1,7,-1
 368 673 l 1,0,-1
EndSplineSet
EndChar

StartChar: y
Encoding: 121 121 93
Width: 520
GlyphClass: 2
Flags: W
LayerCount: 2
Fore
SplineSet
404 545 m 1,0,-1
 497 545 l 1,1,-1
 255 -114 l 2,2,3
 232 -174 232 -174 196 -201 c 0,4,5
 160 -227 160 -227 114 -227 c 0,6,7
 82 -227 82 -227 56 -213 c 1,8,-1
 56 -135 l 1,9,10
 84 -141 84 -141 102 -141 c 0,11,12
 149 -141 149 -141 167 -100 c 0,13,14
 170 -95 170 -95 172 -88 c 2,15,-1
 205 -2 l 1,16,-1
 21 545 l 1,17,-1
 113 545 l 1,18,-1
 253 121 l 1,19,-1
 404 545 l 1,0,-1
EndSplineSet
EndChar

StartChar: z
Encoding: 122 122 94
Width: 520
GlyphClass: 2
Flags: W
LayerCount: 2
Fore
SplineSet
461 545 m 1,0,-1
 461 468 l 1,1,-1
 137 76 l 1,2,-1
 475 76 l 1,3,-1
 475 0 l 1,4,-1
 32 0 l 1,5,-1
 32 78 l 1,6,-1
 358 469 l 1,7,-1
 54 469 l 1,8,-1
 54 545 l 1,9,-1
 461 545 l 1,0,-1
EndSplineSet
EndChar

StartChar: braceleft
Encoding: 123 123 95
Width: 347
GlyphClass: 2
Flags: W
LayerCount: 2
Fore
SplineSet
287 758 m 1,0,-1
 287 691 l 1,1,-1
 271 691 l 2,2,3
 223 691 223 691 211 662 c 0,4,5
 206 648 206 648 206 621 c 2,6,-1
 206 433 l 2,7,8
 206 331 206 331 163 294 c 0,9,10
 147 280 147 280 121 269 c 1,11,12
 206 230 206 230 206 105 c 2,13,-1
 206 -83 l 2,14,15
 206 -135 206 -135 232 -147 c 0,16,17
 245 -153 245 -153 271 -153 c 2,18,-1
 287 -153 l 1,19,-1
 287 -220 l 1,20,-1
 239 -220 l 2,21,22
 154 -220 154 -220 132 -137 c 0,23,24
 126 -113 126 -113 126 -84 c 2,25,-1
 126 89 l 2,26,27
 126 186 126 186 89 214 c 0,28,29
 73 227 73 227 45 233 c 1,30,-1
 45 305 l 1,31,32
 101 316 101 316 115 362 c 0,33,34
 126 392 126 392 126 448 c 2,35,-1
 126 622 l 2,36,37
 126 728 126 728 200 752 c 0,38,39
 218 758 218 758 239 758 c 2,40,-1
 287 758 l 1,0,-1
EndSplineSet
EndChar

StartChar: bar
Encoding: 124 124 96
Width: 270
GlyphClass: 2
Flags: W
LayerCount: 2
Fore
SplineSet
104 758 m 1,0,-1
 166 758 l 1,1,-1
 166 -220 l 1,2,-1
 104 -220 l 1,3,-1
 104 758 l 1,0,-1
EndSplineSet
EndChar

StartChar: braceright
Encoding: 125 125 97
Width: 347
GlyphClass: 2
Flags: W
LayerCount: 2
Fore
SplineSet
30 -220 m 1,0,-1
 30 -153 l 1,1,-1
 47 -153 l 2,2,3
 97 -153 97 -153 108 -125 c 0,4,5
 113 -110 113 -110 113 -83 c 2,6,-1
 113 105 l 2,7,8
 113 230 113 230 199 268 c 1,9,10
 113 308 113 308 113 433 c 2,11,-1
 113 621 l 2,12,13
 113 673 113 673 86 684 c 0,14,15
 73 691 73 691 47 691 c 2,16,-1
 30 691 l 1,17,-1
 30 758 l 1,18,-1
 79 758 l 2,19,20
 165 758 165 758 187 674 c 0,21,22
 193 650 193 650 193 622 c 2,23,-1
 193 448 l 2,24,25
 193 350 193 350 231 322 c 0,26,27
 246 310 246 310 272 305 c 1,28,-1
 272 233 l 1,29,30
 218 222 218 222 203 174 c 0,31,32
 193 145 193 145 193 89 c 2,33,-1
 193 -84 l 2,34,35
 193 -191 193 -191 118 -215 c 0,36,37
 100 -220 100 -220 79 -220 c 2,38,-1
 30 -220 l 1,0,-1
EndSplineSet
EndChar

StartChar: asciitilde
Encoding: 126 126 98
Width: 607
GlyphClass: 2
Flags: W
LayerCount: 2
Fore
SplineSet
473 427 m 1,0,-1
 528 427 l 1,1,-1
 528 411 l 2,2,3
 528 322 528 322 469 291 c 0,4,5
 447 279 447 279 419 279 c 0,6,7
 379 279 379 279 335 306 c 2,8,-1
 233 371 l 2,9,10
 209 386 209 386 188 386 c 0,11,12
 158 386 158 386 141 349 c 0,13,14
 136 335 136 335 133 305 c 1,15,-1
 78 305 l 1,16,17
 85 441 85 441 173 454 c 0,18,19
 181 456 181 456 190 456 c 0,20,21
 218 456 218 456 246 439 c 2,22,-1
 368 367 l 2,23,24
 397 349 397 349 420 349 c 0,25,26
 466 349 466 349 472 400 c 1,27,-1
 473 427 l 1,0,-1
EndSplineSet
EndChar

StartChar: uni0901
Encoding: 2305 2305 100
Width: 7
GlyphClass: 2
Flags: W
AnchorPoint: "Anchor-0" -110 634 mark 0
LayerCount: 2
Fore
SplineSet
-39 853 m 1,0,-1
 -114 778 l 1,1,-1
 -183 847 l 1,2,-1
 -109 922 l 1,3,-1
 -39 853 l 1,0,-1
76 847 m 1,4,5
 76 769 76 769 19 721 c 0,6,7
 -37 673 -37 673 -116 672 c 0,8,9
 -193 671 -193 671 -250 721 c 0,10,11
 -305 772 -305 772 -307 847 c 1,12,-1
 -234 847 l 1,13,14
 -234 803 -234 803 -198 774 c 128,-1,15
 -162 745 -162 745 -116 745 c 0,16,17
 -65 745 -65 745 -32 772 c 0,18,19
 0 798 0 798 1 847 c 1,20,-1
 76 847 l 1,4,5
EndSplineSet
EndChar

StartChar: uni0902
Encoding: 2306 2306 101
Width: 0
GlyphClass: 4
Flags: W
AnchorPoint: "Anchor-0" -114 612 mark 0
LayerCount: 2
Fore
SplineSet
-19 779 m 1,0,-1
 -113 685 l 1,1,-1
 -199 771 l 1,2,-1
 -106 865 l 1,3,-1
 -19 779 l 1,0,-1
EndSplineSet
EndChar

StartChar: uni0903
Encoding: 2307 2307 102
Width: 313
GlyphClass: 2
Flags: W
LayerCount: 2
Fore
SplineSet
243 423 m 1,0,-1
 150 329 l 1,1,-1
 63 416 l 1,2,-1
 156 510 l 1,3,-1
 243 423 l 1,0,-1
246 139 m 1,4,-1
 153 45 l 1,5,-1
 67 131 l 1,6,-1
 160 225 l 1,7,-1
 246 139 l 1,4,-1
EndSplineSet
EndChar

StartChar: uni0904
Encoding: 2308 2308 103
Width: 735
GlyphClass: 4
Flags: W
LayerCount: 2
Fore
SplineSet
641 626 m 1,0,-1
 576 628 l 1,1,-1
 576 678 l 2,2,3
 576 733 576 733 526 740 c 0,4,5
 509 743 509 743 492 738 c 0,6,7
 397 713 397 713 379 710 c 0,8,9
 334 706 334 706 302 726 c 0,10,11
 262 752 262 752 262 798 c 2,12,-1
 262 877 l 1,13,-1
 329 877 l 1,14,-1
 329 822 l 2,15,16
 329 776 329 776 370 775 c 0,17,18
 386 774 386 774 454 794 c 0,19,20
 515 812 515 812 553 800 c 0,21,22
 614 781 614 781 634 739 c 0,23,24
 640 727 640 727 640 714 c 2,25,-1
 641 626 l 1,0,-1
719 553 m 1,26,-1
 646 553 l 1,27,-1
 646 -1 l 1,28,-1
 570 -1 l 1,29,-1
 570 268 l 1,30,31
 565 268 565 268 536 260 c 0,32,33
 522 257 522 257 503 257 c 0,34,35
 473 257 473 257 454 269 c 1,36,37
 461 247 461 247 461 216 c 0,38,39
 461 60 461 60 301 59 c 0,40,41
 208 58 208 58 110 169 c 0,42,43
 34 259 34 259 31 299 c 1,44,-1
 91 335 l 1,45,46
 132 264 132 264 155 235 c 0,47,48
 233 137 233 137 301 134 c 0,49,50
 386 132 386 132 386 216 c 0,51,52
 386 269 386 269 354 299 c 0,53,54
 322 328 322 328 274 328 c 0,55,56
 229 328 229 328 211 318 c 1,57,-1
 186 380 l 1,58,59
 202 380 202 380 210 379 c 0,60,61
 264 379 264 379 298 406 c 128,-1,62
 332 433 332 433 334 482 c 0,63,64
 334 552 334 552 260 553 c 0,65,66
 203 553 203 553 161 511 c 0,67,68
 145 496 145 496 133 478 c 1,69,-1
 73 523 l 1,70,71
 73 538 73 538 127 577 c 0,72,73
 194 628 194 628 263 628 c 0,74,75
 322 630 322 630 366 586 c 0,76,77
 408 544 408 544 408 481 c 0,78,79
 408 415 408 415 349 372 c 1,80,81
 370 368 370 368 385 359 c 2,82,-1
 402 352 l 1,83,-1
 442 335 l 2,84,85
 458 328 458 328 491 328 c 0,86,87
 504 328 504 328 544 338 c 0,88,89
 550 338 550 338 570 346 c 1,90,-1
 570 553 l 1,91,-1
 464 553 l 1,92,-1
 464 628 l 1,93,-1
 719 628 l 1,94,-1
 719 553 l 1,26,-1
EndSplineSet
EndChar

StartChar: uni0905
Encoding: 2309 2309 104
Width: 735
GlyphClass: 2
Flags: W
LayerCount: 2
Fore
SplineSet
734 553 m 1,0,-1
 646 553 l 1,1,-1
 646 -1 l 1,2,-1
 570 -1 l 1,3,-1
 570 268 l 1,4,5
 565 266 565 266 536 260 c 0,6,7
 522 257 522 257 503 257 c 0,8,9
 473 257 473 257 454 269 c 1,10,11
 461 247 461 247 461 216 c 0,12,13
 461 60 461 60 301 59 c 0,14,15
 206 58 206 58 110 169 c 0,16,17
 34 257 34 257 31 299 c 1,18,-1
 91 335 l 1,19,20
 132 264 132 264 155 235 c 0,21,22
 234 136 234 136 301 134 c 0,23,24
 386 132 386 132 386 216 c 0,25,26
 386 269 386 269 354 299 c 0,27,28
 322 328 322 328 274 328 c 0,29,30
 229 328 229 328 211 318 c 1,31,-1
 186 380 l 1,32,33
 202 380 202 380 210 379 c 0,34,35
 264 379 264 379 298 406 c 0,36,37
 333 434 333 434 334 482 c 0,38,39
 335 553 335 553 260 553 c 0,40,41
 206 553 206 553 161 511 c 0,42,43
 145 496 145 496 133 478 c 1,44,-1
 73 523 l 1,45,46
 73 536 73 536 127 577 c 0,47,48
 193 627 193 627 263 628 c 0,49,50
 323 629 323 629 366 586 c 0,51,52
 408 544 408 544 408 481 c 0,53,54
 408 415 408 415 349 372 c 1,55,56
 357 370 357 370 385 359 c 2,57,-1
 402 352 l 1,58,-1
 442 335 l 2,59,60
 458 328 458 328 491 328 c 0,61,62
 498 328 498 328 544 338 c 0,63,64
 557 341 557 341 570 346 c 1,65,-1
 570 553 l 1,66,-1
 464 553 l 1,67,-1
 464 628 l 1,68,-1
 734 628 l 1,69,-1
 734 553 l 1,0,-1
EndSplineSet
EndChar

StartChar: uni0906
Encoding: 2310 2310 105
Width: 849
GlyphClass: 2
Flags: W
LayerCount: 2
Fore
SplineSet
848 552 m 1,0,-1
 769 552 l 1,1,-1
 769 1 l 1,2,-1
 696 1 l 1,3,-1
 696 552 l 1,4,-1
 617 552 l 1,5,-1
 617 625 l 1,6,-1
 848 625 l 1,7,-1
 848 552 l 1,0,-1
691 553 m 1,8,-1
 618 553 l 1,9,-1
 618 -1 l 1,10,-1
 542 -1 l 1,11,-1
 542 268 l 1,12,13
 538 268 538 268 509 260 c 0,14,15
 494 257 494 257 475 257 c 0,16,17
 445 257 445 257 426 269 c 1,18,19
 433 247 433 247 433 216 c 0,20,21
 433 60 433 60 274 59 c 0,22,23
 180 58 180 58 83 169 c 0,24,25
 6 259 6 259 4 299 c 1,26,-1
 64 335 l 1,27,28
 104 264 104 264 127 235 c 0,29,30
 205 137 205 137 274 134 c 0,31,32
 359 132 359 132 359 216 c 0,33,34
 359 269 359 269 326 299 c 0,35,36
 294 328 294 328 246 328 c 0,37,38
 202 328 202 328 184 318 c 1,39,-1
 158 380 l 1,40,41
 174 380 174 380 182 379 c 0,42,43
 236 379 236 379 270 406 c 0,44,45
 305 433 305 433 306 482 c 0,46,47
 306 552 306 552 233 553 c 0,48,49
 175 553 175 553 133 511 c 0,50,51
 118 496 118 496 106 478 c 1,52,-1
 46 523 l 1,53,54
 46 538 46 538 100 577 c 0,55,56
 167 628 167 628 235 628 c 0,57,58
 294 630 294 630 338 586 c 0,59,60
 380 544 380 544 380 481 c 0,61,62
 380 415 380 415 322 372 c 1,63,64
 342 368 342 368 358 359 c 2,65,-1
 374 352 l 1,66,-1
 414 335 l 2,67,68
 431 328 431 328 463 328 c 0,69,70
 476 328 476 328 516 338 c 0,71,72
 522 338 522 338 542 346 c 1,73,-1
 542 553 l 1,74,-1
 437 553 l 1,75,-1
 437 625 l 1,76,-1
 691 625 l 1,77,-1
 691 553 l 1,8,-1
EndSplineSet
EndChar

StartChar: uni0907
Encoding: 2311 2311 106
Width: 475
GlyphClass: 2
Flags: W
AnchorPoint: "Anchor-0" 386 624 basechar 0
LayerCount: 2
Fore
SplineSet
475 553 m 1,0,-1
 383 553 l 1,1,-1
 383 379 l 1,2,-1
 143 379 l 2,3,4
 136 379 136 379 136 373 c 0,5,6
 136 356 136 356 174 316 c 0,7,8
 212 275 212 275 232 277 c 0,9,10
 258 283 258 283 293 293 c 0,11,12
 332 304 332 304 355 304 c 0,13,14
 389 304 389 304 414 274 c 0,15,16
 439 245 439 245 439 211 c 0,17,18
 439 65 439 65 296 19 c 1,19,20
 313 -6 313 -6 361 -44 c 2,21,-1
 365 -47 l 2,22,23
 415 -89 415 -89 438 -90 c 1,24,-1
 392 -155 l 1,25,26
 359 -134 359 -134 344 -122 c 0,27,28
 324 -109 324 -109 286 -74 c 0,29,30
 271 -64 271 -64 238 -28 c 2,31,-1
 203 8 l 1,32,33
 46 8 46 8 43 101 c 0,34,35
 43 127 43 127 62 145 c 0,36,37
 82 164 82 164 107 164 c 0,38,39
 143 166 143 166 188 126 c 1,40,-1
 241 72 l 1,41,42
 275 72 275 72 311 94 c 0,43,44
 361 121 361 121 364 173 c 0,45,46
 364 196 364 196 359 211 c 0,47,48
 353 227 353 227 331 227 c 0,49,50
 318 228 318 228 274 217 c 0,51,52
 234 205 234 205 214 205 c 0,53,54
 167 205 167 205 109 278 c 0,55,56
 53 352 53 352 50 398 c 0,57,58
 48 422 48 422 67 439 c 0,59,60
 86 455 86 455 110 455 c 2,61,-1
 308 455 l 1,62,-1
 308 553 l 1,63,-1
 0 553 l 1,64,-1
 0 628 l 1,65,-1
 475 628 l 1,66,-1
 475 553 l 1,0,-1
EndSplineSet
EndChar

StartChar: uni0908
Encoding: 2312 2312 107
Width: 475
GlyphClass: 2
Flags: W
AnchorPoint: "Anchor-0" 366 633 basechar 0
LayerCount: 2
Fore
SplineSet
430 854 m 1,0,1
 407 859 407 859 360 868 c 1,2,3
 292 868 292 868 290 792 c 0,4,5
 289 748 289 748 332 684 c 0,6,7
 348 660 348 660 374 631 c 1,8,-1
 316 631 l 1,9,10
 284 671 284 671 271 691 c 0,11,12
 228 761 228 761 227 816 c 0,13,14
 226 870 226 870 266 900 c 0,15,16
 301 925 301 925 358 926 c 0,17,18
 397 928 397 928 430 914 c 1,19,-1
 430 854 l 1,0,1
475 553 m 1,20,-1
 383 553 l 1,21,-1
 383 379 l 1,22,-1
 143 379 l 2,23,24
 136 379 136 379 136 373 c 0,25,26
 136 356 136 356 174 316 c 0,27,28
 212 275 212 275 232 277 c 0,29,30
 258 283 258 283 293 293 c 0,31,32
 332 304 332 304 355 304 c 0,33,34
 389 304 389 304 414 274 c 0,35,36
 439 245 439 245 439 211 c 0,37,38
 439 65 439 65 296 19 c 1,39,40
 313 -6 313 -6 361 -44 c 2,41,-1
 365 -47 l 2,42,43
 415 -89 415 -89 438 -90 c 1,44,-1
 392 -155 l 1,45,46
 359 -134 359 -134 344 -122 c 0,47,48
 324 -109 324 -109 286 -74 c 0,49,50
 271 -64 271 -64 238 -28 c 2,51,-1
 203 8 l 1,52,53
 46 8 46 8 43 101 c 0,54,55
 43 127 43 127 62 145 c 0,56,57
 82 164 82 164 107 164 c 0,58,59
 143 166 143 166 188 126 c 1,60,-1
 241 72 l 1,61,62
 275 72 275 72 311 94 c 0,63,64
 361 121 361 121 364 173 c 0,65,66
 364 196 364 196 359 211 c 0,67,68
 353 227 353 227 331 227 c 0,69,70
 318 228 318 228 274 217 c 0,71,72
 234 205 234 205 214 205 c 0,73,74
 167 205 167 205 109 278 c 0,75,76
 53 352 53 352 50 398 c 0,77,78
 48 422 48 422 67 439 c 0,79,80
 86 455 86 455 110 455 c 2,81,-1
 308 455 l 1,82,-1
 308 553 l 1,83,-1
 0 553 l 1,84,-1
 0 628 l 1,85,-1
 475 628 l 1,86,-1
 475 553 l 1,20,-1
EndSplineSet
EndChar

StartChar: uni0909
Encoding: 2313 2313 108
Width: 595
GlyphClass: 2
Flags: W
LayerCount: 2
Fore
SplineSet
596 553 m 1,0,-1
 479 553 l 1,1,2
 523 484 523 484 523 433 c 0,3,4
 523 368 523 368 467 326 c 1,5,6
 557 282 557 282 559 158 c 0,7,8
 560 85 560 85 505 38 c 0,9,10
 456 -4 456 -4 379 -6 c 0,11,12
 216 -8 216 -8 83 283 c 0,13,14
 37 377 37 377 44 388 c 1,15,-1
 108 426 l 1,16,17
 108 413 108 413 145 328 c 0,18,19
 182 241 182 241 236 168 c 0,20,21
 311 70 311 70 377 68 c 0,22,23
 482 68 482 68 484 164 c 0,24,25
 486 212 486 212 450 251 c 128,-1,26
 414 290 414 290 366 290 c 2,27,-1
 266 290 l 1,28,-1
 234 365 l 1,29,-1
 308 365 l 2,30,31
 358 365 358 365 378 370 c 0,32,33
 449 384 449 384 449 439 c 0,34,35
 449 467 449 467 421 515 c 0,36,37
 409 538 409 538 395 553 c 1,38,-1
 0 553 l 1,39,-1
 0 628 l 1,40,-1
 596 628 l 1,41,-1
 596 553 l 1,0,-1
EndSplineSet
EndChar

StartChar: uni090A
Encoding: 2314 2314 109
Width: 823
GlyphClass: 2
Flags: W
AnchorPoint: "Anchor-0" 398 630 basechar 0
LayerCount: 2
Fore
SplineSet
551 221 m 1,0,1
 559 196 559 196 559 158 c 0,2,3
 560 85 560 85 505 38 c 0,4,5
 456 -4 456 -4 379 -6 c 0,6,7
 216 -8 216 -8 83 283 c 0,8,9
 37 377 37 377 44 388 c 1,10,-1
 108 426 l 1,11,12
 108 413 108 413 145 328 c 0,13,14
 182 241 182 241 236 168 c 0,15,16
 311 70 311 70 377 68 c 0,17,18
 482 68 482 68 484 164 c 0,19,20
 486 212 486 212 450 251 c 128,-1,21
 414 290 414 290 366 290 c 2,22,-1
 266 290 l 1,23,-1
 234 365 l 1,24,-1
 308 365 l 2,25,26
 358 365 358 365 378 370 c 0,27,28
 449 384 449 384 449 439 c 0,29,30
 449 467 449 467 421 515 c 0,31,32
 409 538 409 538 395 553 c 1,33,-1
 0 553 l 1,34,-1
 0 628 l 1,35,-1
 823 628 l 1,36,-1
 823 553 l 1,37,-1
 479 553 l 1,38,39
 523 484 523 484 523 433 c 0,40,41
 523 368 523 368 467 326 c 1,42,43
 487 317 487 317 514 290 c 1,44,45
 582 368 582 368 650 368 c 0,46,47
 706 370 706 370 748 328 c 0,48,49
 787 284 787 284 787 228 c 0,50,51
 787 163 787 163 731 79 c 0,52,53
 713 50 713 50 674 5 c 1,54,-1
 614 41 l 1,55,56
 712 173 712 173 713 223 c 0,57,58
 714 252 714 252 696 272 c 0,59,60
 676 293 676 293 648 294 c 0,61,62
 612 294 612 294 551 221 c 1,0,1
EndSplineSet
EndChar

StartChar: uni090B
Encoding: 2315 2315 110
Width: 943
GlyphClass: 2
Flags: W
AnchorPoint: "Anchor-0" 543 627 basechar 0
LayerCount: 2
Fore
SplineSet
943 553 m 1,0,-1
 546 553 l 1,1,-1
 546 317 l 1,2,3
 553 320 553 320 676 372 c 1,4,5
 676 388 676 388 673 400 c 0,6,7
 673 476 673 476 744 476 c 0,8,9
 770 476 770 476 786 451 c 0,10,11
 799 428 799 428 799 400 c 0,12,13
 799 354 799 354 768 323 c 1,14,-1
 824 220 l 1,15,16
 781 220 781 220 742 198 c 0,17,18
 697 173 697 173 697 133 c 0,19,20
 697 98 697 98 718 83 c 0,21,22
 738 66 738 66 773 65 c 0,23,24
 811 65 811 65 823 71 c 0,25,26
 844 82 844 82 848 112 c 1,27,-1
 907 48 l 1,28,29
 848 -11 848 -11 766 -11 c 0,30,31
 700 -11 700 -11 661 28 c 0,32,33
 623 67 623 67 622 133 c 0,34,35
 620 175 620 175 648 212 c 0,36,37
 678 248 678 248 719 257 c 1,38,-1
 696 300 l 1,39,-1
 546 236 l 1,40,-1
 546 -8 l 1,41,-1
 470 -8 l 1,42,-1
 470 209 l 1,43,-1
 187 46 l 1,44,-1
 142 106 l 1,45,-1
 410 262 l 1,46,47
 310 376 310 376 276 379 c 0,48,49
 248 379 248 379 166 340 c 1,50,-1
 89 299 l 1,51,-1
 43 356 l 1,52,53
 48 368 48 368 155 412 c 0,54,55
 262 454 262 454 284 455 c 0,56,57
 318 456 318 456 401 378 c 0,58,59
 422 358 422 358 470 308 c 1,60,-1
 470 553 l 1,61,-1
 0 553 l 1,62,-1
 0 628 l 1,63,-1
 943 628 l 1,64,-1
 943 553 l 1,0,-1
EndSplineSet
EndChar

StartChar: uni090C
Encoding: 2316 2316 111
Width: 655
GlyphClass: 2
Flags: W
AnchorPoint: "Anchor-0" 502 632 basechar 0
LayerCount: 2
Fore
SplineSet
660 -80 m 1,0,1
 618 -122 618 -122 536 -122 c 0,2,3
 467 -125 467 -125 414 -89 c 0,4,5
 352 -48 352 -48 352 17 c 0,6,7
 352 76 352 76 389 114 c 1,8,-1
 419 134 l 1,9,-1
 419 134 l 1,10,-1
 478 90 l 1,11,-1
 478 90 l 1,12,13
 434 90 434 90 427 44 c 1,14,-1
 426 20 l 2,15,16
 426 -12 426 -12 461 -32 c 0,17,18
 492 -48 492 -48 526 -48 c 0,19,20
 563 -48 563 -48 588 -36 c 2,21,-1
 619 -17 l 1,22,-1
 660 -80 l 1,0,1
656 553 m 1,23,-1
 503 553 l 1,24,-1
 503 449 l 1,25,26
 617 422 617 422 619 295 c 0,27,28
 620 232 620 232 563 162 c 0,29,30
 522 115 522 115 478 90 c 1,31,-1
 419 134 l 1,32,33
 463 158 463 158 503 209 c 0,34,35
 544 260 544 260 545 304 c 0,36,37
 545 374 545 374 440 377 c 0,38,39
 412 379 412 379 385 354 c 0,40,41
 358 330 358 330 358 296 c 2,42,-1
 358 224 l 1,43,-1
 283 224 l 1,44,-1
 283 311 l 2,45,46
 283 340 283 340 259 358 c 0,47,48
 234 377 234 377 208 377 c 0,49,50
 166 378 166 378 142 349 c 0,51,52
 118 319 118 319 118 276 c 0,53,54
 118 197 118 197 191 122 c 0,55,56
 241 71 241 71 275 59 c 1,57,-1
 229 -6 l 1,58,59
 168 19 168 19 100 116 c 0,60,61
 46 196 46 196 43 283 c 0,62,63
 41 352 41 352 88 401 c 0,64,65
 133 452 133 452 199 452 c 0,66,67
 281 452 281 452 326 395 c 1,68,69
 350 446 350 446 427 452 c 1,70,-1
 427 553 l 1,71,-1
 0 553 l 1,72,-1
 0 628 l 1,73,-1
 656 628 l 1,74,-1
 656 553 l 1,23,-1
EndSplineSet
EndChar

StartChar: uni090D
Encoding: 2317 2317 112
Width: 441
GlyphClass: 2
Flags: W
AnchorPoint: "Anchor-0" 321 633 basechar 0
LayerCount: 2
Fore
SplineSet
404 851 m 1,0,1
 404 773 404 773 348 725 c 128,-1,2
 292 677 292 677 212 676 c 0,3,4
 136 674 136 674 79 725 c 0,5,6
 24 775 24 775 22 851 c 1,7,-1
 95 851 l 1,8,9
 95 806 95 806 131 778 c 0,10,11
 167 749 167 749 212 749 c 0,12,13
 264 749 264 749 296 775 c 0,14,15
 329 802 329 802 330 851 c 1,16,-1
 404 851 l 1,0,1
443 553 m 1,17,-1
 406 553 l 1,18,-1
 406 338 l 2,19,20
 406 266 406 266 318 236 c 1,21,-1
 257 288 l 1,22,23
 283 292 283 292 306 311 c 0,24,25
 328 328 328 328 330 353 c 2,26,-1
 330 553 l 1,27,-1
 118 553 l 1,28,-1
 118 269 l 1,29,-1
 388 26 l 1,30,31
 403 5 403 5 407 -5 c 0,32,33
 418 -30 418 -30 418 -48 c 0,34,35
 418 -98 418 -98 370 -121 c 0,36,37
 361 -126 361 -126 322 -136 c 1,38,-1
 265 -74 l 2,39,40
 269 -79 269 -79 278 -79 c 0,41,42
 294 -79 294 -79 314 -67 c 0,43,44
 334 -54 334 -54 335 -40 c 0,45,46
 335 -34 335 -34 323 -18 c 2,47,-1
 43 235 l 1,48,-1
 43 553 l 1,49,-1
 0 553 l 1,50,-1
 0 628 l 1,51,-1
 443 628 l 1,52,-1
 443 553 l 1,17,-1
EndSplineSet
EndChar

StartChar: uni090E
Encoding: 2318 2318 113
Width: 441
GlyphClass: 2
Flags: W
AnchorPoint: "Anchor-0" 417 633 basechar 0
LayerCount: 2
Fore
SplineSet
403 626 m 1,0,-1
 338 628 l 1,1,-1
 338 678 l 2,2,3
 338 733 338 733 288 740 c 0,4,5
 271 743 271 743 254 738 c 0,6,7
 160 713 160 713 142 710 c 0,8,9
 96 706 96 706 65 726 c 0,10,11
 23 752 23 752 24 798 c 2,12,-1
 25 880 l 1,13,-1
 91 877 l 1,14,-1
 91 822 l 2,15,16
 91 776 91 776 132 775 c 0,17,18
 149 774 149 774 216 794 c 0,19,20
 277 812 277 812 316 800 c 0,21,22
 377 781 377 781 396 739 c 0,23,24
 402 727 402 727 402 714 c 2,25,-1
 403 626 l 1,0,-1
443 553 m 1,26,-1
 406 553 l 1,27,-1
 406 338 l 2,28,29
 406 266 406 266 318 236 c 1,30,-1
 257 288 l 1,31,32
 283 292 283 292 306 311 c 0,33,34
 328 328 328 328 330 353 c 2,35,-1
 330 553 l 1,36,-1
 118 553 l 1,37,-1
 118 269 l 1,38,-1
 388 26 l 1,39,40
 403 5 403 5 407 -5 c 0,41,42
 418 -30 418 -30 418 -48 c 0,43,44
 418 -98 418 -98 370 -121 c 0,45,46
 361 -126 361 -126 322 -136 c 1,47,-1
 265 -74 l 2,48,49
 269 -79 269 -79 278 -79 c 0,50,51
 294 -79 294 -79 314 -67 c 0,52,53
 334 -54 334 -54 335 -40 c 0,54,55
 335 -34 335 -34 323 -18 c 2,56,-1
 43 235 l 1,57,-1
 43 553 l 1,58,-1
 0 553 l 1,59,-1
 0 628 l 1,60,-1
 443 628 l 1,61,-1
 443 553 l 1,26,-1
EndSplineSet
EndChar

StartChar: uni090F
Encoding: 2319 2319 114
Width: 441
GlyphClass: 2
Flags: W
AnchorPoint: "Anchor-0" 400 628 basechar 0
LayerCount: 2
Fore
SplineSet
443 553 m 1,0,-1
 406 553 l 1,1,-1
 406 338 l 2,2,3
 406 266 406 266 318 236 c 1,4,-1
 257 288 l 1,5,6
 283 292 283 292 306 311 c 0,7,8
 328 328 328 328 330 353 c 2,9,-1
 330 553 l 1,10,-1
 118 553 l 1,11,-1
 118 269 l 1,12,-1
 388 26 l 1,13,14
 403 5 403 5 407 -5 c 0,15,16
 418 -30 418 -30 418 -48 c 0,17,18
 418 -98 418 -98 370 -121 c 0,19,20
 361 -126 361 -126 322 -136 c 1,21,-1
 265 -74 l 2,22,23
 269 -79 269 -79 278 -79 c 0,24,25
 294 -79 294 -79 314 -67 c 0,26,27
 334 -54 334 -54 335 -40 c 0,28,29
 335 -34 335 -34 323 -18 c 2,30,-1
 43 235 l 1,31,-1
 43 553 l 1,32,-1
 0 553 l 1,33,-1
 0 628 l 1,34,-1
 443 628 l 1,35,-1
 443 553 l 1,0,-1
EndSplineSet
EndChar

StartChar: uni0910
Encoding: 2320 2320 115
Width: 441
GlyphClass: 2
Flags: W
AnchorPoint: "Anchor-0" 420 627 basechar 0
LayerCount: 2
Fore
SplineSet
408 629 m 1,0,-1
 331 629 l 1,1,-1
 89 872 l 1,2,-1
 151 932 l 1,3,-1
 408 629 l 1,0,-1
443 553 m 1,4,-1
 406 553 l 1,5,-1
 406 338 l 2,6,7
 406 266 406 266 318 236 c 1,8,-1
 257 288 l 1,9,10
 283 292 283 292 306 311 c 0,11,12
 328 328 328 328 330 353 c 2,13,-1
 330 553 l 1,14,-1
 118 553 l 1,15,-1
 118 269 l 1,16,-1
 388 26 l 1,17,18
 403 5 403 5 407 -5 c 0,19,20
 418 -30 418 -30 418 -48 c 0,21,22
 418 -98 418 -98 370 -121 c 0,23,24
 361 -126 361 -126 322 -136 c 1,25,-1
 265 -74 l 2,26,27
 269 -79 269 -79 278 -79 c 0,28,29
 294 -79 294 -79 314 -67 c 0,30,31
 334 -54 334 -54 335 -40 c 0,32,33
 335 -34 335 -34 323 -18 c 2,34,-1
 43 235 l 1,35,-1
 43 553 l 1,36,-1
 0 553 l 1,37,-1
 0 628 l 1,38,-1
 443 628 l 1,39,-1
 443 553 l 1,4,-1
EndSplineSet
EndChar

StartChar: uni0911
Encoding: 2321 2321 116
Width: 877
GlyphClass: 2
Flags: W
LayerCount: 2
Fore
SplineSet
857 840 m 1,0,1
 857 762 857 762 800 714 c 0,2,3
 744 666 744 666 665 665 c 0,4,5
 588 664 588 664 533 714 c 0,6,7
 476 764 476 764 474 840 c 1,8,-1
 547 840 l 1,9,10
 547 796 547 796 583 767 c 128,-1,11
 619 738 619 738 665 738 c 0,12,13
 716 738 716 738 749 764 c 0,14,15
 781 791 781 791 782 840 c 1,16,-1
 857 840 l 1,0,1
876 552 m 1,17,-1
 797 552 l 1,18,-1
 797 1 l 1,19,-1
 724 1 l 1,20,-1
 724 552 l 1,21,-1
 644 552 l 1,22,-1
 644 625 l 1,23,-1
 876 625 l 1,24,-1
 876 552 l 1,17,-1
719 553 m 1,25,-1
 646 553 l 1,26,-1
 646 -1 l 1,27,-1
 570 -1 l 1,28,-1
 570 268 l 1,29,30
 565 268 565 268 536 260 c 0,31,32
 522 257 522 257 503 257 c 0,33,34
 473 257 473 257 454 269 c 1,35,36
 461 247 461 247 461 216 c 0,37,38
 461 60 461 60 301 59 c 0,39,40
 208 58 208 58 110 169 c 0,41,42
 34 259 34 259 31 299 c 1,43,-1
 91 335 l 1,44,45
 132 264 132 264 155 235 c 0,46,47
 233 137 233 137 301 134 c 0,48,49
 386 132 386 132 386 216 c 0,50,51
 386 269 386 269 354 299 c 0,52,53
 322 328 322 328 274 328 c 0,54,55
 229 328 229 328 211 318 c 1,56,-1
 186 380 l 1,57,58
 202 380 202 380 210 379 c 0,59,60
 264 379 264 379 298 406 c 128,-1,61
 332 433 332 433 334 482 c 0,62,63
 334 552 334 552 260 553 c 0,64,65
 203 553 203 553 161 511 c 0,66,67
 145 496 145 496 133 478 c 1,68,-1
 73 523 l 1,69,70
 73 538 73 538 127 577 c 0,71,72
 194 628 194 628 263 628 c 0,73,74
 322 630 322 630 366 586 c 0,75,76
 408 544 408 544 408 481 c 0,77,78
 408 415 408 415 349 372 c 1,79,80
 370 368 370 368 385 359 c 2,81,-1
 402 352 l 1,82,-1
 442 335 l 2,83,84
 458 328 458 328 491 328 c 0,85,86
 504 328 504 328 544 338 c 0,87,88
 550 338 550 338 570 346 c 1,89,-1
 570 553 l 1,90,-1
 464 553 l 1,91,-1
 464 628 l 1,92,-1
 719 628 l 1,93,-1
 719 553 l 1,25,-1
EndSplineSet
EndChar

StartChar: uni0912
Encoding: 2322 2322 117
Width: 848
GlyphClass: 2
Flags: W
LayerCount: 2
Fore
SplineSet
763 626 m 1,0,-1
 698 628 l 1,1,-1
 698 678 l 2,2,3
 698 733 698 733 648 740 c 0,4,5
 631 743 631 743 614 738 c 0,6,7
 520 713 520 713 502 710 c 0,8,9
 456 706 456 706 425 726 c 0,10,11
 384 752 384 752 384 798 c 2,12,-1
 384 877 l 1,13,-1
 451 877 l 1,14,-1
 451 822 l 2,15,16
 451 776 451 776 492 775 c 0,17,18
 509 774 509 774 576 794 c 0,19,20
 637 812 637 812 676 800 c 0,21,22
 737 781 737 781 756 739 c 0,23,24
 762 727 762 727 762 714 c 2,25,-1
 763 626 l 1,0,-1
847 552 m 1,26,-1
 768 552 l 1,27,-1
 768 1 l 1,28,-1
 695 1 l 1,29,-1
 695 552 l 1,30,-1
 616 552 l 1,31,-1
 616 625 l 1,32,-1
 847 625 l 1,33,-1
 847 552 l 1,26,-1
690 553 m 1,34,-1
 617 553 l 1,35,-1
 617 -1 l 1,36,-1
 541 -1 l 1,37,-1
 541 268 l 1,38,39
 536 268 536 268 508 260 c 0,40,41
 493 257 493 257 474 257 c 0,42,43
 444 257 444 257 425 269 c 1,44,45
 432 247 432 247 432 216 c 0,46,47
 432 60 432 60 272 59 c 0,48,49
 179 58 179 58 82 169 c 0,50,51
 5 259 5 259 2 299 c 1,52,-1
 62 335 l 1,53,54
 103 264 103 264 126 235 c 0,55,56
 204 137 204 137 272 134 c 0,57,58
 358 132 358 132 358 216 c 0,59,60
 358 269 358 269 325 299 c 0,61,62
 293 328 293 328 245 328 c 0,63,64
 200 328 200 328 182 318 c 1,65,-1
 157 380 l 1,66,67
 173 380 173 380 181 379 c 0,68,69
 235 379 235 379 269 406 c 0,70,71
 304 433 304 433 305 482 c 0,72,73
 305 552 305 552 232 553 c 0,74,75
 174 553 174 553 132 511 c 0,76,77
 116 496 116 496 104 478 c 1,78,-1
 44 523 l 1,79,80
 44 538 44 538 98 577 c 0,81,82
 166 628 166 628 234 628 c 0,83,84
 293 630 293 630 337 586 c 0,85,86
 379 544 379 544 379 481 c 0,87,88
 379 415 379 415 320 372 c 1,89,90
 341 368 341 368 356 359 c 2,91,-1
 373 352 l 1,92,-1
 413 335 l 2,93,94
 430 328 430 328 462 328 c 0,95,96
 475 328 475 328 515 338 c 0,97,98
 521 338 521 338 541 346 c 1,99,-1
 541 553 l 1,100,-1
 436 553 l 1,101,-1
 436 628 l 1,102,-1
 690 628 l 1,103,-1
 690 553 l 1,34,-1
EndSplineSet
EndChar

StartChar: uni0913
Encoding: 2323 2323 118
Width: 858
GlyphClass: 2
Flags: W
LayerCount: 2
Fore
SplineSet
778 629 m 1,0,-1
 701 629 l 1,1,-1
 458 872 l 1,2,-1
 521 932 l 1,3,-1
 778 629 l 1,0,-1
857 552 m 1,4,-1
 778 552 l 1,5,-1
 778 0 l 1,6,-1
 704 0 l 1,7,-1
 704 552 l 1,8,-1
 625 552 l 1,9,-1
 625 625 l 1,10,-1
 857 625 l 1,11,-1
 857 552 l 1,4,-1
700 553 m 1,12,-1
 626 553 l 1,13,-1
 626 -2 l 1,14,-1
 551 -2 l 1,15,-1
 551 268 l 1,16,17
 546 268 546 268 517 260 c 0,18,19
 503 257 503 257 484 257 c 0,20,21
 454 257 454 257 434 269 c 1,22,23
 442 247 442 247 442 216 c 0,24,25
 442 60 442 60 282 59 c 0,26,27
 188 58 188 58 91 169 c 0,28,29
 14 259 14 259 12 299 c 1,30,-1
 72 335 l 1,31,32
 113 264 113 264 136 235 c 0,33,34
 214 137 214 137 282 134 c 0,35,36
 367 132 367 132 367 216 c 0,37,38
 367 269 367 269 335 299 c 0,39,40
 302 328 302 328 254 328 c 0,41,42
 210 328 210 328 192 318 c 1,43,-1
 167 380 l 1,44,45
 182 380 182 380 191 379 c 0,46,47
 245 379 245 379 278 406 c 0,48,49
 313 433 313 433 314 482 c 0,50,51
 314 552 314 552 241 553 c 0,52,53
 184 553 184 553 142 511 c 0,54,55
 126 496 126 496 114 478 c 1,56,-1
 54 523 l 1,57,58
 54 538 54 538 108 577 c 0,59,60
 175 628 175 628 244 628 c 0,61,62
 302 630 302 630 347 586 c 0,63,64
 389 544 389 544 389 481 c 0,65,66
 389 415 389 415 330 372 c 1,67,68
 350 368 350 368 366 359 c 2,69,-1
 383 352 l 1,70,-1
 422 335 l 2,71,72
 439 328 439 328 472 328 c 0,73,74
 485 328 485 328 524 338 c 0,75,76
 530 338 530 338 551 346 c 1,77,-1
 551 553 l 1,78,-1
 445 553 l 1,79,-1
 445 628 l 1,80,-1
 700 628 l 1,81,-1
 700 553 l 1,12,-1
EndSplineSet
EndChar

StartChar: uni0914
Encoding: 2324 2324 119
Width: 877
GlyphClass: 2
Flags: W
LayerCount: 2
Fore
SplineSet
790 626 m 1,0,-1
 726 626 l 1,1,-1
 418 784 l 1,2,-1
 468 840 l 1,3,-1
 686 704 l 1,4,-1
 584 919 l 1,5,-1
 648 955 l 1,6,-1
 790 626 l 1,0,-1
876 552 m 1,7,-1
 797 552 l 1,8,-1
 797 1 l 1,9,-1
 724 1 l 1,10,-1
 724 552 l 1,11,-1
 644 552 l 1,12,-1
 644 625 l 1,13,-1
 876 625 l 1,14,-1
 876 552 l 1,7,-1
719 553 m 1,15,-1
 646 553 l 1,16,-1
 646 -1 l 1,17,-1
 570 -1 l 1,18,-1
 570 268 l 1,19,20
 565 268 565 268 536 260 c 0,21,22
 522 257 522 257 503 257 c 0,23,24
 473 257 473 257 454 269 c 1,25,26
 461 247 461 247 461 216 c 0,27,28
 461 60 461 60 301 59 c 0,29,30
 208 58 208 58 110 169 c 0,31,32
 34 259 34 259 31 299 c 1,33,-1
 91 335 l 1,34,35
 132 264 132 264 155 235 c 0,36,37
 233 137 233 137 301 134 c 0,38,39
 386 132 386 132 386 216 c 0,40,41
 386 269 386 269 354 299 c 0,42,43
 322 328 322 328 274 328 c 0,44,45
 229 328 229 328 211 318 c 1,46,-1
 186 380 l 1,47,48
 202 380 202 380 210 379 c 0,49,50
 264 379 264 379 298 406 c 128,-1,51
 332 433 332 433 334 482 c 0,52,53
 334 552 334 552 260 553 c 0,54,55
 203 553 203 553 161 511 c 0,56,57
 145 496 145 496 133 478 c 1,58,-1
 73 523 l 1,59,60
 73 538 73 538 127 577 c 0,61,62
 194 628 194 628 263 628 c 0,63,64
 322 630 322 630 366 586 c 0,65,66
 408 544 408 544 408 481 c 0,67,68
 408 415 408 415 349 372 c 1,69,70
 370 368 370 368 385 359 c 2,71,-1
 402 352 l 1,72,-1
 442 335 l 2,73,74
 458 328 458 328 491 328 c 0,75,76
 504 328 504 328 544 338 c 0,77,78
 550 338 550 338 570 346 c 1,79,-1
 570 553 l 1,80,-1
 464 553 l 1,81,-1
 464 628 l 1,82,-1
 719 628 l 1,83,-1
 719 553 l 1,15,-1
EndSplineSet
EndChar

StartChar: uni0915
Encoding: 2325 2325 120
Width: 767
GlyphClass: 2
Flags: W
AnchorPoint: "Anchor-1" 390 -6 basechar 0
AnchorPoint: "Anchor-0" 432 626 basechar 0
LayerCount: 2
Fore
SplineSet
767 553 m 1,0,-1
 430 553 l 1,1,-1
 430 371 l 1,2,3
 486 450 486 450 551 452 c 0,4,5
 620 454 620 454 667 407 c 0,6,7
 713 361 713 361 715 293 c 0,8,9
 718 235 718 235 654 145 c 0,10,11
 636 120 636 120 592 70 c 1,12,-1
 520 119 l 1,13,14
 547 133 547 133 587 182 c 0,15,16
 638 244 638 244 641 298 c 0,17,18
 641 331 641 331 617 354 c 128,-1,19
 593 377 593 377 558 377 c 0,20,21
 505 379 505 379 430 256 c 1,22,-1
 430 -8 l 1,23,-1
 355 -8 l 1,24,-1
 355 162 l 1,25,26
 305 110 305 110 226 108 c 0,27,28
 154 107 154 107 98 156 c 0,29,30
 44 204 44 204 43 277 c 0,31,32
 42 348 42 348 89 401 c 128,-1,33
 136 454 136 454 206 455 c 0,34,35
 208 455 208 455 292 443 c 1,36,-1
 312 361 l 1,37,38
 282 370 282 370 281 370 c 0,39,40
 242 379 242 379 211 379 c 0,41,42
 170 382 170 382 145 353 c 0,43,44
 120 325 120 325 118 284 c 0,45,46
 118 236 118 236 146 211 c 0,47,48
 176 184 176 184 221 184 c 0,49,50
 257 184 257 184 295 204 c 0,51,52
 334 226 334 226 355 258 c 1,53,-1
 355 553 l 1,54,-1
 0 553 l 1,55,-1
 0 628 l 1,56,-1
 767 628 l 1,57,-1
 767 553 l 1,0,-1
EndSplineSet
EndChar

StartChar: uni0916
Encoding: 2326 2326 121
Width: 798
GlyphClass: 2
Flags: W
LayerCount: 2
Fore
SplineSet
799 553 m 1,0,-1
 725 553 l 1,1,-1
 725 -8 l 1,2,-1
 650 -8 l 1,3,-1
 650 116 l 1,4,5
 612 83 612 83 533 56 c 0,6,7
 457 30 457 30 402 30 c 0,8,9
 310 30 310 30 242 72 c 0,10,11
 157 126 157 126 96 257 c 0,12,13
 89 272 89 272 66 334 c 0,14,15
 43 394 43 394 43 407 c 1,16,-1
 104 443 l 1,17,-1
 119 396 l 2,18,19
 130 364 130 364 178 361 c 0,20,21
 221 360 221 360 224 408 c 2,22,-1
 224 553 l 1,23,-1
 0 553 l 1,24,-1
 0 628 l 1,25,-1
 799 628 l 1,26,-1
 799 553 l 1,0,-1
650 205 m 1,27,-1
 650 257 l 1,28,29
 596 210 596 210 527 210 c 0,30,31
 467 210 467 210 427 246 c 0,32,33
 386 283 386 283 386 341 c 0,34,35
 385 398 385 398 430 439 c 0,36,37
 475 479 475 479 532 479 c 0,38,39
 562 479 562 479 593 464 c 1,40,-1
 614 392 l 1,41,42
 600 397 600 397 539 404 c 1,43,44
 463 404 463 404 461 350 c 0,45,46
 458 286 458 286 535 286 c 0,47,48
 607 284 607 284 650 342 c 1,49,-1
 650 553 l 1,50,-1
 300 553 l 1,51,-1
 300 394 l 2,52,53
 300 348 300 348 264 318 c 0,54,55
 227 287 227 287 184 287 c 1,56,-1
 166 289 l 1,57,58
 182 230 182 230 232 180 c 0,59,60
 300 107 300 107 407 104 c 0,61,62
 463 102 463 102 557 151 c 0,63,64
 618 182 618 182 650 205 c 1,27,-1
EndSplineSet
EndChar

StartChar: uni0917
Encoding: 2327 2327 122
Width: 535
GlyphClass: 2
Flags: W
LayerCount: 2
Fore
SplineSet
535 553 m 1,0,-1
 478 552 l 1,1,-1
 478 -10 l 1,2,-1
 388 -8 l 1,3,-1
 388 553 l 1,4,-1
 218 553 l 1,5,-1
 218 271 l 2,6,7
 218 246 218 246 216 242 c 0,8,9
 211 218 211 218 187 217 c 0,10,11
 154 217 154 217 98 272 c 0,12,13
 46 328 46 328 43 362 c 0,14,15
 41 388 41 388 84 391 c 2,16,-1
 144 391 l 1,17,-1
 144 553 l 1,18,-1
 0 553 l 1,19,-1
 0 628 l 1,20,-1
 535 628 l 1,21,-1
 535 553 l 1,0,-1
EndSplineSet
EndChar

StartChar: uni0918
Encoding: 2328 2328 123
Width: 602
GlyphClass: 2
Flags: W
AnchorPoint: "Anchor-0" 520 628 basechar 0
LayerCount: 2
Fore
SplineSet
604 553 m 1,0,-1
 529 553 l 1,1,-1
 529 -8 l 1,2,-1
 455 -8 l 1,3,-1
 455 184 l 1,4,5
 412 157 412 157 391 149 c 0,6,7
 316 112 316 112 252 112 c 0,8,9
 187 112 187 112 137 148 c 0,10,11
 79 187 79 187 79 250 c 0,12,13
 78 308 78 308 136 358 c 1,14,15
 97 365 97 365 70 408 c 0,16,17
 46 446 46 446 46 488 c 0,18,19
 46 526 46 526 71 553 c 1,20,-1
 0 553 l 1,21,-1
 0 628 l 1,22,-1
 604 628 l 1,23,-1
 604 553 l 1,0,-1
455 270 m 1,24,-1
 455 553 l 1,25,-1
 166 553 l 1,26,27
 152 540 152 540 144 529 c 0,28,29
 121 499 121 499 120 472 c 0,30,31
 120 448 120 448 161 422 c 0,32,33
 198 400 198 400 226 400 c 2,34,-1
 305 400 l 1,35,-1
 348 323 l 1,36,-1
 246 323 l 2,37,38
 212 323 212 323 186 304 c 0,39,40
 154 282 154 282 154 252 c 0,41,42
 154 190 154 190 257 187 c 0,43,44
 292 186 292 186 373 224 c 0,45,46
 418 246 418 246 455 270 c 1,24,-1
EndSplineSet
EndChar

StartChar: uni0919
Encoding: 2329 2329 124
Width: 666
GlyphClass: 2
Flags: W
AnchorPoint: "Anchor-1" 398 -6 basechar 0
AnchorPoint: "Anchor-0" 534 622 basechar 0
LayerCount: 2
Fore
SplineSet
666 310 m 1,0,-1
 581 310 l 1,1,-1
 581 391 l 1,2,-1
 666 391 l 1,3,-1
 666 310 l 1,0,-1
666 553 m 1,4,-1
 535 553 l 1,5,-1
 535 379 l 1,6,-1
 277 379 l 1,7,-1
 305 318 l 1,8,9
 354 258 354 258 382 265 c 2,10,-1
 463 286 l 1,11,-1
 517 292 l 2,12,13
 542 292 542 292 566 250 c 0,14,15
 586 212 586 212 586 184 c 0,16,17
 587 95 587 95 535 44 c 0,18,19
 482 -5 482 -5 395 -6 c 0,20,21
 246 -7 246 -7 92 198 c 0,22,23
 44 262 44 262 43 272 c 1,24,-1
 95 320 l 1,25,26
 80 287 80 287 236 148 c 0,27,28
 322 70 322 70 395 67 c 0,29,30
 510 67 510 67 511 181 c 0,31,32
 514 212 514 212 479 216 c 0,33,34
 464 216 464 216 410 199 c 0,35,36
 397 194 397 194 373 191 c 0,37,38
 314 191 314 191 251 266 c 0,39,40
 194 336 194 336 194 386 c 0,41,42
 192 413 192 413 214 434 c 128,-1,43
 236 455 236 455 263 455 c 2,44,-1
 461 455 l 1,45,-1
 461 553 l 1,46,-1
 0 553 l 1,47,-1
 0 628 l 1,48,-1
 666 628 l 1,49,-1
 666 553 l 1,4,-1
EndSplineSet
EndChar

StartChar: uni091A
Encoding: 2330 2330 125
Width: 634
GlyphClass: 2
Flags: W
LayerCount: 2
Fore
SplineSet
635 553 m 1,0,-1
 562 553 l 1,1,-1
 562 -8 l 1,2,-1
 487 -8 l 1,3,-1
 487 218 l 1,4,5
 466 187 466 187 401 149 c 0,6,7
 347 116 347 116 292 114 c 0,8,9
 226 114 226 114 187 149 c 0,10,11
 146 185 146 185 146 247 c 0,12,13
 146 289 146 289 170 328 c 0,14,15
 193 358 193 358 217 379 c 1,16,-1
 43 379 l 1,17,-1
 43 455 l 1,18,-1
 413 455 l 1,19,-1
 413 379 l 1,20,-1
 322 379 l 1,21,22
 293 355 293 355 260 314 c 0,23,24
 223 266 223 266 221 238 c 0,25,26
 221 216 221 216 241 203 c 0,27,28
 264 190 264 190 294 190 c 0,29,30
 347 187 347 187 407 245 c 0,31,32
 454 288 454 288 487 348 c 1,33,-1
 487 553 l 1,34,-1
 0 553 l 1,35,-1
 0 628 l 1,36,-1
 635 628 l 1,37,-1
 635 553 l 1,0,-1
EndSplineSet
EndChar

StartChar: uni091B
Encoding: 2331 2331 126
Width: 657
GlyphClass: 2
Flags: W
AnchorPoint: "Anchor-1" 387 -14 basechar 0
AnchorPoint: "Anchor-0" 524 628 basechar 0
LayerCount: 2
Fore
SplineSet
659 553 m 1,0,-1
 528 553 l 1,1,-1
 528 438 l 1,2,3
 569 419 569 419 578 412 c 0,4,5
 619 379 619 379 622 308 c 0,6,7
 623 181 623 181 515 85 c 0,8,9
 412 -5 412 -5 280 -7 c 0,10,11
 199 -8 199 -8 146 44 c 0,12,13
 95 97 95 97 95 180 c 0,14,15
 95 259 95 259 146 304 c 1,16,17
 104 311 104 311 73 361 c 0,18,19
 48 406 48 406 46 464 c 0,20,21
 43 522 43 522 82 553 c 1,22,-1
 0 553 l 1,23,-1
 0 628 l 1,24,-1
 659 628 l 1,25,-1
 659 553 l 1,0,-1
547 308 m 0,26,27
 547 338 547 338 535 350 c 0,28,29
 526 361 526 361 494 364 c 0,30,31
 466 366 466 366 452 349 c 0,32,33
 443 336 443 336 443 305 c 0,34,35
 442 236 442 236 500 178 c 1,36,37
 506 182 506 182 517 196 c 0,38,39
 547 235 547 235 547 308 c 0,26,27
454 434 m 1,40,-1
 454 553 l 1,41,-1
 176 553 l 2,42,43
 155 553 155 553 137 509 c 0,44,45
 120 470 120 470 119 445 c 0,46,47
 119 409 119 409 152 383 c 0,48,49
 186 356 186 356 222 354 c 0,50,51
 238 353 238 353 283 359 c 1,52,-1
 316 298 l 1,53,54
 264 298 264 298 220 268 c 0,55,56
 169 233 169 233 169 185 c 0,57,58
 169 68 169 68 296 67 c 0,59,60
 388 67 388 67 444 120 c 1,61,62
 406 178 406 178 400 192 c 0,63,64
 368 253 368 253 367 308 c 0,65,66
 365 358 365 358 391 392 c 0,67,68
 407 414 407 414 454 434 c 1,40,-1
EndSplineSet
EndChar

StartChar: uni091C
Encoding: 2332 2332 127
Width: 720
GlyphClass: 2
Flags: W
AnchorPoint: "Anchor-0" 640 628 basechar 0
LayerCount: 2
Fore
SplineSet
720 553 m 1,0,-1
 647 553 l 1,1,-1
 647 -8 l 1,2,-1
 571 -8 l 1,3,-1
 571 359 l 1,4,-1
 422 359 l 1,5,6
 458 317 458 317 458 259 c 0,7,8
 458 187 458 187 421 149 c 0,9,10
 384 109 384 109 313 107 c 0,11,12
 173 106 173 106 72 336 c 0,13,14
 43 403 43 403 43 421 c 1,15,-1
 103 464 l 1,16,17
 118 372 118 372 194 266 c 0,18,19
 256 182 256 182 319 182 c 0,20,21
 383 182 383 182 383 254 c 0,22,23
 385 296 385 296 340 364 c 0,24,25
 326 379 326 379 295 421 c 1,26,-1
 295 433 l 1,27,-1
 571 433 l 1,28,-1
 571 553 l 1,29,-1
 0 553 l 1,30,-1
 0 628 l 1,31,-1
 720 628 l 1,32,-1
 720 553 l 1,0,-1
EndSplineSet
EndChar

StartChar: uni091D
Encoding: 2333 2333 128
Width: 708
GlyphClass: 2
Flags: W
AnchorPoint: "Anchor-0" 631 624 basechar 0
LayerCount: 2
Fore
SplineSet
709 553 m 1,0,-1
 635 553 l 1,1,-1
 635 -8 l 1,2,-1
 560 -8 l 1,3,-1
 560 193 l 1,4,-1
 503 187 l 1,5,-1
 502 187 l 2,6,7
 458 187 458 187 438 193 c 1,8,9
 438 66 438 66 296 19 c 1,10,11
 313 -6 313 -6 361 -44 c 2,12,-1
 365 -47 l 2,13,14
 415 -89 415 -89 438 -90 c 1,15,-1
 392 -155 l 1,16,17
 359 -134 359 -134 344 -122 c 0,18,19
 324 -109 324 -109 286 -74 c 0,20,21
 271 -64 271 -64 238 -28 c 2,22,-1
 203 8 l 1,23,24
 46 8 46 8 43 101 c 0,25,26
 43 127 43 127 62 145 c 0,27,28
 82 164 82 164 107 164 c 0,29,30
 143 166 143 166 188 126 c 1,31,-1
 241 72 l 1,32,33
 275 72 275 72 311 94 c 0,34,35
 361 121 361 121 364 173 c 0,36,37
 364 196 364 196 359 211 c 0,38,39
 353 227 353 227 331 227 c 0,40,41
 318 228 318 228 274 217 c 0,42,43
 234 205 234 205 214 205 c 0,44,45
 167 205 167 205 109 278 c 0,46,47
 53 352 53 352 50 398 c 0,48,49
 48 422 48 422 67 439 c 0,50,51
 86 455 86 455 110 455 c 2,52,-1
 308 455 l 1,53,-1
 308 553 l 1,54,-1
 0 553 l 1,55,-1
 0 628 l 1,56,-1
 709 628 l 1,57,-1
 709 553 l 1,0,-1
560 274 m 1,58,-1
 560 553 l 1,59,-1
 383 553 l 1,60,-1
 383 379 l 1,61,-1
 143 379 l 2,62,63
 136 379 136 379 136 373 c 0,64,65
 136 356 136 356 174 316 c 0,66,67
 212 275 212 275 232 277 c 0,68,69
 258 283 258 283 293 293 c 0,70,71
 332 304 332 304 355 304 c 0,72,73
 395 304 395 304 420 263 c 1,74,75
 432 260 432 260 451 256 c 0,76,77
 456 256 456 256 480 253 c 0,78,79
 526 253 526 253 560 274 c 1,58,-1
EndSplineSet
EndChar

StartChar: uni091E
Encoding: 2334 2334 129
Width: 694
GlyphClass: 2
Flags: W
AnchorPoint: "Anchor-0" 615 624 basechar 0
LayerCount: 2
Fore
SplineSet
696 553 m 1,0,-1
 622 553 l 1,1,-1
 622 -8 l 1,2,-1
 547 -8 l 1,3,-1
 547 226 l 1,4,5
 518 221 518 221 500 218 c 0,6,7
 474 218 474 218 422 240 c 1,8,9
 414 163 414 163 364 116 c 0,10,11
 316 72 316 72 235 70 c 0,12,13
 182 70 182 70 124 98 c 0,14,15
 86 116 86 116 31 158 c 1,16,-1
 80 217 l 1,17,18
 108 190 108 190 161 164 c 0,19,20
 200 148 200 148 235 145 c 0,21,22
 341 142 341 142 349 257 c 1,23,-1
 349 266 l 2,24,25
 349 312 349 312 317 344 c 0,26,27
 286 379 286 379 241 379 c 0,28,29
 222 379 222 379 197 372 c 0,30,31
 170 365 170 365 163 359 c 1,32,-1
 115 416 l 1,33,34
 127 422 127 422 157 434 c 0,35,36
 208 455 208 455 235 455 c 0,37,38
 377 457 377 457 420 296 c 1,39,40
 450 283 450 283 476 283 c 0,41,42
 516 283 516 283 547 304 c 1,43,-1
 547 553 l 1,44,-1
 0 553 l 1,45,-1
 0 628 l 1,46,-1
 696 628 l 1,47,-1
 696 553 l 1,0,-1
EndSplineSet
EndChar

StartChar: uni091F
Encoding: 2335 2335 130
Width: 582
GlyphClass: 2
Flags: W
AnchorPoint: "Anchor-1" 400 0 basechar 0
AnchorPoint: "Anchor-0" 454 628 basechar 0
LayerCount: 2
Fore
SplineSet
582 553 m 1,0,-1
 457 553 l 1,1,-1
 457 362 l 1,2,-1
 240 362 l 2,3,4
 199 362 199 362 169 322 c 0,5,6
 143 284 143 284 143 244 c 0,7,8
 142 170 142 170 202 119 c 0,9,10
 257 68 257 68 331 68 c 0,11,12
 428 68 428 68 480 156 c 1,13,-1
 550 113 l 1,14,15
 463 -6 463 -6 336 -6 c 0,16,17
 226 -6 226 -6 148 67 c 0,18,19
 68 140 68 140 67 248 c 0,20,21
 67 317 67 317 113 373 c 0,22,23
 163 438 163 438 227 438 c 2,24,-1
 382 438 l 1,25,-1
 382 553 l 1,26,-1
 0 553 l 1,27,-1
 0 628 l 1,28,-1
 582 628 l 1,29,-1
 582 553 l 1,0,-1
EndSplineSet
EndChar

StartChar: uni0920
Encoding: 2336 2336 131
Width: 542
GlyphClass: 2
Flags: W
AnchorPoint: "Anchor-1" 367 -9 basechar 0
AnchorPoint: "Anchor-0" 426 627 basechar 0
LayerCount: 2
Fore
SplineSet
544 553 m 1,0,-1
 433 553 l 1,1,-1
 433 350 l 1,2,-1
 206 350 l 2,3,4
 169 350 169 350 144 318 c 0,5,6
 118 287 118 287 118 248 c 0,7,8
 118 180 118 180 170 131 c 0,9,10
 223 82 223 82 292 82 c 0,11,12
 431 78 431 78 431 190 c 0,13,14
 432 245 432 245 373 287 c 1,15,-1
 428 337 l 1,16,17
 506 294 506 294 506 186 c 0,18,19
 506 100 506 100 440 50 c 0,20,21
 380 8 380 8 292 6 c 0,22,23
 190 4 190 4 118 78 c 0,24,25
 46 149 46 149 43 251 c 0,26,27
 42 320 42 320 91 374 c 0,28,29
 142 425 142 425 214 425 c 2,30,-1
 359 425 l 1,31,-1
 359 553 l 1,32,-1
 0 553 l 1,33,-1
 0 628 l 1,34,-1
 544 628 l 1,35,-1
 544 553 l 1,0,-1
EndSplineSet
EndChar

StartChar: uni0921
Encoding: 2337 2337 132
Width: 626
GlyphClass: 2
Flags: W
AnchorPoint: "Anchor-1" 332 -6 basechar 0
AnchorPoint: "Anchor-0" 534 626 basechar 0
LayerCount: 2
Fore
SplineSet
626 553 m 1,0,-1
 535 553 l 1,1,-1
 535 379 l 1,2,-1
 277 379 l 1,3,-1
 305 318 l 1,4,5
 354 258 354 258 382 265 c 2,6,-1
 463 286 l 1,7,-1
 517 292 l 2,8,9
 542 292 542 292 566 250 c 0,10,11
 586 212 586 212 586 184 c 0,12,13
 587 95 587 95 535 44 c 0,14,15
 482 -5 482 -5 395 -6 c 0,16,17
 246 -7 246 -7 92 198 c 0,18,19
 44 262 44 262 43 272 c 1,20,-1
 95 320 l 1,21,22
 80 287 80 287 236 148 c 0,23,24
 322 70 322 70 395 67 c 0,25,26
 510 67 510 67 511 181 c 0,27,28
 514 212 514 212 479 216 c 0,29,30
 464 216 464 216 410 199 c 0,31,32
 397 194 397 194 373 191 c 0,33,34
 314 191 314 191 251 266 c 0,35,36
 194 336 194 336 194 386 c 0,37,38
 192 413 192 413 214 434 c 128,-1,39
 236 455 236 455 263 455 c 2,40,-1
 461 455 l 1,41,-1
 461 553 l 1,42,-1
 0 553 l 1,43,-1
 0 628 l 1,44,-1
 626 628 l 1,45,-1
 626 553 l 1,0,-1
EndSplineSet
EndChar

StartChar: uni0922
Encoding: 2338 2338 133
Width: 549
GlyphClass: 2
Flags: W
AnchorPoint: "Anchor-1" 284 -10 basechar 0
AnchorPoint: "Anchor-0" 432 632 basechar 0
LayerCount: 2
Fore
SplineSet
551 553 m 1,0,-1
 439 553 l 1,1,-1
 439 371 l 1,2,-1
 218 371 l 2,3,4
 175 371 175 371 150 338 c 128,-1,5
 125 305 125 305 125 260 c 0,6,7
 125 179 125 179 192 121 c 0,8,9
 240 82 240 82 295 68 c 1,10,11
 270 104 270 104 268 154 c 0,12,13
 268 216 268 216 312 252 c 0,14,15
 341 274 341 274 385 274 c 0,16,17
 436 275 436 275 474 239 c 0,18,19
 512 200 512 200 514 146 c 0,20,21
 516 72 516 72 456 31 c 0,22,23
 404 -6 404 -6 326 -6 c 0,24,25
 220 -6 220 -6 134 72 c 0,26,27
 50 149 50 149 50 258 c 0,28,29
 50 329 50 329 94 385 c 0,30,31
 139 446 139 446 208 446 c 2,32,-1
 364 446 l 1,33,-1
 364 553 l 1,34,-1
 0 553 l 1,35,-1
 0 628 l 1,36,-1
 551 628 l 1,37,-1
 551 553 l 1,0,-1
439 138 m 0,38,39
 439 197 439 197 388 199 c 0,40,41
 341 202 341 202 341 146 c 0,42,43
 341 96 341 96 376 68 c 1,44,45
 398 73 398 73 418 95 c 0,46,47
 436 115 436 115 439 138 c 0,38,39
EndSplineSet
EndChar

StartChar: uni0923
Encoding: 2339 2339 134
Width: 622
GlyphClass: 2
Flags: W
LayerCount: 2
Fore
SplineSet
623 553 m 1,0,-1
 550 553 l 1,1,-1
 550 -8 l 1,2,-1
 474 -8 l 1,3,-1
 474 553 l 1,4,-1
 343 553 l 1,5,-1
 343 355 l 2,6,7
 343 290 343 290 301 245 c 0,8,9
 262 203 262 203 196 200 c 0,10,11
 131 199 131 199 88 242 c 0,12,13
 43 286 43 286 43 350 c 2,14,-1
 43 553 l 1,15,-1
 0 553 l 1,16,-1
 0 628 l 1,17,-1
 623 628 l 1,18,-1
 623 553 l 1,0,-1
268 368 m 2,19,-1
 268 553 l 1,20,-1
 118 553 l 1,21,-1
 118 364 l 2,22,23
 118 275 118 275 191 275 c 0,24,25
 229 275 229 275 252 305 c 0,26,27
 268 329 268 329 268 368 c 2,19,-1
EndSplineSet
EndChar

StartChar: uni0924
Encoding: 2340 2340 135
Width: 578
GlyphClass: 2
Flags: W
AnchorPoint: "Anchor-0" 494 628 basechar 0
LayerCount: 2
Fore
SplineSet
578 553 m 1,0,-1
 505 553 l 1,1,-1
 505 -8 l 1,2,-1
 430 -8 l 1,3,-1
 430 371 l 1,4,-1
 184 371 l 2,5,6
 120 371 120 371 118 310 c 0,7,8
 118 242 118 242 197 145 c 0,9,10
 263 61 263 61 292 54 c 1,11,-1
 239 -1 l 1,12,13
 221 -1 221 -1 139 98 c 0,14,15
 43 214 43 214 43 319 c 0,16,17
 43 373 43 373 70 410 c 0,18,19
 96 446 96 446 150 446 c 2,20,-1
 430 446 l 1,21,-1
 430 553 l 1,22,-1
 0 553 l 1,23,-1
 0 628 l 1,24,-1
 578 628 l 1,25,-1
 578 553 l 1,0,-1
EndSplineSet
EndChar

StartChar: uni0925
Encoding: 2341 2341 136
Width: 675
GlyphClass: 2
Flags: W
LayerCount: 2
Fore
SplineSet
676 553 m 1,0,-1
 602 553 l 1,1,-1
 602 -8 l 1,2,-1
 527 -8 l 1,3,-1
 527 216 l 1,4,-1
 468 167 l 1,5,6
 395 119 395 119 312 116 c 0,7,8
 216 116 216 116 142 184 c 0,9,10
 44 269 44 269 43 337 c 1,11,12
 84 325 84 325 134 325 c 0,13,14
 301 325 301 325 301 451 c 0,15,16
 301 494 301 494 272 522 c 0,17,18
 246 548 246 548 200 551 c 0,19,20
 170 551 170 551 151 541 c 0,21,22
 132 529 132 529 132 504 c 0,23,24
 132 455 132 455 192 455 c 0,25,26
 202 455 202 455 209 457 c 1,27,-1
 209 388 l 1,28,29
 58 388 58 388 56 506 c 0,30,31
 55 557 55 557 106 593 c 0,32,33
 154 625 154 625 203 625 c 0,34,35
 275 626 275 626 325 575 c 0,36,37
 376 522 376 522 376 451 c 0,38,39
 377 287 377 287 172 259 c 1,40,41
 218 192 218 192 311 192 c 0,42,43
 394 192 394 192 472 265 c 0,44,45
 493 283 493 283 527 331 c 1,46,-1
 527 553 l 1,47,-1
 421 553 l 1,48,-1
 421 628 l 1,49,-1
 676 628 l 1,50,-1
 676 553 l 1,0,-1
EndSplineSet
EndChar

StartChar: uni0926
Encoding: 2342 2342 137
Width: 512
GlyphClass: 2
Flags: W
AnchorPoint: "Anchor-1" 400 -38 basechar 0
AnchorPoint: "Anchor-0" 438 626 basechar 0
LayerCount: 2
Fore
SplineSet
512 553 m 1,0,-1
 438 553 l 1,1,-1
 438 379 l 1,2,-1
 192 379 l 2,3,4
 158 379 158 379 139 356 c 0,5,6
 118 335 118 335 118 301 c 0,7,8
 118 214 118 214 208 181 c 0,9,10
 247 166 247 166 326 166 c 1,11,12
 326 191 326 191 325 196 c 0,13,14
 325 262 325 262 396 264 c 0,15,16
 420 266 420 266 439 242 c 0,17,18
 457 221 457 221 457 196 c 0,19,20
 457 145 457 145 412 116 c 0,21,22
 412 115 412 115 442 58 c 0,23,24
 456 29 456 29 484 -10 c 2,25,-1
 508 -40 l 1,26,-1
 408 -40 l 1,27,-1
 374 24 l 1,28,-1
 348 91 l 1,29,30
 221 91 221 91 144 132 c 0,31,32
 43 186 43 186 43 301 c 0,33,34
 43 361 43 361 77 407 c 0,35,36
 110 455 110 455 167 455 c 2,37,-1
 362 455 l 1,38,-1
 362 553 l 1,39,-1
 0 553 l 1,40,-1
 0 628 l 1,41,-1
 512 628 l 1,42,-1
 512 553 l 1,0,-1
EndSplineSet
EndChar

StartChar: uni0927
Encoding: 2343 2343 138
Width: 606
GlyphClass: 2
Flags: W
AnchorPoint: "Anchor-0" 528 630 basechar 0
LayerCount: 2
Fore
SplineSet
607 553 m 1,0,-1
 533 553 l 1,1,-1
 533 -8 l 1,2,-1
 458 -8 l 1,3,-1
 458 202 l 1,4,5
 434 178 434 178 403 156 c 0,6,7
 325 104 325 104 244 104 c 0,8,9
 182 104 182 104 137 140 c 0,10,11
 86 178 86 178 86 238 c 0,12,13
 84 274 84 274 108 306 c 0,14,15
 116 319 116 319 142 341 c 1,16,17
 46 409 46 409 43 502 c 0,18,19
 41 554 41 554 78 590 c 0,20,21
 115 628 115 628 167 628 c 0,22,23
 210 630 210 630 246 594 c 0,24,25
 283 559 283 559 283 514 c 2,26,-1
 283 482 l 1,27,-1
 208 482 l 1,28,-1
 208 514 l 2,29,30
 208 552 208 552 167 553 c 0,31,32
 118 553 118 553 116 504 c 0,33,34
 116 466 116 466 152 419 c 0,35,36
 181 382 181 382 197 373 c 1,37,38
 244 389 244 389 296 389 c 2,39,-1
 331 389 l 1,40,-1
 364 318 l 1,41,42
 161 318 161 318 161 233 c 0,43,44
 161 206 161 206 193 193 c 0,45,46
 227 180 227 180 268 180 c 0,47,48
 312 179 312 179 394 240 c 0,49,50
 426 264 426 264 458 296 c 1,51,-1
 458 553 l 1,52,-1
 359 553 l 1,53,-1
 359 628 l 1,54,-1
 607 628 l 1,55,-1
 607 553 l 1,0,-1
EndSplineSet
EndChar

StartChar: uni0928
Encoding: 2344 2344 139
Width: 534
GlyphClass: 2
Flags: W
AnchorPoint: "Anchor-0" 502 629 basechar 0
LayerCount: 2
Fore
SplineSet
582 553 m 1,0,-1
 509 553 l 1,1,-1
 509 -8 l 1,2,-1
 433 -8 l 1,3,-1
 433 335 l 1,4,-1
 204 335 l 1,5,-1
 204 245 l 2,6,7
 204 220 204 220 203 218 c 0,8,9
 196 208 196 208 170 208 c 0,10,11
 154 208 154 208 98 269 c 0,12,13
 43 329 43 329 43 350 c 0,14,15
 43 373 43 373 59 390 c 0,16,17
 74 409 74 409 95 409 c 2,18,-1
 433 409 l 1,19,-1
 433 553 l 1,20,-1
 0 553 l 1,21,-1
 0 628 l 1,22,-1
 582 628 l 1,23,-1
 582 553 l 1,0,-1
EndSplineSet
EndChar

StartChar: uni0929
Encoding: 2345 2345 140
Width: 582
GlyphClass: 2
Flags: W
AnchorPoint: "Anchor-0" 505 629 basechar 0
LayerCount: 2
Fore
SplineSet
182 -23 m 1,0,-1
 84 -23 l 1,1,-1
 84 69 l 1,2,-1
 182 69 l 1,3,-1
 182 -23 l 1,0,-1
582 553 m 1,4,-1
 509 553 l 1,5,-1
 509 -8 l 1,6,-1
 433 -8 l 1,7,-1
 433 335 l 1,8,-1
 204 335 l 1,9,-1
 204 245 l 2,10,11
 204 220 204 220 203 218 c 0,12,13
 196 208 196 208 170 208 c 0,14,15
 154 208 154 208 98 269 c 0,16,17
 43 329 43 329 43 350 c 0,18,19
 43 373 43 373 59 390 c 0,20,21
 74 409 74 409 95 409 c 2,22,-1
 433 409 l 1,23,-1
 433 553 l 1,24,-1
 0 553 l 1,25,-1
 0 628 l 1,26,-1
 582 628 l 1,27,-1
 582 553 l 1,4,-1
EndSplineSet
EndChar

StartChar: uni092A
Encoding: 2346 2346 141
Width: 489
GlyphClass: 2
Flags: W
AnchorPoint: "Anchor-0" 404 628 basechar 0
LayerCount: 2
Fore
SplineSet
491 553 m 1,0,-1
 416 553 l 1,1,-1
 416 -8 l 1,2,-1
 342 -8 l 1,3,-1
 342 210 l 1,4,5
 299 170 299 170 228 170 c 128,-1,6
 157 170 157 170 102 211 c 0,7,8
 43 256 43 256 43 326 c 2,9,-1
 43 553 l 1,10,-1
 0 553 l 1,11,-1
 0 628 l 1,12,-1
 491 628 l 1,13,-1
 491 553 l 1,0,-1
342 302 m 1,14,-1
 342 553 l 1,15,-1
 118 553 l 1,16,-1
 118 330 l 2,17,18
 118 290 118 290 152 266 c 0,19,20
 182 246 182 246 224 246 c 0,21,22
 263 246 263 246 294 263 c 0,23,24
 317 277 317 277 342 302 c 1,14,-1
EndSplineSet
EndChar

StartChar: uni092B
Encoding: 2347 2347 142
Width: 746
GlyphClass: 2
Flags: W
AnchorPoint: "Anchor-1" 374 -8 basechar 0
AnchorPoint: "Anchor-0" 410 630 basechar 0
LayerCount: 2
Fore
SplineSet
751 553 m 1,0,-1
 416 553 l 1,1,-1
 416 362 l 1,2,3
 485 427 485 427 536 427 c 0,4,5
 607 430 607 430 654 382 c 0,6,7
 700 337 700 337 702 268 c 0,8,9
 702 210 702 210 641 120 c 0,10,11
 619 91 619 91 577 46 c 1,12,-1
 506 95 l 1,13,14
 538 112 538 112 574 157 c 0,15,16
 626 221 626 221 626 272 c 0,17,18
 628 305 628 305 602 329 c 128,-1,19
 576 353 576 353 545 353 c 0,20,21
 522 353 522 353 491 329 c 0,22,23
 473 317 473 317 416 264 c 1,24,-1
 416 -8 l 1,25,-1
 342 -8 l 1,26,-1
 342 206 l 1,27,28
 292 170 292 170 228 170 c 0,29,30
 157 170 157 170 102 211 c 0,31,32
 43 256 43 256 43 326 c 2,33,-1
 43 553 l 1,34,-1
 0 553 l 1,35,-1
 0 628 l 1,36,-1
 751 628 l 1,37,-1
 751 553 l 1,0,-1
342 295 m 1,38,-1
 342 553 l 1,39,-1
 118 553 l 1,40,-1
 118 330 l 2,41,42
 118 290 118 290 152 266 c 0,43,44
 182 246 182 246 224 246 c 0,45,46
 286 246 286 246 342 295 c 1,38,-1
EndSplineSet
EndChar

StartChar: uni092C
Encoding: 2348 2348 143
Width: 502
GlyphClass: 2
Flags: W
AnchorPoint: "Anchor-0" 427 624 basechar 0
LayerCount: 2
Fore
SplineSet
504 553 m 1,0,-1
 430 553 l 1,1,-1
 430 -8 l 1,2,-1
 355 -8 l 1,3,-1
 355 170 l 1,4,5
 323 146 323 146 318 145 c 0,6,7
 275 122 275 122 226 120 c 0,8,9
 151 120 151 120 98 168 c 0,10,11
 44 218 44 218 43 290 c 0,12,13
 41 361 41 361 89 414 c 0,14,15
 134 466 134 466 206 467 c 0,16,17
 220 467 220 467 292 455 c 1,18,-1
 312 373 l 1,19,20
 258 390 258 390 211 392 c 0,21,22
 185 392 185 392 158 376 c 1,23,-1
 341 246 l 1,24,25
 352 252 352 252 353 256 c 2,26,-1
 355 258 l 1,27,-1
 355 553 l 1,28,-1
 0 553 l 1,29,-1
 0 628 l 1,30,-1
 504 628 l 1,31,-1
 504 553 l 1,0,-1
294 214 m 1,32,-1
 125 335 l 1,33,34
 118 319 118 319 118 296 c 0,35,36
 118 250 118 250 146 223 c 0,37,38
 176 196 176 196 221 196 c 0,39,40
 254 194 254 194 294 214 c 1,32,-1
EndSplineSet
EndChar

StartChar: uni092D
Encoding: 2349 2349 144
Width: 591
GlyphClass: 2
Flags: W
AnchorPoint: "Anchor-0" 516 630 basechar 0
LayerCount: 2
Fore
SplineSet
592 553 m 1,0,-1
 518 553 l 1,1,-1
 518 -8 l 1,2,-1
 443 -8 l 1,3,-1
 443 265 l 1,4,-1
 254 265 l 1,5,-1
 254 164 l 2,6,7
 254 155 254 155 221 152 c 0,8,9
 199 151 199 151 149 210 c 0,10,11
 98 268 98 268 98 293 c 0,12,13
 98 308 98 308 112 323 c 0,14,15
 124 341 124 341 137 341 c 2,16,-1
 179 341 l 1,17,-1
 179 499 l 2,18,19
 179 524 179 524 167 538 c 128,-1,20
 155 552 155 552 133 552 c 0,21,22
 84 552 84 552 80 504 c 0,23,24
 80 502 80 502 89 476 c 2,25,-1
 98 457 l 1,26,-1
 18 457 l 1,27,28
 18 467 18 467 12 485 c 2,29,-1
 6 514 l 1,30,31
 6 565 6 565 43 595 c 0,32,33
 80 626 80 626 132 626 c 0,34,35
 182 628 182 628 220 600 c 0,36,37
 254 571 254 571 254 521 c 2,38,-1
 254 341 l 1,39,-1
 443 341 l 1,40,-1
 443 553 l 1,41,-1
 337 553 l 1,42,-1
 337 628 l 1,43,-1
 592 628 l 1,44,-1
 592 553 l 1,0,-1
EndSplineSet
EndChar

StartChar: uni092E
Encoding: 2350 2350 145
Width: 530
GlyphClass: 2
Flags: W
LayerCount: 2
Fore
SplineSet
530 553 m 1,0,-1
 457 553 l 1,1,-1
 457 -8 l 1,2,-1
 382 -8 l 1,3,-1
 382 265 l 1,4,-1
 170 265 l 1,5,-1
 170 185 l 2,6,7
 170 170 170 170 169 168 c 0,8,9
 166 155 166 155 138 152 c 0,10,11
 115 151 115 151 66 210 c 0,12,13
 17 266 17 266 14 293 c 0,14,15
 14 307 14 307 29 323 c 0,16,17
 41 341 41 341 54 341 c 2,18,-1
 96 341 l 1,19,-1
 96 553 l 1,20,-1
 0 553 l 1,21,-1
 0 628 l 1,22,-1
 530 628 l 1,23,-1
 530 553 l 1,0,-1
382 341 m 1,24,-1
 382 553 l 1,25,-1
 170 553 l 1,26,-1
 170 341 l 1,27,-1
 382 341 l 1,24,-1
EndSplineSet
EndChar

StartChar: uni092F
Encoding: 2351 2351 146
Width: 568
GlyphClass: 2
Flags: W
AnchorPoint: "Anchor-0" 494 630 basechar 0
LayerCount: 2
Fore
SplineSet
569 553 m 1,0,-1
 496 553 l 1,1,-1
 496 -8 l 1,2,-1
 420 -8 l 1,3,-1
 420 215 l 1,4,5
 358 161 358 161 274 161 c 0,6,7
 176 161 176 161 110 224 c 0,8,9
 46 287 46 287 43 386 c 1,10,11
 47 386 47 386 65 380 c 2,12,-1
 94 376 l 1,13,14
 133 376 133 376 162 397 c 0,15,16
 190 419 190 419 192 458 c 0,17,18
 192 498 192 498 160 530 c 0,19,20
 154 539 154 539 134 553 c 1,21,-1
 0 553 l 1,22,-1
 0 628 l 1,23,-1
 569 628 l 1,24,-1
 569 553 l 1,0,-1
420 318 m 1,25,-1
 420 553 l 1,26,-1
 224 553 l 1,27,28
 266 508 266 508 266 456 c 128,-1,29
 266 404 266 404 232 360 c 0,30,31
 197 314 197 314 145 313 c 1,32,33
 173 236 173 236 268 236 c 0,34,35
 329 235 329 235 383 280 c 0,36,37
 394 288 394 288 420 318 c 1,25,-1
EndSplineSet
EndChar

StartChar: uni0930
Encoding: 2352 2352 147
Width: 444
GlyphClass: 2
Flags: W
AnchorPoint: "Anchor-1" 338 -12 basechar 0
AnchorPoint: "Anchor-0" 362 628 basechar 0
LayerCount: 2
Fore
SplineSet
445 553 m 1,0,-1
 365 553 l 1,1,-1
 365 406 l 2,2,3
 365 353 365 353 325 318 c 0,4,5
 286 286 286 286 232 286 c 2,6,-1
 216 286 l 2,7,8
 215 286 215 286 203 288 c 1,9,-1
 238 238 l 2,10,11
 258 206 258 206 280 181 c 2,12,-1
 353 94 l 2,13,14
 392 48 392 48 402 42 c 1,15,-1
 350 -13 l 1,16,17
 256 82 256 82 164 212 c 2,18,-1
 29 407 l 1,19,-1
 89 449 l 1,20,-1
 121 402 l 2,21,22
 150 361 150 361 226 360 c 0,23,24
 290 358 290 358 290 408 c 2,25,-1
 290 553 l 1,26,-1
 0 553 l 1,27,-1
 0 628 l 1,28,-1
 445 628 l 1,29,-1
 445 553 l 1,0,-1
EndSplineSet
EndChar

StartChar: uni0931
Encoding: 2353 2353 148
Width: 444
GlyphClass: 2
Flags: W
AnchorPoint: "Anchor-1" 350 -24 basechar 0
AnchorPoint: "Anchor-0" 362 626 basechar 0
LayerCount: 2
Fore
SplineSet
129 54 m 1,0,-1
 72 -4 l 1,1,-1
 18 50 l 1,2,-1
 75 108 l 1,3,-1
 129 54 l 1,0,-1
445 553 m 1,4,-1
 365 553 l 1,5,-1
 365 406 l 2,6,7
 365 353 365 353 325 318 c 0,8,9
 286 286 286 286 232 286 c 2,10,-1
 216 286 l 2,11,12
 215 286 215 286 203 288 c 1,13,-1
 238 238 l 2,14,15
 258 206 258 206 280 181 c 2,16,-1
 353 94 l 2,17,18
 392 48 392 48 402 42 c 1,19,-1
 350 -13 l 1,20,21
 256 82 256 82 164 212 c 2,22,-1
 29 407 l 1,23,-1
 89 449 l 1,24,-1
 121 402 l 2,25,26
 150 361 150 361 226 360 c 0,27,28
 290 358 290 358 290 408 c 2,29,-1
 290 553 l 1,30,-1
 0 553 l 1,31,-1
 0 628 l 1,32,-1
 445 628 l 1,33,-1
 445 553 l 1,4,-1
EndSplineSet
EndChar

StartChar: uni0932
Encoding: 2354 2354 149
Width: 672
GlyphClass: 2
Flags: W
LayerCount: 2
Fore
SplineSet
672 553 m 1,0,-1
 599 553 l 1,1,-1
 599 -8 l 1,2,-1
 523 -8 l 1,3,-1
 523 352 l 1,4,5
 486 348 486 348 431 295 c 0,6,7
 378 240 378 240 364 187 c 1,8,-1
 296 221 l 1,9,10
 296 245 296 245 310 265 c 0,11,12
 311 271 311 271 335 296 c 1,13,14
 305 324 305 324 277 340 c 0,15,16
 259 348 259 348 238 352 c 1,17,18
 186 352 186 352 151 328 c 0,19,20
 118 304 118 304 118 254 c 0,21,22
 118 179 118 179 214 110 c 0,23,24
 290 55 290 55 322 54 c 1,25,-1
 284 -11 l 1,26,27
 222 -11 222 -11 118 95 c 0,28,29
 46 167 46 167 43 257 c 0,30,31
 42 332 42 332 96 379 c 0,32,33
 146 426 146 426 222 426 c 0,34,35
 313 427 313 427 382 353 c 1,36,37
 451 422 451 422 523 426 c 1,38,-1
 523 553 l 1,39,-1
 0 553 l 1,40,-1
 0 628 l 1,41,-1
 672 628 l 1,42,-1
 672 553 l 1,0,-1
EndSplineSet
EndChar

StartChar: uni0933
Encoding: 2355 2355 150
Width: 676
GlyphClass: 2
Flags: W
AnchorPoint: "Anchor-1" 477 30 basechar 0
AnchorPoint: "Anchor-0" 534 627 basechar 0
LayerCount: 2
Fore
SplineSet
677 553 m 1,0,-1
 533 553 l 1,1,-1
 533 440 l 1,2,3
 584 424 584 424 613 366 c 0,4,5
 640 312 640 312 641 257 c 0,6,7
 641 175 641 175 602 122 c 0,8,9
 559 66 559 66 480 64 c 0,10,11
 384 64 384 64 344 155 c 1,12,13
 302 59 302 59 205 59 c 0,14,15
 128 59 128 59 85 119 c 0,16,17
 48 170 48 170 46 253 c 0,18,19
 43 331 43 331 89 383 c 0,20,21
 136 442 136 442 210 442 c 0,22,23
 299 442 299 442 344 360 c 1,24,25
 358 389 358 389 391 414 c 0,26,27
 425 439 425 439 458 443 c 1,28,-1
 458 553 l 1,29,-1
 0 553 l 1,30,-1
 0 628 l 1,31,-1
 677 628 l 1,32,-1
 677 553 l 1,0,-1
565 242 m 0,33,34
 566 298 566 298 553 326 c 0,35,36
 536 364 536 364 478 366 c 0,37,38
 430 367 430 367 402 314 c 0,39,40
 397 306 397 306 383 254 c 1,41,42
 383 217 383 217 416 170 c 0,43,44
 445 134 445 134 488 134 c 0,45,46
 523 134 523 134 546 172 c 0,47,48
 563 203 563 203 565 242 c 0,33,34
308 256 m 1,49,50
 302 301 302 301 277 330 c 0,51,52
 248 366 248 366 208 366 c 0,53,54
 124 366 124 366 120 254 c 0,55,56
 118 134 118 134 208 134 c 0,57,58
 251 132 251 132 278 174 c 0,59,60
 301 208 301 208 308 256 c 1,49,50
EndSplineSet
EndChar

StartChar: uni0934
Encoding: 2356 2356 151
Width: 676
GlyphClass: 2
Flags: W
AnchorPoint: "Anchor-1" 462 -114 basechar 0
AnchorPoint: "Anchor-0" 535 631 basechar 0
LayerCount: 2
Fore
SplineSet
506 -82 m 1,0,-1
 406 -82 l 1,1,-1
 406 12 l 1,2,-1
 506 12 l 1,3,-1
 506 -82 l 1,0,-1
677 553 m 1,4,-1
 533 553 l 1,5,-1
 533 440 l 1,6,7
 584 424 584 424 613 366 c 0,8,9
 640 312 640 312 641 257 c 0,10,11
 641 175 641 175 602 122 c 0,12,13
 559 66 559 66 480 64 c 0,14,15
 384 64 384 64 344 155 c 1,16,17
 302 59 302 59 205 59 c 0,18,19
 128 59 128 59 85 119 c 0,20,21
 48 170 48 170 46 253 c 0,22,23
 43 331 43 331 89 383 c 0,24,25
 136 442 136 442 210 442 c 0,26,27
 299 442 299 442 344 360 c 1,28,29
 358 389 358 389 391 414 c 0,30,31
 425 439 425 439 458 443 c 1,32,-1
 458 553 l 1,33,-1
 0 553 l 1,34,-1
 0 628 l 1,35,-1
 677 628 l 1,36,-1
 677 553 l 1,4,-1
565 242 m 0,37,38
 566 298 566 298 553 326 c 0,39,40
 536 364 536 364 478 366 c 0,41,42
 430 367 430 367 402 314 c 0,43,44
 397 306 397 306 383 254 c 1,45,46
 383 217 383 217 416 170 c 0,47,48
 445 134 445 134 488 134 c 0,49,50
 523 134 523 134 546 172 c 0,51,52
 563 203 563 203 565 242 c 0,37,38
308 256 m 1,53,54
 302 301 302 301 277 330 c 0,55,56
 248 366 248 366 208 366 c 0,57,58
 124 366 124 366 120 254 c 0,59,60
 118 134 118 134 208 134 c 0,61,62
 251 132 251 132 278 174 c 0,63,64
 301 208 301 208 308 256 c 1,53,54
EndSplineSet
EndChar

StartChar: uni0935
Encoding: 2357 2357 152
Width: 502
GlyphClass: 2
Flags: W
AnchorPoint: "Anchor-0" 422 626 basechar 0
LayerCount: 2
Fore
SplineSet
504 553 m 1,0,-1
 408 553 l 1,1,-1
 408 -8 l 1,2,-1
 333 -8 l 1,3,-1
 333 170 l 1,4,5
 307 150 307 150 296 145 c 0,6,7
 247 121 247 121 204 120 c 0,8,9
 130 119 130 119 76 168 c 0,10,11
 23 217 23 217 21 290 c 0,12,13
 19 359 19 359 67 414 c 0,14,15
 112 466 112 466 184 467 c 0,16,17
 198 467 198 467 270 455 c 1,18,-1
 290 373 l 1,19,20
 272 379 272 379 259 382 c 0,21,22
 223 391 223 391 189 392 c 0,23,24
 147 392 147 392 123 365 c 0,25,26
 97 336 97 336 96 296 c 0,27,28
 95 249 95 249 124 223 c 0,29,30
 152 198 152 198 199 196 c 0,31,32
 250 194 250 194 295 227 c 0,33,34
 326 250 326 250 333 257 c 1,35,-1
 333 553 l 1,36,-1
 0 553 l 1,37,-1
 0 628 l 1,38,-1
 504 628 l 1,39,-1
 504 553 l 1,0,-1
EndSplineSet
EndChar

StartChar: uni0936
Encoding: 2358 2358 153
Width: 661
GlyphClass: 2
Flags: W
LayerCount: 2
Fore
SplineSet
662 553 m 1,0,-1
 583 553 l 1,1,-1
 583 5 l 1,2,-1
 510 5 l 1,3,-1
 510 553 l 1,4,-1
 431 553 l 1,5,-1
 431 626 l 1,6,-1
 662 626 l 1,7,-1
 662 553 l 1,0,-1
433 553 m 1,8,-1
 359 553 l 1,9,10
 398 503 398 503 401 427 c 0,11,12
 403 338 403 338 346 269 c 0,13,14
 284 197 284 197 198 197 c 1,15,-1
 382 37 l 1,16,-1
 331 -16 l 1,17,-1
 41 238 l 1,18,-1
 88 292 l 1,19,-1
 136 251 l 1,20,21
 203 251 203 251 259 289 c 0,22,23
 323 332 323 332 324 396 c 1,24,25
 275 356 275 356 223 354 c 0,26,27
 167 353 167 353 125 382 c 0,28,29
 79 414 79 414 79 470 c 0,30,31
 78 522 78 522 100 553 c 1,32,-1
 0 553 l 1,33,-1
 0 628 l 1,34,-1
 433 628 l 1,35,-1
 433 553 l 1,8,-1
318 473 m 1,36,37
 296 551 296 551 224 553 c 0,38,39
 198 553 198 553 178 533 c 0,40,41
 157 512 157 512 156 487 c 128,-1,42
 155 462 155 462 175 445 c 0,43,44
 198 428 198 428 228 428 c 0,45,46
 250 428 250 428 288 451 c 2,47,-1
 318 473 l 1,36,37
EndSplineSet
EndChar

StartChar: uni0937
Encoding: 2359 2359 154
Width: 489
GlyphClass: 2
Flags: W
LayerCount: 2
Fore
SplineSet
491 553 m 1,0,-1
 416 553 l 1,1,-1
 416 -8 l 1,2,-1
 342 -8 l 1,3,-1
 342 198 l 1,4,5
 299 158 299 158 228 158 c 0,6,7
 155 158 155 158 102 199 c 0,8,9
 43 244 43 244 43 314 c 2,10,-1
 43 553 l 1,11,-1
 0 553 l 1,12,-1
 0 628 l 1,13,-1
 491 628 l 1,14,-1
 491 553 l 1,0,-1
342 337 m 1,15,-1
 342 553 l 1,16,-1
 138 553 l 1,17,-1
 342 337 l 1,15,-1
325 276 m 1,18,-1
 118 496 l 1,19,-1
 118 318 l 2,20,21
 118 278 118 278 152 254 c 0,22,23
 180 234 180 234 224 234 c 0,24,25
 265 234 265 234 290 247 c 0,26,27
 313 260 313 260 325 276 c 1,18,-1
EndSplineSet
EndChar

StartChar: uni0938
Encoding: 2360 2360 155
Width: 682
GlyphClass: 2
Flags: W
LayerCount: 2
Fore
SplineSet
683 553 m 1,0,-1
 610 553 l 1,1,-1
 610 -8 l 1,2,-1
 534 -8 l 1,3,-1
 534 293 l 1,4,-1
 366 293 l 1,5,-1
 338 331 l 1,6,7
 299 286 299 286 229 286 c 0,8,9
 211 286 211 286 203 288 c 1,10,-1
 238 238 l 2,11,12
 258 206 258 206 280 181 c 2,13,-1
 353 94 l 2,14,15
 392 48 392 48 402 42 c 1,16,-1
 350 -13 l 1,17,18
 256 82 256 82 164 212 c 2,19,-1
 29 407 l 1,20,-1
 89 449 l 1,21,-1
 121 402 l 2,22,23
 150 361 150 361 226 360 c 0,24,25
 290 358 290 358 290 408 c 2,26,-1
 290 553 l 1,27,-1
 0 553 l 1,28,-1
 0 628 l 1,29,-1
 683 628 l 1,30,-1
 683 553 l 1,0,-1
534 367 m 1,31,-1
 534 553 l 1,32,-1
 365 553 l 1,33,-1
 365 406 l 2,34,35
 365 388 365 388 359 367 c 1,36,-1
 534 367 l 1,31,-1
EndSplineSet
EndChar

StartChar: uni0939
Encoding: 2361 2361 156
Width: 496
GlyphClass: 2
Flags: W
AnchorPoint: "Anchor-1" 350 -76 basechar 0
AnchorPoint: "Anchor-0" 414 628 basechar 0
LayerCount: 2
Fore
SplineSet
498 553 m 1,0,-1
 421 553 l 1,1,-1
 421 379 l 1,2,-1
 133 379 l 2,3,4
 125 379 125 379 125 372 c 0,5,6
 125 358 125 358 146 326 c 0,7,8
 168 295 168 295 186 280 c 1,9,10
 245 300 245 300 276 300 c 0,11,12
 356 301 356 301 409 268 c 0,13,14
 458 234 458 234 461 164 c 0,15,16
 463 125 463 125 432 92 c 2,17,-1
 400 62 l 1,18,-1
 340 110 l 1,19,20
 384 132 384 132 386 167 c 0,21,22
 386 199 386 199 336 216 c 0,23,24
 305 224 305 224 274 224 c 0,25,26
 218 227 218 227 174 194 c 0,27,28
 128 162 128 162 126 126 c 0,29,30
 126 65 126 65 232 22 c 0,31,32
 308 -8 308 -8 388 -10 c 1,33,-1
 373 -66 l 2,34,35
 368 -71 368 -71 354 -71 c 0,36,37
 314 -71 314 -71 211 -35 c 0,38,39
 53 20 53 20 52 132 c 0,40,41
 50 187 50 187 119 248 c 1,42,43
 46 322 46 322 43 386 c 0,44,45
 41 415 41 415 59 434 c 0,46,47
 76 455 76 455 103 455 c 2,48,-1
 347 455 l 1,49,-1
 347 553 l 1,50,-1
 0 553 l 1,51,-1
 0 628 l 1,52,-1
 498 628 l 1,53,-1
 498 553 l 1,0,-1
EndSplineSet
EndChar

StartChar: uni093B
Encoding: 2363 2363 157
Width: 655
GlyphClass: 2
Flags: W
AnchorPoint: "Anchor-1" 372 -6 basechar 0
AnchorPoint: "Anchor-0" 498 629 basechar 0
LayerCount: 2
Fore
SplineSet
656 553 m 1,0,-1
 503 553 l 1,1,-1
 503 449 l 1,2,3
 617 422 617 422 619 295 c 0,4,5
 620 232 620 232 563 162 c 0,6,7
 522 115 522 115 478 90 c 1,8,-1
 419 134 l 1,9,10
 463 158 463 158 503 209 c 0,11,12
 544 260 544 260 545 304 c 0,13,14
 545 374 545 374 440 377 c 0,15,16
 414 379 414 379 385 354 c 0,17,18
 358 330 358 330 358 296 c 2,19,-1
 358 224 l 1,20,-1
 283 224 l 1,21,-1
 283 311 l 1,22,-1
 259 358 l 1,23,24
 234 377 234 377 208 377 c 0,25,26
 166 378 166 378 142 349 c 0,27,28
 118 319 118 319 118 276 c 0,29,30
 118 197 118 197 191 122 c 0,31,32
 241 71 241 71 275 59 c 1,33,-1
 229 -6 l 1,34,35
 166 20 166 20 100 116 c 0,36,37
 46 196 46 196 43 283 c 0,38,39
 41 352 41 352 88 401 c 0,40,41
 132 452 132 452 199 452 c 0,42,43
 281 452 281 452 326 395 c 1,44,45
 350 446 350 446 427 452 c 1,46,-1
 427 553 l 1,47,-1
 0 553 l 1,48,-1
 0 628 l 1,49,-1
 656 628 l 1,50,-1
 656 553 l 1,0,-1
EndSplineSet
EndChar

StartChar: uni093C
Encoding: 2364 2364 158
Width: 7
GlyphClass: 2
Flags: W
LayerCount: 2
Fore
SplineSet
-266 -84 m 1,0,-1
 -370 -84 l 1,1,-1
 -370 17 l 1,2,-1
 -266 17 l 1,3,-1
 -266 -84 l 1,0,-1
EndSplineSet
EndChar

StartChar: uni093D
Encoding: 2365 2365 159
Width: 453
GlyphClass: 2
Flags: W
LayerCount: 2
Fore
SplineSet
451 140 m 0,0,1
 451 65 451 65 391 23 c 0,2,3
 338 -14 338 -14 260 -16 c 0,4,5
 191 -17 191 -17 102 43 c 0,6,7
 32 90 32 90 24 110 c 1,8,-1
 76 162 l 1,9,10
 166 60 166 60 258 58 c 0,11,12
 301 56 301 56 336 73 c 0,13,14
 378 94 378 94 378 133 c 0,15,16
 378 173 378 173 296 240 c 2,17,-1
 145 364 l 2,18,19
 62 436 62 436 62 485 c 0,20,21
 62 536 62 536 95 569 c 0,22,23
 126 601 126 601 178 601 c 2,24,-1
 414 601 l 1,25,-1
 414 528 l 1,26,-1
 175 528 l 2,27,28
 162 528 162 528 150 517 c 0,29,30
 137 506 137 506 136 490 c 0,31,32
 136 468 136 468 217 401 c 0,33,34
 350 292 350 292 368 275 c 0,35,36
 450 197 450 197 451 140 c 0,0,1
EndSplineSet
EndChar

StartChar: uni093E
Encoding: 2366 2366 160
Width: 217
GlyphClass: 2
Flags: W
LayerCount: 2
Fore
SplineSet
224 554 m 1,0,-1
 145 554 l 1,1,-1
 145 1 l 1,2,-1
 72 1 l 1,3,-1
 72 554 l 1,4,-1
 -34 554 l 1,5,-1
 -34 628 l 1,6,-1
 224 628 l 1,7,-1
 224 554 l 1,0,-1
EndSplineSet
EndChar

StartChar: uni093F
Encoding: 2367 2367 161
Width: 217
GlyphClass: 2
Flags: W
LayerCount: 2
Fore
SplineSet
656 628 m 1,0,-1
 570 628 l 1,1,2
 570 635 570 635 518 683 c 0,3,4
 466 732 466 732 391 775 c 0,5,6
 324 815 324 815 234 815 c 0,7,8
 125 815 125 815 125 702 c 0,9,10
 125 682 125 682 132 652 c 2,11,-1
 139 628 l 1,12,-1
 224 628 l 1,13,-1
 224 554 l 1,14,-1
 145 554 l 1,15,-1
 145 0 l 1,16,-1
 72 0 l 1,17,-1
 72 554 l 1,18,-1
 -7 554 l 1,19,-1
 -7 628 l 1,20,-1
 70 628 l 1,21,22
 52 682 52 682 52 708 c 0,23,24
 52 785 52 785 103 835 c 0,25,26
 156 887 156 887 241 888 c 0,27,28
 346 889 346 889 440 830 c 0,29,30
 548 763 548 763 656 628 c 1,0,-1
EndSplineSet
EndChar

StartChar: uni0940
Encoding: 2368 2368 162
Width: 217
GlyphClass: 2
Flags: W
LayerCount: 2
Fore
SplineSet
224 554 m 1,0,-1
 145 554 l 1,1,-1
 145 1 l 1,2,-1
 72 1 l 1,3,-1
 72 554 l 1,4,-1
 -7 554 l 1,5,-1
 -7 628 l 1,6,-1
 74 628 l 1,7,8
 77 649 77 649 77 659 c 0,9,10
 77 731 77 731 26 770 c 0,11,12
 -14 803 -14 803 -70 803 c 0,13,14
 -110 803 -110 803 -144 785 c 0,15,16
 -181 764 -181 764 -182 732 c 0,17,18
 -182 688 -182 688 -134 628 c 1,19,-1
 -214 628 l 1,20,21
 -256 680 -256 680 -256 737 c 0,22,23
 -256 793 -256 793 -199 835 c 0,24,25
 -144 876 -144 876 -72 876 c 0,26,27
 13 876 13 876 76 824 c 0,28,29
 146 766 146 766 146 660 c 0,30,31
 146 638 146 638 145 628 c 1,32,-1
 224 628 l 1,33,-1
 224 554 l 1,0,-1
EndSplineSet
EndChar

StartChar: uni0941
Encoding: 2369 2369 163
Width: 7
GlyphClass: 2
Flags: W
AnchorPoint: "Anchor-1" -173 6 mark 0
LayerCount: 2
Fore
SplineSet
18 -122 m 0,0,1
 19 -193 19 -193 -48 -236 c 0,2,3
 -104 -272 -104 -272 -180 -272 c 0,4,5
 -308 -272 -308 -272 -395 -162 c 0,6,7
 -437 -108 -437 -108 -473 -5 c 1,8,-1
 -400 -5 l 1,9,10
 -373 -88 -373 -88 -319 -139 c 0,11,12
 -257 -199 -257 -199 -178 -199 c 0,13,14
 -56 -199 -56 -199 -55 -121 c 0,15,16
 -54 -67 -54 -67 -110 -67 c 0,17,18
 -150 -67 -150 -67 -178 -78 c 0,19,20
 -192 -84 -192 -84 -208 -100 c 1,21,-1
 -263 -53 l 1,22,23
 -203 5 -203 5 -118 6 c 0,24,25
 -55 7 -55 7 -19 -26 c 0,26,27
 17 -61 17 -61 18 -122 c 0,0,1
EndSplineSet
EndChar

StartChar: uni0942
Encoding: 2370 2370 164
Width: 4
GlyphClass: 2
Flags: W
AnchorPoint: "Anchor-1" -144 6 mark 0
LayerCount: 2
Fore
SplineSet
167 -262 m 1,0,-1
 94 -262 l 1,1,2
 67 -179 67 -179 13 -127 c 0,3,4
 -49 -67 -49 -67 -128 -67 c 0,5,6
 -250 -67 -250 -67 -251 -145 c 0,7,8
 -252 -199 -252 -199 -196 -199 c 0,9,10
 -156 -199 -156 -199 -128 -188 c 0,11,12
 -115 -184 -115 -184 -98 -167 c 1,13,-1
 -43 -214 l 1,14,15
 -103 -271 -103 -271 -188 -272 c 0,16,17
 -250 -274 -250 -274 -287 -240 c 0,18,19
 -323 -205 -323 -205 -324 -144 c 0,20,21
 -325 -73 -325 -73 -258 -30 c 0,22,23
 -202 6 -202 6 -126 6 c 0,24,25
 4 6 4 6 89 -104 c 0,26,27
 131 -158 131 -158 167 -262 c 1,0,-1
EndSplineSet
EndChar

StartChar: uni0943
Encoding: 2371 2371 165
Width: 7
GlyphClass: 2
Flags: W
AnchorPoint: "Anchor-1" -148 7 mark 0
LayerCount: 2
Fore
SplineSet
-10 -221 m 1,0,1
 -50 -262 -50 -262 -130 -263 c 0,2,3
 -197 -264 -197 -264 -250 -229 c 0,4,5
 -310 -190 -310 -190 -311 -126 c 0,6,7
 -311 -70 -311 -70 -275 -31 c 0,8,9
 -239 6 -239 6 -182 6 c 2,10,-1
 -83 6 l 1,11,-1
 -83 -67 l 1,12,-1
 -169 -67 l 2,13,14
 -236 -67 -236 -67 -238 -122 c 0,15,16
 -239 -156 -239 -156 -204 -174 c 0,17,18
 -176 -190 -176 -190 -140 -190 c 0,19,20
 -106 -190 -106 -190 -79 -178 c 0,21,22
 -77 -176 -77 -176 -49 -160 c 1,23,-1
 -10 -221 l 1,0,1
EndSplineSet
EndChar

StartChar: uni0944
Encoding: 2372 2372 166
Width: 7
GlyphClass: 2
Flags: W
AnchorPoint: "Anchor-1" -122 -32 mark 0
LayerCount: 2
Fore
SplineSet
34 -415 m 1,0,1
 -7 -456 -7 -456 -86 -457 c 0,2,3
 -152 -458 -152 -458 -206 -424 c 0,4,5
 -268 -384 -268 -384 -268 -320 c 0,6,7
 -268 -264 -268 -264 -232 -226 c 128,-1,8
 -196 -188 -196 -188 -139 -188 c 2,9,-1
 -108 -188 l 1,10,-1
 -108 -262 l 1,11,-1
 -126 -262 l 2,12,13
 -193 -262 -193 -262 -194 -317 c 0,14,15
 -196 -349 -196 -349 -161 -368 c 0,16,17
 -133 -384 -133 -384 -97 -384 c 0,18,19
 -62 -384 -62 -384 -36 -372 c 2,20,-1
 -6 -354 l 1,21,-1
 34 -415 l 1,0,1
-10 -221 m 1,22,23
 -50 -262 -50 -262 -130 -263 c 0,24,25
 -197 -264 -197 -264 -250 -229 c 0,26,27
 -310 -190 -310 -190 -311 -126 c 0,28,29
 -311 -70 -311 -70 -275 -31 c 0,30,31
 -239 6 -239 6 -182 6 c 2,32,-1
 -83 6 l 1,33,-1
 -83 -67 l 1,34,-1
 -169 -67 l 2,35,36
 -236 -67 -236 -67 -238 -122 c 0,37,38
 -239 -156 -239 -156 -204 -174 c 0,39,40
 -176 -190 -176 -190 -140 -190 c 0,41,42
 -106 -190 -106 -190 -79 -178 c 2,43,-1
 -49 -160 l 1,44,-1
 -10 -221 l 1,22,23
EndSplineSet
EndChar

StartChar: uni0945
Encoding: 2373 2373 167
Width: 7
GlyphClass: 4
Flags: W
AnchorPoint: "Anchor-0" -117 630 mark 0
LayerCount: 2
Fore
SplineSet
76 847 m 1,0,1
 76 769 76 769 19 721 c 0,2,3
 -37 673 -37 673 -116 672 c 0,4,5
 -193 671 -193 671 -250 721 c 0,6,7
 -305 772 -305 772 -307 847 c 1,8,-1
 -234 847 l 1,9,10
 -234 803 -234 803 -198 774 c 128,-1,11
 -162 745 -162 745 -116 745 c 0,12,13
 -65 745 -65 745 -32 772 c 0,14,15
 0 798 0 798 1 847 c 1,16,-1
 76 847 l 1,0,1
EndSplineSet
EndChar

StartChar: uni0946
Encoding: 2374 2374 168
Width: 87
GlyphClass: 4
Flags: W
AnchorPoint: "Anchor-0" 91 627 mark 0
LayerCount: 2
Fore
SplineSet
71 626 m 1,0,-1
 6 628 l 1,1,-1
 6 678 l 2,2,3
 6 733 6 733 -44 740 c 0,4,5
 -61 743 -61 743 -78 738 c 0,6,7
 -173 713 -173 713 -191 710 c 0,8,9
 -236 706 -236 706 -268 726 c 0,10,11
 -308 752 -308 752 -308 798 c 2,12,-1
 -308 877 l 1,13,-1
 -241 877 l 1,14,-1
 -241 822 l 2,15,16
 -241 776 -241 776 -200 775 c 0,17,18
 -184 774 -184 774 -116 794 c 0,19,20
 -55 812 -55 812 -17 800 c 0,21,22
 44 781 44 781 64 739 c 0,23,24
 70 727 70 727 70 714 c 2,25,-1
 71 626 l 1,0,-1
EndSplineSet
EndChar

StartChar: uni0947
Encoding: 2375 2375 169
Width: 7
GlyphClass: 2
Flags: W
AnchorPoint: "Anchor-0" -66 597 mark 0
LayerCount: 2
Fore
SplineSet
-78 601 m 1,0,-1
 -155 601 l 1,1,-1
 -397 845 l 1,2,-1
 -335 905 l 1,3,-1
 -78 601 l 1,0,-1
EndSplineSet
EndChar

StartChar: uni0948
Encoding: 2376 2376 170
Width: 7
GlyphClass: 4
Flags: W
AnchorPoint: "Anchor-0" -66 603 mark 0
LayerCount: 2
Fore
SplineSet
-74 602 m 1,0,-1
 -138 602 l 1,1,-1
 -446 760 l 1,2,-1
 -396 816 l 1,3,-1
 -178 680 l 1,4,-1
 -280 895 l 1,5,-1
 -216 931 l 1,6,-1
 -74 602 l 1,0,-1
EndSplineSet
EndChar

StartChar: uni0949
Encoding: 2377 2377 171
Width: 230
GlyphClass: 2
Flags: W
LayerCount: 2
Fore
SplineSet
224 554 m 1,0,-1
 145 554 l 1,1,-1
 145 1 l 1,2,-1
 72 1 l 1,3,-1
 72 554 l 1,4,-1
 -7 554 l 1,5,-1
 -7 628 l 1,6,-1
 224 628 l 1,7,-1
 224 554 l 1,0,-1
308 860 m 1,8,9
 308 782 308 782 252 734 c 128,-1,10
 196 686 196 686 116 685 c 0,11,12
 40 684 40 684 -17 734 c 0,13,14
 -72 785 -72 785 -74 860 c 1,15,-1
 -1 860 l 1,16,17
 -1 816 -1 816 35 787 c 128,-1,18
 71 758 71 758 116 758 c 0,19,20
 168 758 168 758 200 785 c 0,21,22
 233 811 233 811 234 860 c 1,23,-1
 308 860 l 1,8,9
EndSplineSet
EndChar

StartChar: uni094A
Encoding: 2378 2378 172
Width: 240
GlyphClass: 2
Flags: W
LayerCount: 2
Fore
SplineSet
241 554 m 1,0,-1
 162 554 l 1,1,-1
 162 6 l 1,2,-1
 89 6 l 1,3,-1
 89 554 l 1,4,-1
 10 554 l 1,5,-1
 10 628 l 1,6,-1
 241 628 l 1,7,-1
 241 554 l 1,0,-1
151 630 m 1,8,-1
 86 631 l 1,9,-1
 86 682 l 2,10,11
 86 737 86 737 36 744 c 0,12,13
 19 746 19 746 2 742 c 0,14,15
 -92 716 -92 716 -110 714 c 0,16,17
 -156 709 -156 709 -187 730 c 0,18,19
 -228 756 -228 756 -228 802 c 2,20,-1
 -228 881 l 1,21,-1
 -161 881 l 1,22,-1
 -161 826 l 2,23,24
 -161 780 -161 780 -120 779 c 0,25,26
 -103 778 -103 778 -36 798 c 0,27,28
 25 816 25 816 64 804 c 0,29,30
 125 785 125 785 144 743 c 0,31,32
 150 731 150 731 150 718 c 2,33,-1
 151 630 l 1,8,-1
EndSplineSet
EndChar

StartChar: uni094B
Encoding: 2379 2379 173
Width: 217
GlyphClass: 2
Flags: W
LayerCount: 2
Fore
SplineSet
216 554 m 1,0,-1
 137 554 l 1,1,-1
 137 1 l 1,2,-1
 64 1 l 1,3,-1
 64 554 l 1,4,-1
 -15 554 l 1,5,-1
 -15 628 l 1,6,-1
 47 628 l 1,7,-1
 -183 859 l 1,8,-1
 -121 919 l 1,9,-1
 125 628 l 1,10,-1
 216 628 l 1,11,-1
 216 554 l 1,0,-1
EndSplineSet
EndChar

StartChar: uni094C
Encoding: 2380 2380 174
Width: 217
GlyphClass: 2
Flags: W
LayerCount: 2
Fore
SplineSet
224 554 m 1,0,-1
 145 554 l 1,1,-1
 145 1 l 1,2,-1
 72 1 l 1,3,-1
 72 554 l 1,4,-1
 -7 554 l 1,5,-1
 -7 628 l 1,6,-1
 60 628 l 1,7,-1
 -217 773 l 1,8,-1
 -167 829 l 1,9,-1
 52 694 l 1,10,-1
 -50 908 l 1,11,-1
 13 944 l 1,12,-1
 140 628 l 1,13,-1
 224 628 l 1,14,-1
 224 554 l 1,0,-1
EndSplineSet
EndChar

StartChar: uni094D
Encoding: 2381 2381 175
Width: 7
GlyphClass: 4
Flags: W
AnchorPoint: "Anchor-1" -153 -24 mark 0
LayerCount: 2
Fore
SplineSet
58 -203 m 1,0,-1
 25 -236 l 1,1,-1
 -166 -26 l 1,2,-1
 -77 -26 l 1,3,-1
 58 -203 l 1,0,-1
EndSplineSet
EndChar

StartChar: uni094F
Encoding: 2383 2383 176
Width: 7
GlyphClass: 2
Flags: W
LayerCount: 2
Fore
SplineSet
92 845 m 1,0,-1
 -78 601 l 1,1,-1
 -155 601 l 1,2,-1
 30 905 l 1,3,-1
 92 845 l 1,0,-1
EndSplineSet
EndChar

StartChar: uni0950
Encoding: 2384 2384 177
Width: 860
GlyphClass: 2
Flags: W
LayerCount: 2
Fore
SplineSet
650 694 m 1,0,-1
 566 694 l 1,1,-1
 566 772 l 1,2,-1
 650 772 l 1,3,-1
 650 694 l 1,0,-1
827 755 m 1,4,5
 827 667 827 667 761 610 c 0,6,7
 696 553 696 553 607 553 c 0,8,9
 520 553 520 553 455 610 c 128,-1,10
 390 667 390 667 390 755 c 1,11,-1
 462 755 l 1,12,13
 462 701 462 701 509 662 c 0,14,15
 552 628 552 628 607 626 c 0,16,17
 653 625 653 625 701 659 c 0,18,19
 754 696 754 696 755 755 c 1,20,-1
 827 755 l 1,4,5
844 230 m 0,21,22
 845 150 845 150 810 91 c 0,23,24
 769 22 769 22 694 22 c 0,25,26
 635 22 635 22 592 72 c 1,27,-1
 624 144 l 1,28,29
 635 128 635 128 644 120 c 0,30,31
 670 95 670 95 694 95 c 0,32,33
 732 95 732 95 754 134 c 0,34,35
 772 167 772 167 772 209 c 0,36,37
 772 362 772 362 689 365 c 0,38,39
 667 365 667 365 598 286 c 0,40,41
 527 205 527 205 452 205 c 2,42,-1
 433 206 l 1,43,-1
 442 180 l 1,44,-1
 444 154 l 1,45,46
 444 78 444 78 402 36 c 0,47,48
 360 -5 360 -5 286 -6 c 0,49,50
 176 -7 176 -7 58 181 c 0,51,52
 22 239 22 239 22 250 c 1,53,-1
 80 284 l 1,54,55
 119 215 119 215 148 176 c 0,56,57
 229 68 229 68 288 67 c 0,58,59
 370 66 370 66 371 154 c 0,60,61
 372 202 372 202 341 230 c 0,62,63
 308 258 308 258 259 259 c 2,64,-1
 235 259 l 1,65,-1
 209 251 l 1,66,-1
 172 324 l 1,67,68
 220 324 220 324 264 348 c 0,69,70
 316 376 316 376 317 420 c 0,71,72
 318 457 318 457 300 482 c 0,73,74
 281 509 281 509 246 510 c 0,75,76
 208 511 208 511 161 475 c 1,77,-1
 122 439 l 1,78,-1
 65 480 l 1,79,80
 65 486 65 486 95 515 c 0,81,82
 167 583 167 583 248 583 c 0,83,84
 311 583 311 583 350.5 535 c 128,-1,85
 390 487 390 487 390 424 c 0,86,87
 390 352 390 352 336 313 c 1,88,-1
 362 304 l 2,89,90
 379 298 379 298 398 286 c 0,91,92
 422 275 422 275 440 275 c 0,93,94
 482 275 482 275 564 355 c 0,95,96
 644 437 644 437 691 438 c 0,97,98
 762 439 762 439 805 373 c 0,99,100
 842 317 842 317 844 230 c 0,21,22
EndSplineSet
EndChar

StartChar: uni0951
Encoding: 2385 2385 178
Width: 16
GlyphClass: 4
Flags: W
AnchorPoint: "Anchor-0" -87 501 mark 0
LayerCount: 2
Fore
SplineSet
-54 842 m 1,0,-1
 -54 536 l 1,1,-1
 -124 536 l 1,2,-1
 -124 841 l 1,3,-1
 -54 842 l 1,0,-1
EndSplineSet
EndChar

StartChar: uni0952
Encoding: 2386 2386 179
Width: 0
GlyphClass: 4
Flags: W
LayerCount: 2
Fore
SplineSet
6 -263 m 1,0,-1
 -557 -263 l 1,1,-1
 -557 -211 l 1,2,-1
 6 -211 l 1,3,-1
 6 -263 l 1,0,-1
EndSplineSet
EndChar

StartChar: uni0953
Encoding: 2387 2387 180
Width: 10
GlyphClass: 4
Flags: W
LayerCount: 2
Fore
SplineSet
-211 870 m 1,0,-1
 -262 865 l 1,1,-1
 -307 934 l 2,2,3
 -322 955 -322 955 -335 961 c 1,4,-1
 -335 961 l 1,5,-1
 -335 961 l 1,6,-1
 -336 962 l 1,7,-1
 -336 962 l 1,8,-1
 -338 962 l 1,9,-1
 -338 964 l 1,10,-1
 -388 966 l 2,11,12
 -437 966 -437 966 -479 943 c 1,13,14
 -457 992 -457 992 -422 1030 c 1,15,-1
 -389 1032 l 2,16,17
 -326 1032 -326 1032 -300 1015 c 0,18,19
 -280 1002 -280 1002 -254 953 c 2,20,-1
 -211 870 l 1,0,-1
EndSplineSet
EndChar

StartChar: uni0954
Encoding: 2388 2388 181
Width: 10
GlyphClass: 4
Flags: W
LayerCount: 2
Fore
SplineSet
131 863 m 1,0,-1
 180 857 l 1,1,2
 226 907 226 907 241 918 c 2,3,-1
 276 934 l 1,4,5
 301 941 301 941 316 948 c 1,6,7
 362 948 362 948 407 924 c 1,8,9
 385 973 385 973 350 1010 c 1,10,-1
 317 1013 l 1,11,12
 245 994 245 994 220 977 c 0,13,14
 199 962 199 962 184 941 c 1,15,-1
 181 938 l 1,16,-1
 180 937 l 1,17,-1
 131 863 l 1,0,-1
EndSplineSet
EndChar

StartChar: uni0955
Encoding: 2389 2389 182
Width: 13
GlyphClass: 4
Flags: W
LayerCount: 2
Fore
SplineSet
211 776 m 1,0,-1
 120 776 l 1,1,-1
 120 864 l 1,2,-1
 211 864 l 1,3,-1
 211 776 l 1,0,-1
324 798 m 1,4,5
 324 730 324 730 276 686 c 0,6,7
 228 643 228 643 161 643 c 0,8,9
 96 642 96 642 48 686 c 0,10,11
 0 731 0 731 -1 798 c 1,12,-1
 61 798 l 1,13,14
 61 760 61 760 91 733 c 0,15,16
 122 708 122 708 161 708 c 0,17,18
 205 708 205 708 232 731 c 0,19,20
 259 755 259 755 260 798 c 1,21,-1
 324 798 l 1,4,5
EndSplineSet
Ligature2: "'abvs' Above Base Substitutions in Devanagari lookup 10 subtable" uni0945 uni0902
EndChar

StartChar: uni0958
Encoding: 2392 2392 183
Width: 769
GlyphClass: 3
Flags: W
AnchorPoint: "Anchor-1" 394 -6 basechar 0
AnchorPoint: "Anchor-0" 436 624 basechar 0
LayerCount: 2
Fore
SplineSet
209 -66 m 1,0,-1
 133 -66 l 1,1,-1
 133 4 l 1,2,-1
 209 4 l 1,3,-1
 209 -66 l 1,0,-1
767 553 m 1,4,-1
 430 553 l 1,5,-1
 430 371 l 1,6,7
 486 450 486 450 551 452 c 0,8,9
 620 454 620 454 667 407 c 0,10,11
 713 361 713 361 715 293 c 0,12,13
 718 235 718 235 654 145 c 0,14,15
 636 120 636 120 592 70 c 1,16,-1
 520 119 l 1,17,18
 547 133 547 133 587 182 c 0,19,20
 638 244 638 244 641 298 c 0,21,22
 641 331 641 331 617 354 c 128,-1,23
 593 377 593 377 558 377 c 0,24,25
 505 379 505 379 430 256 c 1,26,-1
 430 -8 l 1,27,-1
 355 -8 l 1,28,-1
 355 162 l 1,29,30
 305 110 305 110 226 108 c 0,31,32
 154 107 154 107 98 156 c 0,33,34
 44 204 44 204 43 277 c 0,35,36
 42 348 42 348 89 401 c 128,-1,37
 136 454 136 454 206 455 c 0,38,39
 208 455 208 455 292 443 c 1,40,-1
 312 361 l 1,41,42
 282 370 282 370 281 370 c 0,43,44
 242 379 242 379 211 379 c 0,45,46
 170 382 170 382 145 353 c 0,47,48
 120 325 120 325 118 284 c 0,49,50
 118 236 118 236 146 211 c 0,51,52
 176 184 176 184 221 184 c 0,53,54
 257 184 257 184 295 204 c 0,55,56
 334 226 334 226 355 258 c 1,57,-1
 355 553 l 1,58,-1
 0 553 l 1,59,-1
 0 628 l 1,60,-1
 767 628 l 1,61,-1
 767 553 l 1,4,-1
EndSplineSet
Ligature2: "'nukt' Nukta Forms in Devanagari lookup 1 subtable" uni0915 uni093C
EndChar

StartChar: uni0959
Encoding: 2393 2393 184
Width: 798
GlyphClass: 3
Flags: W
LayerCount: 2
Fore
SplineSet
799 553 m 1,0,-1
 725 553 l 1,1,-1
 725 -8 l 1,2,-1
 650 -8 l 1,3,-1
 650 116 l 1,4,5
 616 88 616 88 587 76 c 1,6,-1
 586 76 l 1,7,-1
 586 76 l 1,8,-1
 533 56 l 2,9,10
 458 31 458 31 431 30 c 2,11,-1
 402 30 l 2,12,13
 323 30 323 30 299 40 c 0,14,15
 294 42 294 42 288 44 c 2,16,-1
 242 72 l 2,17,18
 179 113 179 113 161 136 c 0,19,20
 142 158 142 158 96 257 c 0,21,22
 88 276 88 276 66 334 c 0,23,24
 43 396 43 396 43 407 c 1,25,-1
 104 443 l 1,26,-1
 119 396 l 2,27,28
 128 368 128 368 138 365 c 2,29,-1
 139 365 l 1,30,-1
 140 365 l 1,31,-1
 140 364 l 1,32,33
 149 362 149 362 178 361 c 0,34,35
 211 360 211 360 217 368 c 1,36,-1
 217 370 l 1,37,38
 221 376 221 376 224 408 c 2,39,-1
 224 553 l 1,40,-1
 0 553 l 1,41,-1
 0 628 l 1,42,-1
 799 628 l 1,43,-1
 799 553 l 1,0,-1
420 -144 m 1,44,-1
 344 -144 l 1,45,-1
 344 -75 l 1,46,-1
 420 -75 l 1,47,-1
 420 -144 l 1,44,-1
650 205 m 1,48,-1
 650 257 l 1,49,50
 610 221 610 221 588 214 c 0,51,52
 575 210 575 210 527 210 c 0,53,54
 475 210 475 210 460 220 c 1,55,-1
 458 220 l 1,56,-1
 458 220 l 1,57,58
 380 251 380 251 390 289 c 1,59,-1
 390 289 l 1,60,-1
 390 289 l 1,61,-1
 390 290 l 2,62,63
 390 292 390 292 388 302 c 0,64,65
 386 311 386 311 386 341 c 0,66,67
 385 390 385 390 395 404 c 2,68,-1
 400 409 l 1,69,70
 407 432 407 432 428 450 c 0,71,72
 457 476 457 476 482 476 c 2,73,-1
 484 476 l 2,74,75
 494 479 494 479 532 479 c 0,76,77
 562 479 562 479 582 469 c 1,78,-1
 582 469 l 1,79,-1
 582 469 l 1,80,81
 586 468 586 468 593 464 c 1,82,-1
 614 392 l 1,83,84
 546 398 546 398 539 404 c 1,85,86
 513 395 513 395 469 395 c 2,87,-1
 468 395 l 1,88,-1
 468 394 l 1,89,-1
 467 394 l 1,90,-1
 467 392 l 1,91,92
 451 387 451 387 450 350 c 0,93,94
 446 294 446 294 468 294 c 2,95,-1
 469 294 l 1,96,-1
 469 294 l 1,97,98
 517 279 517 279 536 278 c 0,99,100
 583 276 583 276 608 294 c 0,101,102
 622 302 622 302 650 342 c 1,103,-1
 650 553 l 1,104,-1
 300 553 l 1,105,-1
 300 394 l 2,106,107
 300 360 300 360 290 343 c 1,108,-1
 276 329 l 1,109,-1
 275 328 l 2,110,111
 272 325 272 325 264 318 c 0,112,113
 230 290 230 290 214 288 c 1,114,-1
 214 288 l 1,115,-1
 212 288 l 2,116,117
 205 287 205 287 184 287 c 2,118,-1
 166 289 l 1,119,120
 183 231 183 231 198 216 c 2,121,-1
 199 215 l 1,122,-1
 199 214 l 1,123,-1
 200 212 l 1,124,-1
 202 212 l 1,125,126
 209 204 209 204 232 180 c 0,127,128
 285 123 285 123 302 116 c 2,129,-1
 307 114 l 2,130,131
 312 112 312 112 318 110 c 0,132,133
 338 106 338 106 407 104 c 0,134,135
 455 103 455 103 482 115 c 0,136,137
 499 122 499 122 557 151 c 0,138,139
 618 182 618 182 650 205 c 1,48,-1
EndSplineSet
Ligature2: "'nukt' Nukta Forms in Devanagari lookup 1 subtable" uni0916 uni093C
EndChar

StartChar: uni095A
Encoding: 2394 2394 185
Width: 535
GlyphClass: 3
Flags: W
LayerCount: 2
Fore
SplineSet
179 56 m 1,0,-1
 103 56 l 1,1,-1
 103 124 l 1,2,-1
 179 124 l 1,3,-1
 179 56 l 1,0,-1
535 553 m 1,4,-1
 462 553 l 1,5,-1
 462 -8 l 1,6,-1
 388 -8 l 1,7,-1
 388 553 l 1,8,-1
 218 553 l 1,9,-1
 218 271 l 2,10,11
 218 246 218 246 216 242 c 0,12,13
 211 218 211 218 187 217 c 0,14,15
 154 217 154 217 98 272 c 0,16,17
 46 328 46 328 43 362 c 0,18,19
 41 388 41 388 84 391 c 2,20,-1
 144 391 l 1,21,-1
 144 553 l 1,22,-1
 0 553 l 1,23,-1
 0 628 l 1,24,-1
 535 628 l 1,25,-1
 535 553 l 1,4,-1
EndSplineSet
Ligature2: "'nukt' Nukta Forms in Devanagari lookup 1 subtable" uni0917 uni093C
EndChar

StartChar: uni095B
Encoding: 2395 2395 186
Width: 720
GlyphClass: 3
Flags: W
LayerCount: 2
Fore
SplineSet
356 -63 m 1,0,-1
 281 -63 l 1,1,-1
 281 7 l 1,2,-1
 356 7 l 1,3,-1
 356 -63 l 1,0,-1
720 553 m 1,4,-1
 647 553 l 1,5,-1
 647 -8 l 1,6,-1
 571 -8 l 1,7,-1
 571 359 l 1,8,-1
 422 359 l 1,9,10
 458 317 458 317 458 259 c 0,11,12
 458 187 458 187 421 149 c 0,13,14
 384 109 384 109 313 107 c 0,15,16
 173 106 173 106 72 336 c 0,17,18
 43 403 43 403 43 421 c 1,19,-1
 103 464 l 1,20,21
 118 372 118 372 194 266 c 0,22,23
 256 182 256 182 319 182 c 0,24,25
 383 182 383 182 383 254 c 0,26,27
 385 296 385 296 340 364 c 0,28,29
 326 379 326 379 295 421 c 1,30,-1
 295 433 l 1,31,-1
 571 433 l 1,32,-1
 571 553 l 1,33,-1
 0 553 l 1,34,-1
 0 628 l 1,35,-1
 720 628 l 1,36,-1
 720 553 l 1,4,-1
EndSplineSet
Ligature2: "'nukt' Nukta Forms in Devanagari lookup 1 subtable" uni091C uni093C
EndChar

StartChar: uni095C
Encoding: 2396 2396 187
Width: 628
GlyphClass: 3
Flags: W
AnchorPoint: "Anchor-0" 536 628 basechar 0
LayerCount: 2
Fore
SplineSet
244 -121 m 1,0,-1
 169 -121 l 1,1,-1
 169 -52 l 1,2,-1
 244 -52 l 1,3,-1
 244 -121 l 1,0,-1
629 553 m 1,4,-1
 538 553 l 1,5,-1
 538 379 l 1,6,-1
 280 379 l 1,7,-1
 307 318 l 1,8,9
 356 258 356 258 384 265 c 2,10,-1
 466 286 l 1,11,-1
 520 292 l 2,12,13
 545 292 545 292 569 250 c 0,14,15
 588 212 588 212 588 184 c 0,16,17
 589 95 589 95 538 44 c 0,18,19
 485 -5 485 -5 397 -6 c 0,20,21
 248 -7 248 -7 95 198 c 0,22,23
 47 262 47 262 46 272 c 1,24,-1
 97 320 l 1,25,26
 83 287 83 287 239 148 c 0,27,28
 324 70 324 70 397 67 c 0,29,30
 512 67 512 67 514 181 c 0,31,32
 516 212 516 212 481 216 c 0,33,34
 467 216 467 216 413 199 c 0,35,36
 400 194 400 194 376 191 c 0,37,38
 317 191 317 191 253 266 c 0,39,40
 197 336 197 336 197 386 c 0,41,42
 194 413 194 413 216 434 c 0,43,44
 239 455 239 455 265 455 c 2,45,-1
 463 455 l 1,46,-1
 463 553 l 1,47,-1
 2 553 l 1,48,-1
 2 628 l 1,49,-1
 629 628 l 1,50,-1
 629 553 l 1,4,-1
EndSplineSet
Ligature2: "'nukt' Nukta Forms in Devanagari lookup 1 subtable" uni0921 uni093C
EndChar

StartChar: uni095D
Encoding: 2397 2397 188
Width: 549
GlyphClass: 3
Flags: W
AnchorPoint: "Anchor-0" 434 630 basechar 0
LayerCount: 2
Fore
SplineSet
314 -139 m 1,0,-1
 239 -139 l 1,1,-1
 239 -70 l 1,2,-1
 314 -70 l 1,3,-1
 314 -139 l 1,0,-1
551 553 m 1,4,-1
 439 553 l 1,5,-1
 439 371 l 1,6,-1
 218 371 l 2,7,8
 175 371 175 371 150 338 c 128,-1,9
 125 305 125 305 125 260 c 0,10,11
 125 179 125 179 192 121 c 0,12,13
 240 82 240 82 295 68 c 1,14,15
 270 104 270 104 268 154 c 0,16,17
 268 216 268 216 312 252 c 0,18,19
 341 274 341 274 385 274 c 0,20,21
 436 275 436 275 474 239 c 0,22,23
 512 200 512 200 514 146 c 0,24,25
 516 72 516 72 456 31 c 0,26,27
 404 -6 404 -6 326 -6 c 0,28,29
 220 -6 220 -6 134 72 c 0,30,31
 50 149 50 149 50 258 c 0,32,33
 50 329 50 329 94 385 c 0,34,35
 139 446 139 446 208 446 c 2,36,-1
 364 446 l 1,37,-1
 364 553 l 1,38,-1
 0 553 l 1,39,-1
 0 628 l 1,40,-1
 551 628 l 1,41,-1
 551 553 l 1,4,-1
439 138 m 0,42,43
 439 197 439 197 388 199 c 0,44,45
 341 202 341 202 341 146 c 0,46,47
 341 96 341 96 376 68 c 1,48,49
 398 73 398 73 418 95 c 0,50,51
 436 115 436 115 439 138 c 0,42,43
EndSplineSet
Ligature2: "'nukt' Nukta Forms in Devanagari lookup 1 subtable" uni0922 uni093C
EndChar

StartChar: uni095E
Encoding: 2398 2398 189
Width: 746
GlyphClass: 3
Flags: W
AnchorPoint: "Anchor-1" 372 -8 basechar 0
AnchorPoint: "Anchor-0" 416 628 basechar 0
LayerCount: 2
Fore
SplineSet
244 14 m 1,0,-1
 169 14 l 1,1,-1
 169 83 l 1,2,-1
 244 83 l 1,3,-1
 244 14 l 1,0,-1
751 553 m 1,4,-1
 416 553 l 1,5,-1
 416 362 l 1,6,7
 485 427 485 427 536 427 c 0,8,9
 607 430 607 430 654 382 c 0,10,11
 700 337 700 337 702 268 c 0,12,13
 702 210 702 210 641 120 c 0,14,15
 619 91 619 91 577 46 c 1,16,-1
 506 95 l 1,17,18
 538 112 538 112 574 157 c 0,19,20
 626 221 626 221 626 272 c 0,21,22
 628 305 628 305 602 329 c 128,-1,23
 576 353 576 353 545 353 c 0,24,25
 522 353 522 353 491 329 c 0,26,27
 473 317 473 317 416 264 c 1,28,-1
 416 -8 l 1,29,-1
 342 -8 l 1,30,-1
 342 206 l 1,31,32
 292 170 292 170 228 170 c 0,33,34
 157 170 157 170 102 211 c 0,35,36
 43 256 43 256 43 326 c 2,37,-1
 43 553 l 1,38,-1
 0 553 l 1,39,-1
 0 628 l 1,40,-1
 751 628 l 1,41,-1
 751 553 l 1,4,-1
342 295 m 1,42,-1
 342 553 l 1,43,-1
 118 553 l 1,44,-1
 118 330 l 2,45,46
 118 290 118 290 152 266 c 0,47,48
 182 246 182 246 224 246 c 0,49,50
 286 246 286 246 342 295 c 1,42,-1
EndSplineSet
Ligature2: "'nukt' Nukta Forms in Devanagari lookup 1 subtable" uni092B uni093C
EndChar

StartChar: uni095F
Encoding: 2399 2399 190
Width: 568
GlyphClass: 3
Flags: W
LayerCount: 2
Fore
SplineSet
256 -21 m 1,0,-1
 180 -21 l 1,1,-1
 180 48 l 1,2,-1
 256 48 l 1,3,-1
 256 -21 l 1,0,-1
569 553 m 1,4,-1
 496 553 l 1,5,-1
 496 -8 l 1,6,-1
 420 -8 l 1,7,-1
 420 215 l 1,8,9
 358 161 358 161 274 161 c 0,10,11
 176 161 176 161 110 224 c 0,12,13
 46 287 46 287 43 386 c 1,14,15
 47 386 47 386 65 380 c 2,16,-1
 94 376 l 1,17,18
 133 376 133 376 162 397 c 0,19,20
 190 419 190 419 192 458 c 0,21,22
 192 498 192 498 160 530 c 0,23,24
 154 539 154 539 134 553 c 1,25,-1
 0 553 l 1,26,-1
 0 628 l 1,27,-1
 569 628 l 1,28,-1
 569 553 l 1,4,-1
420 318 m 1,29,-1
 420 553 l 1,30,-1
 224 553 l 1,31,32
 266 508 266 508 266 456 c 128,-1,33
 266 404 266 404 232 360 c 0,34,35
 197 314 197 314 145 313 c 1,36,37
 173 236 173 236 268 236 c 0,38,39
 329 235 329 235 383 280 c 0,40,41
 394 288 394 288 420 318 c 1,29,-1
EndSplineSet
Ligature2: "'nukt' Nukta Forms in Devanagari lookup 1 subtable" uni092F uni093C
EndChar

StartChar: uni0960
Encoding: 2400 2400 191
Width: 921
GlyphClass: 3
Flags: W
LayerCount: 2
Fore
SplineSet
920 -149 m 1,0,1
 880 -190 880 -190 800 -191 c 0,2,3
 734 -192 734 -192 680 -157 c 0,4,5
 619 -118 619 -118 619 -54 c 0,6,7
 619 2 619 2 655 41 c 0,8,9
 691 78 691 78 748 78 c 2,10,-1
 761 78 l 1,11,-1
 761 5 l 1,12,-1
 761 5 l 1,13,14
 694 5 694 5 692 -50 c 0,15,16
 691 -83 691 -83 726 -102 c 0,17,18
 754 -118 754 -118 790 -118 c 0,19,20
 824 -118 824 -118 851 -106 c 2,21,-1
 881 -88 l 1,22,-1
 920 -149 l 1,0,1
922 554 m 1,23,-1
 533 554 l 1,24,-1
 533 324 l 1,25,-1
 660 378 l 1,26,-1
 658 404 l 1,27,28
 658 480 658 480 726 480 c 0,29,30
 752 480 752 480 768 455 c 0,31,32
 780 433 780 433 780 404 c 0,33,34
 780 359 780 359 750 330 c 1,35,-1
 805 229 l 1,36,37
 763 229 763 229 725 208 c 0,38,39
 682 182 682 182 680 144 c 0,40,41
 680 112 680 112 701 96 c 0,42,43
 720 79 720 79 755 78 c 128,-1,44
 790 77 790 77 804 84 c 0,45,46
 823 94 823 94 828 124 c 1,47,-1
 886 61 l 1,48,49
 828 4 828 4 748 4 c 0,50,51
 683 4 683 4 646 41 c 0,52,53
 608 79 608 79 607 144 c 0,54,55
 606 187 606 187 634 221 c 0,56,57
 660 256 660 256 702 265 c 1,58,-1
 679 307 l 1,59,-1
 533 245 l 1,60,-1
 533 6 l 1,61,-1
 460 6 l 1,62,-1
 460 218 l 1,63,-1
 182 59 l 1,64,-1
 138 118 l 1,65,-1
 401 270 l 1,66,67
 301 380 301 380 270 385 c 1,68,69
 242 385 242 385 162 346 c 0,70,71
 142 336 142 336 86 306 c 1,72,-1
 42 362 l 1,73,74
 48 374 48 374 151 415 c 0,75,76
 254 457 254 457 277 458 c 0,77,78
 308 460 308 460 391 384 c 0,79,80
 413 364 413 364 460 316 c 1,81,-1
 460 554 l 1,82,-1
 0 554 l 1,83,-1
 0 628 l 1,84,-1
 922 628 l 1,85,-1
 922 554 l 1,23,-1
EndSplineSet
EndChar

StartChar: uni0961
Encoding: 2401 2401 192
Width: 640
GlyphClass: 3
Flags: W
LayerCount: 2
Fore
SplineSet
466 102 m 1,0,-1
 467 102 l 1,1,-1
 456 95 l 1,2,-1
 456 95 l 1,3,-1
 455 95 l 1,4,-1
 455 94 l 1,5,6
 439 78 439 78 437 40 c 0,7,8
 438 16 438 16 470 -12 c 1,9,10
 498 -28 498 -28 534 -28 c 0,11,12
 569 -28 569 -28 595 -16 c 2,13,-1
 625 2 l 1,14,-1
 665 -59 l 1,15,16
 620 -103 620 -103 545 -101 c 0,17,18
 473 -98 473 -98 425 -67 c 0,19,20
 364 -28 364 -28 364 36 c 0,21,22
 364 90 364 90 403 139 c 1,23,-1
 409 145 l 1,24,-1
 466 102 l 1,0,-1
690 -256 m 1,25,26
 649 -296 649 -296 570 -298 c 0,27,28
 504 -299 504 -299 450 -264 c 0,29,30
 390 -224 390 -224 389 -161 c 0,31,32
 389 -104 389 -104 425 -66 c 0,33,34
 461 -29 461 -29 517 -29 c 2,35,-1
 548 -29 l 1,36,-1
 548 -102 l 1,37,-1
 530 -102 l 2,38,39
 463 -102 463 -102 462 -157 c 0,40,41
 461 -191 461 -191 496 -209 c 0,42,43
 523 -224 523 -224 559 -224 c 0,44,45
 594 -224 594 -224 620 -212 c 2,46,-1
 650 -194 l 1,47,-1
 690 -256 l 1,25,26
641 554 m 1,48,-1
 491 554 l 1,49,-1
 491 452 l 1,50,51
 604 426 604 426 605 302 c 0,52,53
 606 239 606 239 550 173 c 0,54,55
 511 128 511 128 467 102 c 1,56,-1
 409 145 l 1,57,58
 451 168 451 168 491 218 c 0,59,60
 530 268 530 268 532 311 c 0,61,62
 533 380 533 380 430 383 c 0,63,64
 402 384 402 384 375.5 360 c 128,-1,65
 349 336 349 336 349 304 c 2,66,-1
 349 234 l 1,67,-1
 276 234 l 1,68,-1
 276 318 l 2,69,70
 276 346 276 346 253 364 c 128,-1,71
 230 382 230 382 203 383 c 0,72,73
 161 384 161 384 138 355 c 0,74,75
 115 328 115 328 115 284 c 0,76,77
 115 208 115 208 186 134 c 0,78,79
 238 82 238 82 269 72 c 1,80,-1
 224 8 l 1,81,82
 164 32 164 32 97 128 c 0,83,84
 43 206 43 206 42 290 c 0,85,86
 41 356 41 356 85 406 c 0,87,88
 130 456 130 456 194 456 c 0,89,90
 275 456 275 456 319 400 c 1,91,92
 342 451 342 451 418 456 c 1,93,-1
 418 554 l 1,94,-1
 0 554 l 1,95,-1
 0 628 l 1,96,-1
 641 628 l 1,97,-1
 641 554 l 1,48,-1
EndSplineSet
EndChar

StartChar: uni0962
Encoding: 2402 2402 193
Width: 640
GlyphClass: 4
Flags: W
AnchorPoint: "Anchor-0" 412 370 mark 0
LayerCount: 2
Fore
SplineSet
441 97 m 1,0,-1
 442 97 l 1,1,-1
 434 92 l 1,2,-1
 434 92 l 1,3,-1
 433 92 l 1,4,-1
 433 91 l 1,5,6
 421 79 421 79 419 50 c 0,7,8
 420 32 420 32 444 12 c 1,9,10
 465 0 465 0 492 0 c 0,11,12
 518 0 518 0 538 8 c 2,13,-1
 560 22 l 1,14,-1
 590 -24 l 1,15,16
 556 -57 556 -57 500 -55 c 0,17,18
 446 -53 446 -53 410 -30 c 0,19,20
 364 0 364 0 364 48 c 0,21,22
 364 88 364 88 394 125 c 1,23,-1
 398 129 l 1,24,-1
 441 97 l 1,0,-1
410 -29 m 1,25,26
 434 -1 434 -1 479 -1 c 2,27,-1
 502 -1 l 1,28,-1
 502 -56 l 1,29,-1
 489 -56 l 2,30,31
 439 -56 439 -56 410 -29 c 1,25,26
460 364 m 1,32,33
 544 345 544 345 545 247 c 0,34,35
 546 200 546 200 504 150 c 0,36,37
 475 116 475 116 442 97 c 1,38,-1
 398 129 l 1,39,40
 430 146 430 146 460 184 c 0,41,42
 490 223 490 223 490 254 c 0,43,44
 491 306 491 306 414 308 c 0,45,46
 393 308 393 308 373 290 c 128,-1,47
 353 272 353 272 353 248 c 2,48,-1
 353 196 l 1,49,-1
 298 196 l 1,50,-1
 298 259 l 2,51,52
 298 280 298 280 281 293.5 c 128,-1,53
 264 307 264 307 244 308 c 0,54,55
 214 308 214 308 195 287 c 0,56,57
 178 266 178 266 178 234 c 0,58,59
 178 176 178 176 231 121 c 0,60,61
 270 82 270 82 293 74 c 1,62,-1
 260 26 l 1,63,64
 214 44 214 44 164 116 c 0,65,66
 124 175 124 175 123 238 c 0,67,68
 122 288 122 288 155 325 c 0,69,70
 189 362 189 362 237 362 c 0,71,72
 298 362 298 362 331 320 c 1,73,74
 350 359 350 359 405 367 c 1,75,-1
 460 364 l 1,32,33
EndSplineSet
EndChar

StartChar: uni0963
Encoding: 2403 2403 194
Width: 640
GlyphClass: 4
Flags: W
AnchorPoint: "Anchor-0" 416 370 basechar 0
LayerCount: 2
Fore
SplineSet
441 97 m 1,0,-1
 442 97 l 1,1,-1
 434 92 l 1,2,-1
 434 92 l 1,3,-1
 433 92 l 1,4,-1
 433 91 l 1,5,6
 421 79 421 79 419 50 c 0,7,8
 420 32 420 32 444 12 c 1,9,10
 465 0 465 0 492 0 c 0,11,12
 518 0 518 0 538 8 c 2,13,-1
 560 22 l 1,14,-1
 590 -24 l 1,15,16
 556 -57 556 -57 500 -55 c 0,17,18
 446 -53 446 -53 410 -30 c 0,19,20
 364 0 364 0 364 48 c 0,21,22
 364 88 364 88 394 125 c 1,23,-1
 398 129 l 1,24,-1
 441 97 l 1,0,-1
609 -172 m 1,25,26
 578 -202 578 -202 519 -203 c 0,27,28
 470 -204 470 -204 429 -178 c 0,29,30
 384 -148 384 -148 383 -100 c 0,31,32
 383 -58 383 -58 410 -29 c 0,33,34
 437 -1 437 -1 479 -1 c 2,35,-1
 502 -1 l 1,36,-1
 502 -56 l 1,37,-1
 489 -56 l 2,38,39
 439 -56 439 -56 438 -97 c 0,40,41
 437 -123 437 -123 464 -136 c 0,42,43
 484 -148 484 -148 511 -148 c 0,44,45
 537 -148 537 -148 556 -138 c 2,46,-1
 579 -125 l 1,47,-1
 609 -172 l 1,25,26
460 364 m 1,48,49
 544 345 544 345 545 247 c 0,50,51
 546 200 546 200 504 150 c 0,52,53
 475 116 475 116 442 97 c 1,54,-1
 398 129 l 1,55,56
 430 146 430 146 460 184 c 0,57,58
 490 223 490 223 490 254 c 0,59,60
 491 306 491 306 414 308 c 0,61,62
 393 308 393 308 373 290 c 128,-1,63
 353 272 353 272 353 248 c 2,64,-1
 353 196 l 1,65,-1
 298 196 l 1,66,-1
 298 259 l 2,67,68
 298 280 298 280 281 293.5 c 128,-1,69
 264 307 264 307 244 308 c 0,70,71
 214 308 214 308 195 287 c 0,72,73
 178 266 178 266 178 234 c 0,74,75
 178 176 178 176 231 121 c 0,76,77
 270 82 270 82 293 74 c 1,78,-1
 260 26 l 1,79,80
 214 44 214 44 164 116 c 0,81,82
 124 175 124 175 123 238 c 0,83,84
 122 288 122 288 155 325 c 0,85,86
 189 362 189 362 237 362 c 0,87,88
 298 362 298 362 331 320 c 1,89,90
 350 359 350 359 405 367 c 1,91,-1
 460 364 l 1,48,49
EndSplineSet
EndChar

StartChar: uni0964
Encoding: 2404 2404 195
Width: 691
GlyphClass: 2
Flags: W
LayerCount: 2
Fore
SplineSet
449 585 m 1,0,-1
 449 -98 l 1,1,-1
 380 -28 l 1,2,-1
 380 655 l 1,3,-1
 449 585 l 1,0,-1
EndSplineSet
EndChar

StartChar: uni0965
Encoding: 2405 2405 196
Width: 691
GlyphClass: 2
Flags: W
LayerCount: 2
Fore
SplineSet
313 601 m 1,0,-1
 313 -82 l 1,1,-1
 244 -12 l 1,2,-1
 244 671 l 1,3,-1
 313 601 l 1,0,-1
530 601 m 1,4,-1
 530 -82 l 1,5,-1
 460 -12 l 1,6,-1
 460 671 l 1,7,-1
 530 601 l 1,4,-1
EndSplineSet
EndChar

StartChar: uni0966
Encoding: 2406 2406 197
Width: 589
GlyphClass: 2
Flags: W
LayerCount: 2
Fore
SplineSet
496 302 m 0,0,1
 496 217 496 217 437 156 c 0,2,3
 379 97 379 97 293 95 c 0,4,5
 206 94 206 94 149 156 c 0,6,7
 92 216 92 216 92 302 c 0,8,9
 90 392 90 392 148 450 c 0,10,11
 203 508 203 508 293 510 c 0,12,13
 376 512 376 512 436 449 c 0,14,15
 496 385 496 385 496 302 c 0,0,1
421 305 m 0,16,17
 422 358 422 358 383 396 c 0,18,19
 342 434 342 434 293 434 c 0,20,21
 233 437 233 437 200 398 c 0,22,23
 167 361 167 361 167 301 c 0,24,25
 167 246 167 246 202 208 c 0,26,27
 238 169 238 169 293 169 c 128,-1,28
 348 169 348 169 384 210 c 0,29,30
 421 251 421 251 421 305 c 0,16,17
EndSplineSet
EndChar

StartChar: uni0967
Encoding: 2407 2407 198
Width: 589
GlyphClass: 2
Flags: W
LayerCount: 2
Fore
SplineSet
458 4 m 1,0,-1
 383 4 l 1,1,-1
 383 323 l 1,2,3
 346 294 346 294 289 294 c 0,4,5
 214 294 214 294 167 340 c 0,6,7
 119 384 119 384 116 457 c 0,8,9
 116 526 116 526 167 575 c 0,10,11
 217 628 217 628 284 628 c 0,12,13
 362 629 362 629 410 574 c 0,14,15
 458 518 458 518 458 438 c 2,16,-1
 458 4 l 1,0,-1
284 368 m 0,17,18
 383 368 383 368 383 462 c 0,19,20
 383 498 383 498 352 526 c 0,21,22
 318 553 318 553 284 553 c 0,23,24
 251 553 251 553 222 523 c 0,25,26
 192 493 192 493 192 461 c 0,27,28
 190 420 190 420 216 394 c 128,-1,29
 242 368 242 368 284 368 c 0,17,18
EndSplineSet
EndChar

StartChar: uni0968
Encoding: 2408 2408 199
Width: 589
GlyphClass: 2
Flags: W
LayerCount: 2
Fore
SplineSet
510 425 m 0,0,1
 512 324 512 324 442 250 c 0,2,3
 400 206 400 206 343 184 c 1,4,-1
 473 -26 l 1,5,-1
 412 -70 l 1,6,-1
 269 158 l 1,7,-1
 254 154 l 1,8,9
 238 154 238 154 232 152 c 0,10,11
 193 152 193 152 162 169 c 0,12,13
 127 191 127 191 125 227 c 0,14,15
 125 281 125 281 192 284 c 0,16,17
 253 284 253 284 301 236 c 1,18,19
 335 246 335 246 376 290 c 0,20,21
 434 352 434 352 437 425 c 0,22,23
 437 484 437 484 395 517 c 0,24,25
 354 551 354 551 293 553 c 0,26,27
 252 553 252 553 196 529 c 0,28,29
 179 523 179 523 142 505 c 1,30,-1
 90 560 l 1,31,32
 116 583 116 583 187 608 c 0,33,34
 245 628 245 628 290 628 c 0,35,36
 377 629 377 629 444 571 c 0,37,38
 509 512 509 512 510 425 c 0,0,1
EndSplineSet
EndChar

StartChar: uni0969
Encoding: 2409 2409 200
Width: 589
GlyphClass: 2
Flags: W
LayerCount: 2
Fore
SplineSet
200 325 m 1,0,-1
 155 401 l 1,1,-1
 264 401 l 2,2,3
 379 401 379 401 379 480 c 0,4,5
 379 550 379 550 274 553 c 0,6,7
 238 553 238 553 191 539 c 0,8,9
 150 524 150 524 148 508 c 1,10,-1
 102 576 l 1,11,-1
 166 602 l 2,12,13
 235 628 235 628 281 628 c 0,14,15
 353 628 353 628 402 593 c 0,16,17
 455 551 455 551 455 482 c 0,18,19
 455 432 455 432 431 398 c 0,20,21
 419 378 419 378 389 362 c 1,22,23
 436 344 436 344 467 304 c 0,24,25
 497 262 497 262 498 212 c 0,26,27
 498 143 498 143 456 96 c 0,28,29
 412 48 412 48 344 36 c 1,30,-1
 426 -83 l 1,31,-1
 370 -132 l 1,32,-1
 256 31 l 1,33,34
 138 46 138 46 138 110 c 0,35,36
 136 173 136 173 193 174 c 0,37,38
 220 175 220 175 254 154 c 0,39,40
 288 132 288 132 306 100 c 1,41,42
 350 100 350 100 385 133 c 0,43,44
 422 168 422 168 422 210 c 0,45,46
 424 258 424 258 367 294 c 0,47,48
 318 325 318 325 266 325 c 2,49,-1
 200 325 l 1,0,-1
EndSplineSet
EndChar

StartChar: uni096A
Encoding: 2410 2410 201
Width: 589
GlyphClass: 2
Flags: W
LayerCount: 2
Fore
SplineSet
522 509 m 0,0,1
 523 454 523 454 455 386 c 0,2,3
 421 354 421 354 362 314 c 1,4,5
 401 283 401 283 424 257 c 0,6,7
 472 202 472 202 472 151 c 0,8,9
 472 82 472 82 420 42 c 0,10,11
 372 4 372 4 302 4 c 0,12,13
 234 4 234 4 186 44 c 0,14,15
 138 85 138 85 138 154 c 0,16,17
 138 202 138 202 181 256 c 0,18,19
 204 284 204 284 242 316 c 1,20,21
 146 384 146 384 121 412 c 0,22,23
 80 462 80 462 80 511 c 0,24,25
 79 550 79 550 112 590 c 0,26,27
 137 617 137 617 150 624 c 1,28,-1
 214 587 l 1,29,30
 198 583 198 583 176 551 c 0,31,32
 157 518 157 518 155 502 c 0,33,34
 154 478 154 478 224 418 c 0,35,36
 275 377 275 377 302 362 c 1,37,38
 347 391 347 391 378 418 c 0,39,40
 446 473 446 473 448 509 c 0,41,42
 448 522 448 522 432 548 c 0,43,44
 412 576 412 576 397 599 c 1,45,-1
 467 628 l 1,46,47
 482 610 482 610 494 590 c 0,48,49
 522 542 522 542 522 509 c 0,0,1
397 156 m 0,50,51
 397 214 397 214 307 272 c 1,52,53
 278 252 278 252 242 211 c 0,54,55
 212 180 212 180 212 156 c 0,56,57
 212 79 212 79 302 79 c 0,58,59
 397 79 397 79 397 156 c 0,50,51
EndSplineSet
EndChar

StartChar: uni096B
Encoding: 2411 2411 202
Width: 589
GlyphClass: 2
Flags: W
LayerCount: 2
Fore
SplineSet
548 -4 m 1,0,-1
 469 -4 l 1,1,-1
 391 246 l 1,2,3
 379 238 379 238 364 229 c 0,4,5
 324 214 324 214 296 214 c 0,6,7
 208 212 208 212 154 275 c 0,8,9
 107 332 107 332 104 426 c 0,10,11
 103 482 103 482 134 564 c 0,12,13
 146 596 146 596 164 629 c 1,14,-1
 233 594 l 1,15,16
 210 574 210 574 194 514 c 0,17,18
 180 460 180 460 180 424 c 0,19,20
 180 365 180 365 209 329 c 0,21,22
 241 289 241 289 298 289 c 0,23,24
 325 287 325 287 341 294 c 0,25,26
 356 301 356 301 364 308 c 1,27,28
 358 318 358 318 350 349 c 0,29,30
 344 385 344 385 344 396 c 0,31,32
 344 493 344 493 403 494 c 0,33,34
 437 494 437 494 457 467 c 0,35,36
 481 437 481 437 481 403 c 0,37,38
 484 334 484 334 458 286 c 1,39,-1
 548 -4 l 1,0,-1
EndSplineSet
EndChar

StartChar: uni096C
Encoding: 2412 2412 203
Width: 589
GlyphClass: 2
Flags: W
LayerCount: 2
Fore
SplineSet
311 308 m 2,0,1
 266 308 266 308 233 272 c 0,2,3
 200 238 200 238 198 192 c 0,4,5
 197 160 197 160 220 134 c 0,6,7
 241 109 241 109 275 100 c 0,8,9
 290 95 290 95 312 95 c 0,10,11
 340 95 340 95 352 104 c 0,12,13
 352 108 352 108 349 134 c 0,14,15
 349 222 349 222 415 222 c 0,16,17
 475 222 475 222 476 150 c 0,18,19
 478 118 478 118 466 96 c 0,20,21
 449 71 449 71 438 60 c 1,22,-1
 496 -71 l 1,23,-1
 427 -106 l 1,24,-1
 370 28 l 1,25,26
 359 28 359 28 343 23 c 0,27,28
 325 19 325 19 317 19 c 0,29,30
 236 19 236 19 180 68 c 0,31,32
 125 118 125 118 122 194 c 0,33,34
 122 293 122 293 210 343 c 1,35,36
 106 397 106 397 104 490 c 0,37,38
 102 551 102 551 156 592 c 0,39,40
 208 628 208 628 269 628 c 0,41,42
 341 629 341 629 377 614 c 1,43,-1
 394 544 l 1,44,45
 352 553 352 553 280 553 c 0,46,47
 246 553 246 553 215 536 c 0,48,49
 180 518 180 518 180 484 c 0,50,51
 178 452 178 452 226 416 c 0,52,53
 272 383 272 383 305 383 c 2,54,-1
 379 383 l 1,55,-1
 403 308 l 1,56,-1
 311 308 l 2,0,1
EndSplineSet
EndChar

StartChar: uni096D
Encoding: 2413 2413 204
Width: 589
GlyphClass: 2
Flags: W
LayerCount: 2
Fore
SplineSet
522 370 m 0,0,1
 526 8 526 8 286 6 c 0,2,3
 107 4 107 4 49 313 c 0,4,5
 30 416 30 416 30 533 c 0,6,7
 30 565 30 565 31 576 c 0,8,9
 31 598 31 598 35 618 c 1,10,-1
 104 618 l 1,11,-1
 104 586 l 2,12,13
 104 409 104 409 131 292 c 0,14,15
 174 82 174 82 287 82 c 0,16,17
 401 82 401 82 424 210 c 1,18,19
 346 210 346 210 295 269 c 0,20,21
 246 329 246 329 246 408 c 0,22,23
 246 473 246 473 278 521 c 0,24,25
 317 577 317 577 378 577 c 0,26,27
 452 577 452 577 492 508 c 0,28,29
 522 452 522 452 522 370 c 0,0,1
448 372 m 1,30,31
 448 427 448 427 439 457 c 0,32,33
 424 502 424 502 376 503 c 0,34,35
 322 503 322 503 318 408 c 0,36,37
 318 355 318 355 350 319 c 0,38,39
 384 283 384 283 438 275 c 0,40,41
 438 272 438 272 438 277 c 1,42,43
 436 254 436 254 445 348 c 2,44,-1
 448 372 l 1,30,31
EndSplineSet
EndChar

StartChar: uni096E
Encoding: 2414 2414 205
Width: 589
GlyphClass: 2
Flags: W
LayerCount: 2
Fore
SplineSet
469 182 m 1,0,1
 451 8 451 8 298 6 c 0,2,3
 226 4 226 4 180 42 c 0,4,5
 133 78 133 78 133 150 c 0,6,7
 133 191 133 191 149 239 c 2,8,-1
 275 626 l 1,9,-1
 354 626 l 1,10,-1
 221 222 l 2,11,12
 206 178 206 178 206 151 c 0,13,14
 206 82 206 82 298 82 c 0,15,16
 394 79 394 79 394 182 c 1,17,-1
 469 182 l 1,0,1
EndSplineSet
EndChar

StartChar: uni096F
Encoding: 2415 2415 206
Width: 589
GlyphClass: 2
Flags: W
LayerCount: 2
Fore
SplineSet
469 473 m 0,0,1
 469 398 469 398 415 349 c 0,2,3
 360 302 360 302 283 301 c 1,4,-1
 440 31 l 2,5,6
 452 6 452 6 454 -16 c 0,7,8
 455 -46 455 -46 430 -70 c 0,9,10
 406 -94 406 -94 374 -94 c 0,11,12
 353 -94 353 -94 346 -79 c 0,13,14
 338 -67 338 -67 361 -56 c 0,15,16
 383 -47 383 -47 385 -32 c 0,17,18
 385 -22 385 -22 376 -6 c 2,19,-1
 149 388 l 2,20,21
 143 398 143 398 140 412 c 0,22,23
 132 445 132 445 132 469 c 0,24,25
 128 562 128 562 217 612 c 0,26,27
 246 628 246 628 288 628 c 0,28,29
 334 629 334 629 379 607 c 0,30,31
 426 584 426 584 446 548 c 0,32,33
 469 511 469 511 469 473 c 0,0,1
395 467 m 0,34,35
 395 506 395 506 370 529 c 0,36,37
 342 553 342 553 304 553 c 0,38,39
 208 553 208 553 208 462 c 0,40,41
 208 415 208 415 235 398 c 0,42,43
 254 385 254 385 305 383 c 0,44,45
 343 383 343 383 367 406 c 0,46,47
 392 430 392 430 395 467 c 0,34,35
EndSplineSet
EndChar

StartChar: uni0970
Encoding: 2416 2416 207
Width: 374
GlyphClass: 2
Flags: W
LayerCount: 2
Fore
SplineSet
179 283 m 1,0,1
 227 283 227 283 259 254 c 1,2,-1
 268 248 l 1,3,4
 304 215 304 215 304 163 c 0,5,6
 304 142 304 142 293 126 c 2,7,-1
 282 115 l 1,8,-1
 281 114 l 2,9,10
 257 88 257 88 236 84 c 2,11,-1
 226 83 l 1,12,13
 182 83 182 83 155 103 c 1,14,-1
 142 116 l 2,15,16
 109 150 109 150 109 204 c 0,17,18
 109 230 109 230 127 254 c 1,19,-1
 127 256 l 1,20,-1
 128 256 l 1,21,-1
 130 258 l 2,22,23
 148 281 148 281 169 282 c 2,24,-1
 179 283 l 1,0,1
191 112 m 0,25,26
 236 112 236 112 254 128 c 0,27,28
 277 148 277 148 277 191 c 0,29,30
 277 218 277 218 262 235 c 0,31,32
 244 253 244 253 218 253 c 0,33,34
 179 253 179 253 166 245 c 2,35,-1
 156 238 l 1,36,37
 134 216 134 216 134 170 c 0,38,39
 134 148 134 148 151 128 c 0,40,41
 168 112 168 112 191 112 c 0,25,26
EndSplineSet
EndChar

StartChar: uni0971
Encoding: 2417 2417 208
Width: 217
GlyphClass: 3
Flags: W
LayerCount: 2
Fore
SplineSet
224 554 m 1,0,-1
 145 554 l 1,1,-1
 145 1 l 1,2,-1
 72 1 l 1,3,-1
 72 554 l 1,4,-1
 -7 554 l 1,5,-1
 -7 628 l 1,6,-1
 60 628 l 1,7,-1
 -217 773 l 1,8,-1
 -167 829 l 1,9,-1
 52 694 l 1,10,-1
 -50 908 l 1,11,-1
 13 944 l 1,12,-1
 140 628 l 1,13,-1
 224 628 l 1,14,-1
 224 554 l 1,0,-1
264 734 m 1,15,-1
 132 734 l 1,16,-1
 132 857 l 1,17,-1
 264 857 l 1,18,-1
 264 734 l 1,15,-1
EndSplineSet
Ligature2: "'abvs' Above Base Substitutions in Devanagari lookup 10 subtable" uni094C uni0902
EndChar

StartChar: uni0972
Encoding: 2418 2418 209
Width: 217
GlyphClass: 3
Flags: W
LayerCount: 2
Fore
SplineSet
228 734 m 1,0,-1
 96 734 l 1,1,-1
 96 857 l 1,2,-1
 228 857 l 1,3,-1
 228 734 l 1,0,-1
224 554 m 1,4,-1
 145 554 l 1,5,-1
 145 1 l 1,6,-1
 72 1 l 1,7,-1
 72 554 l 1,8,-1
 -7 554 l 1,9,-1
 -7 628 l 1,10,-1
 55 628 l 1,11,-1
 -175 859 l 1,12,-1
 -113 919 l 1,13,-1
 133 628 l 1,14,-1
 224 628 l 1,15,-1
 224 554 l 1,4,-1
EndSplineSet
Ligature2: "'abvs' Above Base Substitutions in Devanagari lookup 10 subtable" uni094B uni0902
EndChar

StartChar: uni0973
Encoding: 2419 2419 210
Width: 217
GlyphClass: 3
Flags: W
LayerCount: 2
Fore
SplineSet
768 686 m 1,0,-1
 636 686 l 1,1,-1
 636 809 l 1,2,-1
 768 809 l 1,3,-1
 768 686 l 1,0,-1
656 628 m 1,4,-1
 570 628 l 1,5,6
 570 635 570 635 518 683 c 0,7,8
 466 732 466 732 391 775 c 0,9,10
 324 815 324 815 234 815 c 0,11,12
 125 815 125 815 125 702 c 0,13,14
 125 682 125 682 132 652 c 2,15,-1
 139 628 l 1,16,-1
 224 628 l 1,17,-1
 224 554 l 1,18,-1
 145 554 l 1,19,-1
 145 1 l 1,20,-1
 72 1 l 1,21,-1
 72 554 l 1,22,-1
 -7 554 l 1,23,-1
 -7 628 l 1,24,-1
 70 628 l 1,25,26
 52 682 52 682 52 708 c 0,27,28
 52 785 52 785 103 835 c 0,29,30
 156 887 156 887 241 888 c 0,31,32
 346 889 346 889 440 830 c 0,33,34
 548 763 548 763 656 628 c 1,4,-1
EndSplineSet
Ligature2: "'abvs' Above Base Substitutions in Devanagari lookup 10 subtable" uni093F uni0902
EndChar

StartChar: uni0974
Encoding: 2420 2420 211
Width: 217
GlyphClass: 3
Flags: W
LayerCount: 2
Fore
SplineSet
312 710 m 1,0,-1
 180 710 l 1,1,-1
 180 833 l 1,2,-1
 312 833 l 1,3,-1
 312 710 l 1,0,-1
224 554 m 1,4,-1
 145 554 l 1,5,-1
 145 1 l 1,6,-1
 72 1 l 1,7,-1
 72 554 l 1,8,-1
 -7 554 l 1,9,-1
 -7 628 l 1,10,-1
 74 628 l 1,11,12
 77 649 77 649 77 659 c 0,13,14
 77 731 77 731 26 770 c 0,15,16
 -14 803 -14 803 -70 803 c 0,17,18
 -110 803 -110 803 -144 785 c 0,19,20
 -181 764 -181 764 -182 732 c 0,21,22
 -182 688 -182 688 -134 628 c 1,23,-1
 -214 628 l 1,24,25
 -256 680 -256 680 -256 737 c 0,26,27
 -256 793 -256 793 -199 835 c 0,28,29
 -144 876 -144 876 -72 876 c 0,30,31
 13 876 13 876 76 824 c 0,32,33
 146 766 146 766 146 660 c 0,34,35
 146 638 146 638 145 628 c 1,36,-1
 224 628 l 1,37,-1
 224 554 l 1,4,-1
EndSplineSet
Ligature2: "'abvs' Above Base Substitutions in Devanagari lookup 10 subtable" uni0940 uni0902
EndChar

StartChar: uni0975
Encoding: 2421 2421 212
Width: 217
GlyphClass: 3
Flags: W
LayerCount: 2
Fore
SplineSet
720 839 m 1,0,-1
 650 852 l 1,1,2
 582 852 582 852 581 776 c 0,3,4
 580 728 580 728 623 668 c 1,5,-1
 656 628 l 1,6,-1
 570 628 l 1,7,8
 570 635 570 635 518 683 c 0,9,10
 460 737 460 737 391 775 c 0,11,12
 324 815 324 815 234 815 c 0,13,14
 128 815 128 815 125 702 c 0,15,16
 125 682 125 682 132 652 c 2,17,-1
 139 628 l 1,18,-1
 224 628 l 1,19,-1
 224 554 l 1,20,-1
 145 554 l 1,21,-1
 145 6 l 1,22,-1
 72 6 l 1,23,-1
 72 554 l 1,24,-1
 -7 554 l 1,25,-1
 -7 628 l 1,26,-1
 70 628 l 1,27,28
 52 682 52 682 52 708 c 0,29,30
 52 785 52 785 103 835 c 0,31,32
 156 887 156 887 241 888 c 0,33,34
 347 889 347 889 440 830 c 0,35,36
 490 799 490 799 521 773 c 1,37,38
 517 802 517 802 517 800 c 1,39,40
 517 856 517 856 557 884 c 0,41,42
 592 910 592 910 648 911 c 0,43,44
 688 912 688 912 720 899 c 1,45,-1
 720 839 l 1,0,-1
EndSplineSet
Ligature2: "'abvs' Above Base Substitutions in Devanagari lookup 10 subtable" uni093F uni0930_uni094D.rphf
EndChar

StartChar: uni0976
Encoding: 2422 2422 213
Width: 217
GlyphClass: 3
Flags: W
LayerCount: 2
Fore
SplineSet
742 702 m 1,0,-1
 659 702 l 1,1,-1
 659 778 l 1,2,-1
 742 778 l 1,3,-1
 742 702 l 1,0,-1
720 839 m 1,4,-1
 650 852 l 1,5,6
 582 852 582 852 581 776 c 0,7,8
 580 728 580 728 623 668 c 1,9,-1
 656 628 l 1,10,-1
 570 628 l 1,11,12
 570 635 570 635 518 683 c 0,13,14
 460 737 460 737 391 775 c 0,15,16
 324 815 324 815 234 815 c 0,17,18
 128 815 128 815 125 702 c 0,19,20
 125 682 125 682 132 652 c 2,21,-1
 139 628 l 1,22,-1
 224 628 l 1,23,-1
 224 554 l 1,24,-1
 145 554 l 1,25,-1
 145 6 l 1,26,-1
 72 6 l 1,27,-1
 72 554 l 1,28,-1
 -7 554 l 1,29,-1
 -7 628 l 1,30,-1
 70 628 l 1,31,32
 52 682 52 682 52 708 c 0,33,34
 52 785 52 785 103 835 c 0,35,36
 156 887 156 887 241 888 c 0,37,38
 347 889 347 889 440 830 c 0,39,40
 490 799 490 799 521 773 c 1,41,42
 517 802 517 802 517 800 c 1,43,44
 517 856 517 856 557 884 c 0,45,46
 592 910 592 910 648 911 c 0,47,48
 688 912 688 912 720 899 c 1,49,-1
 720 839 l 1,4,-1
EndSplineSet
Ligature2: "'abvs' Above Base Substitutions in Devanagari lookup 10 subtable" uni093F glyph359
EndChar

StartChar: uni2010
Encoding: 8208 8208 216
Width: 600
GlyphClass: 2
Flags: W
LayerCount: 2
Fore
SplineSet
482 287 m 1,0,-1
 88 287 l 1,1,-1
 88 353 l 1,2,-1
 482 353 l 1,3,-1
 482 287 l 1,0,-1
EndSplineSet
EndChar

StartChar: endash
Encoding: 8211 8211 217
Width: 450
GlyphClass: 2
Flags: W
LayerCount: 2
Fore
SplineSet
1860 0 m 1,0,-1
 210 0 l 1,1,-1
 210 0 l 1,2,-1
 1860 0 l 1,3,-1
 1860 0 l 1,0,-1
EndSplineSet
EndChar

StartChar: emdash
Encoding: 8212 8212 218
Width: 600
GlyphClass: 2
Flags: W
LayerCount: 2
Fore
SplineSet
522 287 m 1,0,-1
 42 287 l 1,1,-1
 42 353 l 1,2,-1
 522 353 l 1,3,-1
 522 287 l 1,0,-1
EndSplineSet
EndChar

StartChar: quoteleft
Encoding: 8216 8216 219
Width: 244
GlyphClass: 2
Flags: W
LayerCount: 2
Fore
SplineSet
190 536 m 1,0,-1
 72 536 l 1,1,-1
 72 631 l 2,2,3
 72 762 72 762 190 782 c 1,4,-1
 190 738 l 1,5,6
 130 731 130 731 130 640 c 1,7,-1
 190 640 l 1,8,-1
 190 536 l 1,0,-1
EndSplineSet
EndChar

StartChar: quoteright
Encoding: 8217 8217 220
Width: 243
GlyphClass: 2
Flags: W
LayerCount: 2
Fore
SplineSet
200 570 m 0,0,1
 200 533 200 533 77 432 c 1,2,-1
 77 484 l 1,3,-1
 124 539 l 1,4,-1
 124 566 l 1,5,-1
 89 616 l 1,6,-1
 144 671 l 1,7,8
 199 622 199 622 200 570 c 0,0,1
EndSplineSet
EndChar

StartChar: quotesinglbase
Encoding: 8218 8218 221
Width: 399
GlyphClass: 2
Flags: W
LayerCount: 2
Fore
SplineSet
362 766 m 1,0,-1
 397 766 l 1,1,2
 383 713 383 713 366 688 c 0,3,4
 332 638 332 638 271 638 c 0,5,6
 241 638 241 638 210 650 c 0,7,8
 204 653 204 653 174 667 c 2,9,-1
 146 680 l 2,10,11
 132 688 132 688 123 691 c 128,-1,12
 114 694 114 694 102 694 c 0,13,14
 72 694 72 694 55 674 c 0,15,16
 44 662 44 662 36 638 c 1,17,-1
 1 638 l 1,18,19
 10 686 10 686 37 719 c 0,20,21
 72 760 72 760 127 760 c 0,22,23
 164 760 164 760 206 738 c 2,24,-1
 235 724 l 2,25,26
 244 720 244 720 263 713 c 0,27,28
 283 706 283 706 293 706 c 0,29,30
 318 706 318 706 332.5 718 c 128,-1,31
 347 730 347 730 362 766 c 1,0,-1
EndSplineSet
EndChar

StartChar: quotedblleft
Encoding: 8220 8220 222
Width: 532
GlyphClass: 2
Flags: W
LayerCount: 2
Fore
SplineSet
186 811 m 1,0,-1
 197 788 l 1,1,2
 144 755 144 755 118 714 c 0,3,4
 98 684 98 684 98 661 c 0,5,6
 98 644 98 644 115 644 c 1,7,-1
 126 647 l 1,8,-1
 144 649 l 2,9,10
 173 649 173 649 196 635 c 0,11,12
 218 622 218 622 218 589 c 0,13,14
 218 553 218 553 197 536 c 0,15,16
 176 520 176 520 149 520 c 0,17,18
 115 520 115 520 90 539 c 0,19,20
 52 569 52 569 52 635 c 0,21,22
 52 691 52 691 104 750 c 0,23,24
 149 799 149 799 186 811 c 1,0,-1
464 811 m 1,25,-1
 475 788 l 1,26,27
 422 755 422 755 396 714 c 0,28,29
 377 684 377 684 377 661 c 0,30,31
 377 644 377 644 394 644 c 1,32,-1
 404 647 l 1,33,-1
 422 649 l 2,34,35
 451 649 451 649 474 635 c 0,36,37
 497 622 497 622 497 589 c 0,38,39
 497 553 497 553 476 536 c 0,40,41
 455 520 455 520 427 520 c 0,42,43
 394 520 394 520 368 539 c 0,44,45
 330 569 330 569 330 635 c 0,46,47
 330 691 330 691 383 750 c 0,48,49
 427 799 427 799 464 811 c 1,25,-1
EndSplineSet
EndChar

StartChar: quotedblright
Encoding: 8221 8221 223
Width: 532
GlyphClass: 2
Flags: W
LayerCount: 2
Fore
SplineSet
68 520 m 1,0,-1
 58 542 l 1,1,2
 110 576 110 576 137 617 c 0,3,4
 156 647 156 647 156 670 c 0,5,6
 156 686 156 686 139 686 c 2,7,-1
 128 684 l 1,8,-1
 110 682 l 2,9,10
 82 682 82 682 62 694 c 0,11,12
 36 709 36 709 36 742 c 0,13,14
 36 778 36 778 57 794 c 0,15,16
 78 811 78 811 106 811 c 0,17,18
 139 811 139 811 164 792 c 0,19,20
 203 762 203 762 203 696 c 0,21,22
 203 640 203 640 150 581 c 0,23,24
 106 532 106 532 68 520 c 1,0,-1
347 520 m 1,25,-1
 336 542 l 1,26,27
 389 576 389 576 415 617 c 0,28,29
 434 647 434 647 434 670 c 0,30,31
 434 686 434 686 418 686 c 2,32,-1
 407 684 l 1,33,-1
 389 682 l 2,34,35
 360 682 360 682 341 694 c 0,36,37
 314 709 314 709 314 742 c 0,38,39
 314 778 314 778 335 794 c 0,40,41
 356 811 356 811 384 811 c 0,42,43
 418 811 418 811 443 792 c 0,44,45
 481 762 481 762 481 696 c 0,46,47
 481 640 481 640 428 581 c 0,48,49
 384 532 384 532 347 520 c 1,25,-1
EndSplineSet
EndChar

StartChar: quotedblbase
Encoding: 8222 8222 224
Width: 399
GlyphClass: 2
Flags: W
LayerCount: 2
Fore
SplineSet
232 608 m 1,0,-1
 184 608 l 1,1,-1
 360 786 l 2,2,3
 379 805 379 805 389 809 c 0,4,5
 398 814 398 814 413 814 c 0,6,7
 431 814 431 814 442 803 c 0,8,9
 452 792 452 792 452 775 c 0,10,11
 452 757 452 757 439 743 c 0,12,13
 431 733 431 733 416 725 c 2,14,-1
 232 608 l 1,0,-1
44 608 m 1,15,-1
 -4 608 l 1,16,-1
 173 786 l 2,17,18
 192 805 192 805 202 809 c 0,19,20
 211 814 211 814 226 814 c 0,21,22
 244 814 244 814 254 803 c 0,23,24
 265 792 265 792 265 775 c 0,25,26
 265 757 265 757 252 743 c 0,27,28
 244 733 244 733 229 725 c 2,29,-1
 44 608 l 1,15,-1
EndSplineSet
EndChar

StartChar: dagger
Encoding: 8224 8224 225
Width: 399
GlyphClass: 2
Flags: W
LayerCount: 2
Fore
SplineSet
80 733 m 256,0,1
 80 782 80 782 115 818 c 0,2,3
 149 853 149 853 199 853 c 0,4,5
 250 853 250 853 284 818 c 0,6,7
 319 784 319 784 319 733 c 0,8,9
 319 684 319 684 284 649 c 0,10,11
 250 614 250 614 199 614 c 128,-1,12
 148 614 148 614 114 649 c 128,-1,13
 80 684 80 684 80 733 c 256,0,1
199 812 m 0,14,15
 163 812 163 812 142 787 c 0,16,17
 121 761 121 761 121 734 c 128,-1,18
 121 707 121 707 139 684 c 0,19,20
 162 655 162 655 198 655 c 0,21,22
 232 655 232 655 255 677 c 0,23,24
 278 700 278 700 278 733 c 128,-1,25
 278 766 278 766 255 789 c 128,-1,26
 232 812 232 812 199 812 c 0,14,15
EndSplineSet
EndChar

StartChar: daggerdbl
Encoding: 8225 8225 226
Width: 399
GlyphClass: 2
Flags: W
LayerCount: 2
Fore
SplineSet
334 797 m 1,0,-1
 368 797 l 1,1,2
 362 730 362 730 340 689 c 0,3,4
 295 608 295 608 197 608 c 0,5,6
 126 608 126 608 82 653 c 0,7,8
 31 703 31 703 31 797 c 1,9,-1
 66 797 l 1,10,11
 85 680 85 680 199 680 c 0,12,13
 246 680 246 680 276 701 c 128,-1,14
 306 722 306 722 334 797 c 1,0,-1
EndSplineSet
EndChar

StartChar: ellipsis
Encoding: 8230 8230 227
Width: 956
GlyphClass: 2
Flags: W
LayerCount: 2
Fore
SplineSet
685 108 m 1,0,1
 649 109 649 109 630 85 c 0,2,3
 622 76 622 76 622 59 c 0,4,5
 620 28 620 28 652 8 c 1,6,-1
 652 8 l 1,7,-1
 653 8 l 1,8,9
 670 -1 670 -1 691 0 c 0,10,11
 724 2 724 2 738 29 c 0,12,13
 745 44 745 44 744 59 c 0,14,15
 742 92 742 92 709 103 c 1,16,-1
 709 103 l 1,17,-1
 709 104 l 1,18,-1
 708 104 l 1,19,-1
 708 104 l 1,20,-1
 685 108 l 1,0,1
490 108 m 0,21,22
 454 109 454 109 433 85 c 0,23,24
 425 76 425 76 425 59 c 0,25,26
 425 26 425 26 455 8 c 0,27,28
 472 -2 472 -2 496 0 c 0,29,30
 528 2 528 2 542 29 c 0,31,32
 548 41 548 41 548 59 c 0,33,34
 545 92 545 92 514 103 c 0,35,36
 504 108 504 108 490 108 c 0,21,22
296 108 m 0,37,38
 259 109 259 109 240 85 c 0,39,40
 232 76 232 76 232 59 c 0,41,42
 232 26 232 26 262 8 c 0,43,44
 278 -2 278 -2 301 0 c 0,45,46
 332 1 332 1 349 29 c 0,47,48
 355 43 355 43 354 59 c 0,49,50
 352 92 352 92 320 103 c 0,51,52
 310 108 310 108 296 108 c 0,37,38
EndSplineSet
EndChar

StartChar: perthousand
Encoding: 8240 8240 228
Width: 399
GlyphClass: 2
Flags: W
LayerCount: 2
Fore
SplineSet
275 -88 m 1,0,-1
 299 -107 l 1,1,2
 272 -148 272 -148 242 -170 c 0,3,4
 206 -198 206 -198 167 -198 c 0,5,6
 126 -198 126 -198 101 -173 c 0,7,8
 77 -149 77 -149 77 -101 c 0,9,10
 77 -73 77 -73 96 -46 c 0,11,12
 116 -17 116 -17 142 0 c 1,13,-1
 197 0 l 1,14,15
 176 -16 176 -16 163 -34 c 0,16,17
 144 -59 144 -59 144 -83 c 0,18,19
 144 -103 144 -103 157 -117 c 0,20,21
 169 -131 169 -131 187 -131 c 0,22,23
 210 -131 210 -131 231 -119.5 c 128,-1,24
 252 -108 252 -108 275 -88 c 1,0,-1
EndSplineSet
EndChar

StartChar: minus
Encoding: 8722 8722 232
Width: 254
GlyphClass: 2
Flags: W
LayerCount: 2
Fore
SplineSet
254 540 m 1,0,-1
 0 540 l 1,1,-1
 0 613 l 1,2,-1
 254 613 l 1,3,-1
 254 540 l 1,0,-1
EndSplineSet
EndChar

StartChar: uniE968
Encoding: 59752 59752 235
Width: 201
GlyphClass: 2
Flags: W
LayerCount: 2
Fore
SplineSet
76 628 m 1,0,-1
 -6 628 l 1,1,-1
 -6 554 l 1,2,-1
 73 554 l 1,3,-1
 73 6 l 1,4,-1
 146 6 l 1,5,-1
 146 554 l 1,6,-1
 226 554 l 1,7,-1
 226 628 l 1,8,-1
 146 628 l 1,9,10
 150 648 150 648 79 708 c 0,11,12
 -47 815 -47 815 -178 846 c 0,13,14
 -280 871 -280 871 -354 833 c 1,15,16
 -413 809 -413 809 -426 726 c 0,17,18
 -433 682 -433 682 -421 649 c 1,19,-1
 -420 648 l 1,20,-1
 -420 647 l 1,21,-1
 -419 646 l 1,22,-1
 -409 629 l 1,23,-1
 -335 629 l 1,24,25
 -379 660 -379 660 -366 720 c 0,26,27
 -355 767 -355 767 -316 790 c 0,28,29
 -218 845 -218 845 -40 726 c 0,30,31
 42 672 42 672 72 634 c 1,32,-1
 73 632 l 1,33,-1
 76 628 l 1,0,-1
278 722 m 1,34,-1
 196 722 l 1,35,-1
 196 798 l 1,36,-1
 278 798 l 1,37,-1
 278 722 l 1,34,-1
262 845 m 1,38,-1
 262 845 l 1,39,-1
 192 858 l 1,40,41
 124 858 124 858 122 782 c 0,42,43
 121 738 121 738 164 674 c 0,44,45
 180 650 180 650 206 622 c 1,46,-1
 148 622 l 1,47,-1
 103 682 l 1,48,49
 60 751 60 751 59 806 c 0,50,51
 58 860 58 860 98 890 c 0,52,53
 133 916 133 916 190 917 c 0,54,55
 229 918 229 918 262 905 c 1,56,-1
 262 845 l 1,38,-1
EndSplineSet
EndChar

StartChar: uniE969
Encoding: 59753 59753 236
Width: 7
GlyphClass: 3
Flags: W
LayerCount: 2
Fore
SplineSet
112 731 m 1,0,-1
 0 730 l 1,1,-1
 0 834 l 1,2,-1
 110 832 l 1,3,-1
 112 731 l 1,0,-1
62 894 m 1,4,-1
 62 894 l 1,5,-1
 -12 883 l 1,6,7
 -64 883 -64 883 -76 815 c 1,8,-1
 -78 786 l 2,9,10
 -79 742 -79 742 -36 678 c 0,11,12
 -20 654 -20 654 6 625 c 1,13,-1
 -53 625 l 1,14,-1
 -97 685 l 1,15,16
 -140 755 -140 755 -142 810 c 0,17,18
 -143 870 -143 870 -114 907 c 0,19,20
 -108 914 -108 914 -102 919 c 0,21,22
 -68 943 -68 943 -54 947 c 0,23,24
 -43 950 -43 950 -29 950 c 2,25,-1
 46 958 l 1,26,-1
 62 954 l 1,27,-1
 62 894 l 1,4,-1
-74 628 m 1,28,-1
 -138 628 l 1,29,-1
 -446 785 l 1,30,-1
 -396 841 l 1,31,-1
 -178 706 l 1,32,-1
 -280 920 l 1,33,-1
 -216 956 l 1,34,-1
 -74 628 l 1,28,-1
EndSplineSet
Ligature2: "'abvs' Above Base Substitutions in Devanagari lookup 10 subtable" uni0948 glyph359
EndChar

StartChar: uniE96A
Encoding: 59754 59754 237
Width: 7
GlyphClass: 3
Flags: W
LayerCount: 2
Fore
SplineSet
32 554 m 1,0,-1
 -47 554 l 1,1,-1
 -47 6 l 1,2,-1
 -120 6 l 1,3,-1
 -120 554 l 1,4,-1
 -199 554 l 1,5,-1
 -199 628 l 1,6,-1
 32 628 l 1,7,-1
 32 554 l 1,0,-1
112 727 m 1,8,-1
 0 726 l 1,9,-1
 0 830 l 1,10,-1
 110 828 l 1,11,-1
 112 727 l 1,8,-1
62 890 m 1,12,-1
 62 890 l 1,13,-1
 -12 880 l 1,14,15
 -64 880 -64 880 -76 811 c 1,16,-1
 -78 782 l 2,17,18
 -79 738 -79 738 -36 674 c 0,19,20
 -20 650 -20 650 6 622 c 1,21,-1
 -53 622 l 1,22,-1
 -97 682 l 1,23,24
 -140 751 -140 751 -142 806 c 0,25,26
 -143 866 -143 866 -114 904 c 0,27,28
 -108 911 -108 911 -102 916 c 0,29,30
 -68 940 -68 940 -54 943 c 0,31,32
 -43 947 -43 947 -29 947 c 2,33,-1
 46 954 l 1,34,-1
 62 950 l 1,35,-1
 62 890 l 1,12,-1
-74 624 m 1,36,-1
 -138 624 l 1,37,-1
 -446 781 l 1,38,-1
 -396 838 l 1,39,-1
 -178 702 l 1,40,-1
 -280 917 l 1,41,-1
 -216 953 l 1,42,-1
 -74 624 l 1,36,-1
EndSplineSet
Ligature2: "'abvs' Above Base Substitutions in Devanagari lookup 10 subtable" uni094C glyph359
EndChar

StartChar: uni091F_uni093C.nukt
Encoding: 65538 -1 238
Width: 582
GlyphClass: 3
LigCaretCntFixed: 1
Flags: W
AnchorPoint: "Anchor-0" 456 630 basechar 0
LayerCount: 2
Fore
SplineSet
103 -14 m 1,0,-1
 18 -14 l 1,1,-1
 18 67 l 1,2,-1
 103 67 l 1,3,-1
 103 -14 l 1,0,-1
582 553 m 1,4,-1
 457 553 l 1,5,-1
 457 362 l 1,6,-1
 240 362 l 2,7,8
 199 362 199 362 169 322 c 0,9,10
 143 284 143 284 143 244 c 0,11,12
 142 170 142 170 202 119 c 0,13,14
 257 68 257 68 331 68 c 0,15,16
 428 68 428 68 480 156 c 1,17,-1
 550 113 l 1,18,19
 463 -6 463 -6 336 -6 c 0,20,21
 226 -6 226 -6 148 67 c 0,22,23
 68 140 68 140 67 248 c 0,24,25
 67 317 67 317 113 373 c 0,26,27
 163 438 163 438 227 438 c 2,28,-1
 382 438 l 1,29,-1
 382 553 l 1,30,-1
 0 553 l 1,31,-1
 0 628 l 1,32,-1
 582 628 l 1,33,-1
 582 553 l 1,4,-1
EndSplineSet
Ligature2: "'nukt' Nukta Forms in Devanagari lookup 1 subtable" uni091F uni093C
LCarets2: 1 -2
EndChar

StartChar: uni0920_uni093C.nukt
Encoding: 65539 -1 239
Width: 542
GlyphClass: 3
Flags: W
AnchorPoint: "Anchor-0" 430 624 basechar 0
LayerCount: 2
Fore
SplineSet
97 -25 m 1,0,-1
 12 -25 l 1,1,-1
 12 56 l 1,2,-1
 97 56 l 1,3,-1
 97 -25 l 1,0,-1
544 553 m 1,4,-1
 433 553 l 1,5,-1
 433 350 l 1,6,-1
 206 350 l 2,7,8
 169 350 169 350 144 318 c 0,9,10
 118 287 118 287 118 248 c 0,11,12
 118 180 118 180 170 131 c 0,13,14
 223 82 223 82 292 82 c 0,15,16
 431 78 431 78 431 190 c 0,17,18
 432 245 432 245 373 287 c 1,19,-1
 428 337 l 1,20,21
 506 294 506 294 506 186 c 0,22,23
 506 100 506 100 440 50 c 0,24,25
 380 8 380 8 292 6 c 0,26,27
 190 4 190 4 118 78 c 0,28,29
 46 149 46 149 43 251 c 0,30,31
 42 320 42 320 91 374 c 0,32,33
 142 425 142 425 214 425 c 2,34,-1
 359 425 l 1,35,-1
 359 553 l 1,36,-1
 0 553 l 1,37,-1
 0 628 l 1,38,-1
 544 628 l 1,39,-1
 544 553 l 1,4,-1
EndSplineSet
Ligature2: "'nukt' Nukta Forms in Devanagari lookup 1 subtable" uni0920 uni093C
EndChar

StartChar: glyph240
Encoding: 65540 -1 240
Width: 921
GlyphClass: 2
Flags: W
LayerCount: 2
Fore
SplineSet
576 850 m 1,0,-1
 506 863 l 1,1,2
 438 863 438 863 437 787 c 0,3,4
 436 743 436 743 479 679 c 0,5,6
 494 655 494 655 521 626 c 1,7,-1
 462 626 l 1,8,-1
 418 686 l 1,9,10
 374 756 374 756 373 811 c 0,11,12
 372 865 372 865 413 895 c 0,13,14
 448 920 448 920 504 922 c 0,15,16
 544 923 544 923 576 910 c 1,17,-1
 576 850 l 1,0,-1
922 554 m 1,18,-1
 533 554 l 1,19,-1
 533 324 l 1,20,-1
 660 378 l 1,21,-1
 658 404 l 1,22,23
 658 480 658 480 726 480 c 0,24,25
 752 480 752 480 768 455 c 0,26,27
 780 433 780 433 780 404 c 0,28,29
 780 359 780 359 750 330 c 1,30,-1
 805 229 l 1,31,32
 763 229 763 229 725 208 c 0,33,34
 682 182 682 182 680 144 c 0,35,36
 680 112 680 112 701 96 c 0,37,38
 720 79 720 79 755 78 c 128,-1,39
 790 77 790 77 804 84 c 0,40,41
 823 94 823 94 828 124 c 1,42,-1
 886 61 l 1,43,44
 828 4 828 4 748 4 c 0,45,46
 683 4 683 4 646 41 c 0,47,48
 608 79 608 79 607 144 c 0,49,50
 606 186 606 186 634 221 c 0,51,52
 660 256 660 256 702 265 c 1,53,-1
 679 307 l 1,54,-1
 533 245 l 1,55,-1
 533 6 l 1,56,-1
 460 6 l 1,57,-1
 460 218 l 1,58,-1
 182 59 l 1,59,-1
 138 118 l 1,60,-1
 401 270 l 1,61,62
 301 380 301 380 270 385 c 1,63,64
 242 385 242 385 162 346 c 0,65,66
 142 336 142 336 86 306 c 1,67,-1
 42 362 l 1,68,69
 48 374 48 374 151 415 c 0,70,71
 254 457 254 457 277 458 c 0,72,73
 308 460 308 460 391 384 c 0,74,75
 413 364 413 364 460 316 c 1,76,-1
 460 554 l 1,77,-1
 0 554 l 1,78,-1
 0 628 l 1,79,-1
 922 628 l 1,80,-1
 922 554 l 1,18,-1
EndSplineSet
Ligature2: "Ligature Substitution in Devanagari lookup 2 subtable" uni090B uni0930_uni094D.rphf
EndChar

StartChar: glyph241
Encoding: 65541 -1 241
Width: 921
GlyphClass: 2
Flags: W
LayerCount: 2
Fore
SplineSet
576 850 m 1,0,-1
 506 863 l 1,1,2
 438 863 438 863 437 787 c 0,3,4
 436 743 436 743 479 679 c 0,5,6
 494 655 494 655 521 626 c 1,7,-1
 462 626 l 1,8,-1
 418 686 l 1,9,10
 374 756 374 756 373 811 c 0,11,12
 372 865 372 865 413 895 c 0,13,14
 448 920 448 920 504 922 c 0,15,16
 544 923 544 923 576 910 c 1,17,-1
 576 850 l 1,0,-1
920 -149 m 1,18,-1
 920 -149 l 1,19,20
 880 -190 880 -190 800 -191 c 0,21,22
 734 -192 734 -192 680 -157 c 0,23,24
 619 -118 619 -118 619 -54 c 0,25,26
 619 2 619 2 655 41 c 0,27,28
 691 78 691 78 748 78 c 2,29,-1
 761 78 l 1,30,-1
 761 5 l 1,31,-1
 761 5 l 1,32,33
 694 5 694 5 692 -50 c 0,34,35
 691 -83 691 -83 726 -102 c 0,36,37
 754 -118 754 -118 790 -118 c 0,38,39
 824 -118 824 -118 851 -106 c 2,40,-1
 881 -88 l 1,41,-1
 920 -149 l 1,18,-1
922 554 m 1,42,-1
 533 554 l 1,43,-1
 533 324 l 1,44,-1
 660 378 l 1,45,-1
 658 404 l 1,46,47
 658 480 658 480 726 480 c 0,48,49
 752 480 752 480 768 455 c 0,50,51
 780 433 780 433 780 404 c 0,52,53
 780 359 780 359 750 330 c 1,54,-1
 805 229 l 1,55,56
 763 229 763 229 725 208 c 0,57,58
 682 182 682 182 680 144 c 0,59,60
 680 112 680 112 701 96 c 0,61,62
 720 79 720 79 755 78 c 128,-1,63
 790 77 790 77 804 84 c 0,64,65
 823 94 823 94 828 124 c 1,66,-1
 886 61 l 1,67,68
 828 4 828 4 748 4 c 0,69,70
 683 4 683 4 646 41 c 0,71,72
 608 79 608 79 607 144 c 0,73,74
 606 186 606 186 634 221 c 0,75,76
 660 256 660 256 702 265 c 1,77,-1
 679 307 l 1,78,-1
 533 245 l 1,79,-1
 533 6 l 1,80,-1
 460 6 l 1,81,-1
 460 218 l 1,82,-1
 182 59 l 1,83,-1
 138 118 l 1,84,-1
 401 270 l 1,85,86
 301 380 301 380 270 385 c 1,87,88
 242 385 242 385 162 346 c 0,89,90
 142 336 142 336 86 306 c 1,91,-1
 42 362 l 1,92,93
 48 374 48 374 151 415 c 0,94,95
 254 457 254 457 277 458 c 0,96,97
 308 460 308 460 391 384 c 0,98,99
 413 364 413 364 460 316 c 1,100,-1
 460 554 l 1,101,-1
 0 554 l 1,102,-1
 0 628 l 1,103,-1
 922 628 l 1,104,-1
 922 554 l 1,42,-1
EndSplineSet
Ligature2: "Ligature Substitution in Devanagari lookup 2 subtable" uni0960 uni0930_uni094D.rphf
EndChar

StartChar: uni0908_uni0902.abvs
Encoding: 65542 -1 242
Width: 475
GlyphClass: 3
Flags: W
LayerCount: 2
Fore
SplineSet
462 722 m 1,0,-1
 362 722 l 1,1,-1
 362 814 l 1,2,-1
 462 814 l 1,3,-1
 462 722 l 1,0,-1
430 854 m 1,4,5
 407 859 407 859 360 868 c 1,6,7
 292 868 292 868 290 792 c 0,8,9
 289 748 289 748 332 684 c 0,10,11
 348 660 348 660 374 631 c 1,12,-1
 316 631 l 1,13,14
 284 671 284 671 271 691 c 0,15,16
 228 761 228 761 227 816 c 0,17,18
 226 870 226 870 266 900 c 0,19,20
 301 925 301 925 358 926 c 0,21,22
 397 928 397 928 430 914 c 1,23,-1
 430 854 l 1,4,5
475 553 m 1,24,-1
 383 553 l 1,25,-1
 383 379 l 1,26,-1
 143 379 l 2,27,28
 136 379 136 379 136 373 c 0,29,30
 136 356 136 356 174 316 c 0,31,32
 212 275 212 275 232 277 c 0,33,34
 258 283 258 283 293 293 c 0,35,36
 332 304 332 304 355 304 c 0,37,38
 389 304 389 304 414 274 c 0,39,40
 439 245 439 245 439 211 c 0,41,42
 439 65 439 65 296 19 c 1,43,44
 313 -6 313 -6 361 -44 c 2,45,-1
 365 -47 l 2,46,47
 415 -89 415 -89 438 -90 c 1,48,-1
 392 -155 l 1,49,50
 359 -134 359 -134 344 -122 c 0,51,52
 324 -109 324 -109 286 -74 c 0,53,54
 271 -64 271 -64 238 -28 c 2,55,-1
 203 8 l 1,56,57
 46 8 46 8 43 101 c 0,58,59
 43 127 43 127 62 145 c 0,60,61
 82 164 82 164 107 164 c 0,62,63
 143 166 143 166 188 126 c 1,64,-1
 241 72 l 1,65,66
 275 72 275 72 311 94 c 0,67,68
 361 121 361 121 364 173 c 0,69,70
 364 196 364 196 359 211 c 0,71,72
 353 227 353 227 331 227 c 0,73,74
 318 228 318 228 274 217 c 0,75,76
 234 205 234 205 214 205 c 0,77,78
 167 205 167 205 109 278 c 0,79,80
 53 352 53 352 50 398 c 0,81,82
 48 422 48 422 67 439 c 0,83,84
 86 455 86 455 110 455 c 2,85,-1
 308 455 l 1,86,-1
 308 553 l 1,87,-1
 0 553 l 1,88,-1
 0 628 l 1,89,-1
 475 628 l 1,90,-1
 475 553 l 1,24,-1
EndSplineSet
Ligature2: "'abvs' Above Base Substitutions in Devanagari lookup 10 subtable" uni0908 uni0902
EndChar

StartChar: uni0947_uni0901.abvs
Encoding: 65543 -1 243
Width: 7
GlyphClass: 3
Flags: W
AnchorPoint: "Anchor-0" -72 588 basechar 0
LayerCount: 2
Fore
SplineSet
8 793 m 1,0,-1
 -61 793 l 1,1,-1
 -61 859 l 1,2,-1
 8 859 l 1,3,-1
 8 793 l 1,0,-1
92 810 m 1,4,5
 92 759 92 759 56 726 c 0,6,7
 20 694 20 694 -30 694 c 0,8,9
 -79 693 -79 693 -115 726 c 0,10,11
 -151 760 -151 760 -151 810 c 1,12,-1
 -105 810 l 1,13,14
 -105 781 -105 781 -82 761 c 0,15,16
 -59 742 -59 742 -30 742 c 0,17,18
 3 742 3 742 23 760 c 0,19,20
 44 778 44 778 44 810 c 1,21,-1
 92 810 l 1,4,5
-78 601 m 1,22,-1
 -155 601 l 1,23,-1
 -397 845 l 1,24,-1
 -335 905 l 1,25,-1
 -78 601 l 1,22,-1
EndSplineSet
Ligature2: "'abvs' Above Base Substitutions in Devanagari lookup 10 subtable" uni0947 uni0901
EndChar

StartChar: uni094B_uni0901.abvs
Encoding: 65544 -1 244
Width: 217
GlyphClass: 3
Flags: W
LayerCount: 2
Fore
SplineSet
251 770 m 1,0,-1
 182 770 l 1,1,-1
 182 836 l 1,2,-1
 251 836 l 1,3,-1
 251 770 l 1,0,-1
335 787 m 1,4,5
 335 736 335 736 299 703 c 0,6,7
 263 671 263 671 213 671 c 0,8,9
 164 670 164 670 128 703 c 0,10,11
 92 737 92 737 92 787 c 1,12,-1
 138 787 l 1,13,14
 138 758 138 758 161 738 c 0,15,16
 184 719 184 719 213 719 c 0,17,18
 246 719 246 719 266 737 c 0,19,20
 287 755 287 755 287 787 c 1,21,-1
 335 787 l 1,4,5
224 554 m 1,22,-1
 145 554 l 1,23,-1
 145 1 l 1,24,-1
 72 1 l 1,25,-1
 72 554 l 1,26,-1
 -7 554 l 1,27,-1
 -7 628 l 1,28,-1
 55 628 l 1,29,-1
 -175 859 l 1,30,-1
 -113 919 l 1,31,-1
 133 628 l 1,32,-1
 224 628 l 1,33,-1
 224 554 l 1,22,-1
EndSplineSet
Ligature2: "'abvs' Above Base Substitutions in Devanagari lookup 10 subtable" uni094B uni0901
EndChar

StartChar: glyph245
Encoding: 65545 -1 245
Width: 7
GlyphClass: 3
Flags: W
LayerCount: 2
Fore
SplineSet
131 770 m 1,0,-1
 62 770 l 1,1,-1
 62 836 l 1,2,-1
 131 836 l 1,3,-1
 131 770 l 1,0,-1
215 787 m 1,4,5
 215 736 215 736 179 703 c 0,6,7
 143 671 143 671 93 671 c 0,8,9
 44 670 44 670 8 703 c 0,10,11
 -28 737 -28 737 -28 787 c 1,12,-1
 18 787 l 1,13,14
 18 758 18 758 41 738 c 0,15,16
 64 719 64 719 93 719 c 0,17,18
 126 719 126 719 146 737 c 0,19,20
 167 755 167 755 167 787 c 1,21,-1
 215 787 l 1,4,5
32 554 m 1,22,-1
 -47 554 l 1,23,-1
 -47 6 l 1,24,-1
 -120 6 l 1,25,-1
 -120 554 l 1,26,-1
 -199 554 l 1,27,-1
 -199 628 l 1,28,-1
 32 628 l 1,29,-1
 32 554 l 1,22,-1
62 890 m 1,30,-1
 62 890 l 1,31,-1
 -12 880 l 1,32,33
 -64 880 -64 880 -76 811 c 1,34,-1
 -78 782 l 2,35,36
 -79 738 -79 738 -36 674 c 0,37,38
 -20 650 -20 650 6 622 c 1,39,-1
 -53 622 l 1,40,-1
 -97 682 l 1,41,42
 -140 751 -140 751 -142 806 c 0,43,44
 -143 866 -143 866 -114 904 c 0,45,46
 -108 911 -108 911 -102 916 c 0,47,48
 -68 940 -68 940 -54 943 c 0,49,50
 -43 947 -43 947 -29 947 c 2,51,-1
 46 954 l 1,52,-1
 62 950 l 1,53,-1
 62 890 l 1,30,-1
-74 624 m 1,54,-1
 -138 624 l 1,55,-1
 -446 781 l 1,56,-1
 -396 838 l 1,57,-1
 -178 702 l 1,58,-1
 -280 917 l 1,59,-1
 -216 953 l 1,60,-1
 -74 624 l 1,54,-1
EndSplineSet
Ligature2: "'abvs' Above Base Substitutions in Devanagari lookup 10 subtable" uni094C glyph247
EndChar

StartChar: glyph246
Encoding: 65546 -1 246
Width: 7
GlyphClass: 3
Flags: W
AnchorPoint: "Anchor-0" -75 588 basechar 0
LayerCount: 2
Fore
SplineSet
131 744 m 1,0,-1
 62 744 l 1,1,-1
 62 810 l 1,2,-1
 131 810 l 1,3,-1
 131 744 l 1,0,-1
215 761 m 1,4,5
 215 710 215 710 179 677 c 0,6,7
 143 645 143 645 93 645 c 0,8,9
 44 644 44 644 8 677 c 0,10,11
 -28 711 -28 711 -28 761 c 1,12,-1
 18 761 l 1,13,14
 18 732 18 732 41 712 c 0,15,16
 64 693 64 693 93 693 c 0,17,18
 126 693 126 693 146 711 c 0,19,20
 167 729 167 729 167 761 c 1,21,-1
 215 761 l 1,4,5
-74 602 m 1,22,-1
 -138 602 l 1,23,-1
 -446 760 l 1,24,-1
 -396 816 l 1,25,-1
 -178 680 l 1,26,-1
 -280 895 l 1,27,-1
 -216 931 l 1,28,-1
 -74 602 l 1,22,-1
62 823 m 1,29,-1
 -7 836 l 1,30,31
 -76 836 -76 836 -77 761 c 0,32,33
 -78 716 -78 716 -35 653 c 0,34,35
 -19 629 -19 629 7 600 c 1,36,-1
 -52 600 l 1,37,-1
 -96 660 l 1,38,39
 -139 730 -139 730 -140 785 c 0,40,41
 -142 839 -142 839 -101 869 c 0,42,43
 -66 894 -66 894 -10 895 c 0,44,45
 30 896 30 896 62 883 c 1,46,-1
 62 823 l 1,29,-1
EndSplineSet
Ligature2: "'abvs' Above Base Substitutions in Devanagari lookup 10 subtable" uni0948 glyph247
EndChar

StartChar: glyph247
Encoding: 65547 -1 247
Width: 7
GlyphClass: 3
Flags: W
AnchorPoint: "Anchor-0" -57 579 basechar 0
LayerCount: 2
Fore
SplineSet
56 744 m 1,0,-1
 -13 744 l 1,1,-1
 -13 810 l 1,2,-1
 56 810 l 1,3,-1
 56 744 l 1,0,-1
140 761 m 1,4,5
 140 710 140 710 104 677 c 0,6,7
 68 645 68 645 18 645 c 0,8,9
 -31 644 -31 644 -67 677 c 0,10,11
 -103 711 -103 711 -103 761 c 1,12,-1
 -57 761 l 1,13,14
 -57 732 -57 732 -34 712 c 0,15,16
 -11 693 -11 693 18 693 c 0,17,18
 51 693 51 693 71 711 c 0,19,20
 92 729 92 729 92 761 c 1,21,-1
 140 761 l 1,4,5
-18 824 m 1,22,23
 -41 829 -41 829 -88 838 c 1,24,25
 -156 838 -156 838 -157 762 c 0,26,27
 -158 718 -158 718 -115 654 c 0,28,29
 -100 630 -100 630 -73 601 c 1,30,-1
 -132 601 l 1,31,32
 -163 641 -163 641 -176 661 c 0,33,34
 -220 731 -220 731 -221 786 c 0,35,36
 -222 840 -222 840 -181 870 c 0,37,38
 -146 895 -146 895 -90 896 c 0,39,40
 -50 898 -50 898 -18 884 c 1,41,-1
 -18 824 l 1,22,23
EndSplineSet
Ligature2: "'abvs' Above Base Substitutions in Devanagari lookup 10 subtable" uni0930_uni094D.rphf uni0901
EndChar

StartChar: uni0939_uni094D.haln
Encoding: 65548 -1 248
Width: 496
GlyphClass: 3
Flags: W
AnchorPoint: "Anchor-0" 32563 -31130 basechar 0
LayerCount: 2
Fore
SplineSet
391 -269 m 1,0,-1
 358 -302 l 1,1,-1
 167 -92 l 1,2,-1
 256 -92 l 1,3,-1
 391 -269 l 1,0,-1
498 553 m 1,4,-1
 421 553 l 1,5,-1
 421 379 l 1,6,-1
 133 379 l 2,7,8
 125 379 125 379 125 372 c 0,9,10
 125 358 125 358 146 326 c 0,11,12
 168 295 168 295 186 280 c 1,13,14
 245 300 245 300 276 300 c 0,15,16
 356 301 356 301 409 268 c 0,17,18
 458 234 458 234 461 164 c 0,19,20
 463 125 463 125 432 92 c 2,21,-1
 400 62 l 1,22,-1
 340 110 l 1,23,24
 384 132 384 132 386 167 c 0,25,26
 386 199 386 199 336 216 c 0,27,28
 305 224 305 224 274 224 c 0,29,30
 218 227 218 227 174 194 c 0,31,32
 128 162 128 162 126 126 c 0,33,34
 126 65 126 65 232 22 c 0,35,36
 308 -8 308 -8 388 -10 c 1,37,-1
 373 -66 l 2,38,39
 368 -71 368 -71 354 -71 c 0,40,41
 314 -71 314 -71 211 -35 c 0,42,43
 53 20 53 20 52 132 c 0,44,45
 50 187 50 187 119 248 c 1,46,47
 46 322 46 322 43 386 c 0,48,49
 41 415 41 415 59 434 c 0,50,51
 76 455 76 455 103 455 c 2,52,-1
 347 455 l 1,53,-1
 347 553 l 1,54,-1
 0 553 l 1,55,-1
 0 628 l 1,56,-1
 498 628 l 1,57,-1
 498 553 l 1,4,-1
EndSplineSet
Ligature2: "'haln' Halant Forms in Devanagari lookup 12 subtable" uni0939 uni094D
EndChar

StartChar: glyph249
Encoding: 65549 -1 249
Width: 657
GlyphClass: 3
Flags: W
AnchorPoint: "Anchor-0" 531 621 basechar 0
LayerCount: 2
Fore
SplineSet
87 -42 m 1,0,-1
 2 -42 l 1,1,-1
 2 39 l 1,2,-1
 87 39 l 1,3,-1
 87 -42 l 1,0,-1
480 -219 m 1,4,-1
 447 -252 l 1,5,-1
 256 -42 l 1,6,-1
 345 -42 l 1,7,-1
 480 -219 l 1,4,-1
659 553 m 1,8,-1
 528 553 l 1,9,-1
 528 438 l 1,10,11
 569 419 569 419 578 412 c 0,12,13
 619 379 619 379 622 308 c 0,14,15
 623 181 623 181 515 85 c 0,16,17
 412 -5 412 -5 280 -7 c 0,18,19
 199 -8 199 -8 146 44 c 0,20,21
 95 97 95 97 95 180 c 0,22,23
 95 259 95 259 146 304 c 1,24,25
 104 311 104 311 73 361 c 0,26,27
 48 406 48 406 46 464 c 0,28,29
 43 522 43 522 82 553 c 1,30,-1
 0 553 l 1,31,-1
 0 628 l 1,32,-1
 659 628 l 1,33,-1
 659 553 l 1,8,-1
547 308 m 0,34,35
 547 338 547 338 535 350 c 0,36,37
 526 361 526 361 494 364 c 0,38,39
 466 366 466 366 452 349 c 0,40,41
 443 336 443 336 443 305 c 0,42,43
 442 236 442 236 500 178 c 1,44,45
 506 182 506 182 517 196 c 0,46,47
 547 235 547 235 547 308 c 0,34,35
454 434 m 1,48,-1
 454 553 l 1,49,-1
 176 553 l 2,50,51
 155 553 155 553 137 509 c 0,52,53
 120 470 120 470 119 445 c 0,54,55
 119 409 119 409 152 383 c 0,56,57
 186 356 186 356 222 354 c 0,58,59
 238 353 238 353 283 359 c 1,60,-1
 316 298 l 1,61,62
 264 298 264 298 220 268 c 0,63,64
 169 233 169 233 169 185 c 0,65,66
 169 68 169 68 296 67 c 0,67,68
 388 67 388 67 444 120 c 1,69,70
 406 178 406 178 400 192 c 0,71,72
 368 253 368 253 367 308 c 0,73,74
 365 358 365 358 391 392 c 0,75,76
 407 414 407 414 454 434 c 1,48,-1
EndSplineSet
Ligature2: "'nukt' Nukta Forms in Devanagari lookup 1 subtable" uni091B_uni094D.haln uni093C
EndChar

StartChar: uni091B_uni094D.haln
Encoding: 65550 -1 250
Width: 657
GlyphClass: 3
Flags: W
AnchorPoint: "Anchor-0" 531 621 basechar 0
LayerCount: 2
Fore
SplineSet
480 -219 m 1,0,-1
 447 -252 l 1,1,-1
 256 -42 l 1,2,-1
 345 -42 l 1,3,-1
 480 -219 l 1,0,-1
659 553 m 1,4,-1
 528 553 l 1,5,-1
 528 438 l 1,6,7
 569 419 569 419 578 412 c 0,8,9
 619 379 619 379 622 308 c 0,10,11
 623 181 623 181 515 85 c 0,12,13
 412 -5 412 -5 280 -7 c 0,14,15
 199 -8 199 -8 146 44 c 0,16,17
 95 97 95 97 95 180 c 0,18,19
 95 259 95 259 146 304 c 1,20,21
 104 311 104 311 73 361 c 0,22,23
 48 406 48 406 46 464 c 0,24,25
 43 522 43 522 82 553 c 1,26,-1
 0 553 l 1,27,-1
 0 628 l 1,28,-1
 659 628 l 1,29,-1
 659 553 l 1,4,-1
547 308 m 0,30,31
 547 338 547 338 535 350 c 0,32,33
 526 361 526 361 494 364 c 0,34,35
 466 366 466 366 452 349 c 0,36,37
 443 336 443 336 443 305 c 0,38,39
 442 236 442 236 500 178 c 1,40,41
 506 182 506 182 517 196 c 0,42,43
 547 235 547 235 547 308 c 0,30,31
454 434 m 1,44,-1
 454 553 l 1,45,-1
 176 553 l 2,46,47
 155 553 155 553 137 509 c 0,48,49
 120 470 120 470 119 445 c 0,50,51
 119 409 119 409 152 383 c 0,52,53
 186 356 186 356 222 354 c 0,54,55
 238 353 238 353 283 359 c 1,56,-1
 316 298 l 1,57,58
 264 298 264 298 220 268 c 0,59,60
 169 233 169 233 169 185 c 0,61,62
 169 68 169 68 296 67 c 0,63,64
 388 67 388 67 444 120 c 1,65,66
 406 178 406 178 400 192 c 0,67,68
 368 253 368 253 367 308 c 0,69,70
 365 358 365 358 391 392 c 0,71,72
 407 414 407 414 454 434 c 1,44,-1
EndSplineSet
Ligature2: "'haln' Halant Forms in Devanagari lookup 12 subtable" uni091B uni094D
EndChar

StartChar: uni0939_uni0944.blws
Encoding: 65551 -1 251
Width: 535
GlyphClass: 4
Flags: W
AnchorPoint: "Anchor-0" 453 624 basechar 0
LayerCount: 2
Fore
SplineSet
555 -178 m 1,0,1
 515 -219 515 -219 435 -220 c 0,2,3
 368 -221 368 -221 315 -186 c 0,4,5
 255 -147 255 -147 254 -83 c 0,6,7
 254 -27 254 -27 290 12 c 0,8,9
 326 49 326 49 383 49 c 2,10,-1
 482 49 l 1,11,-1
 482 -24 l 1,12,-1
 396 -24 l 2,13,14
 329 -24 329 -24 327 -79 c 0,15,16
 326 -113 326 -113 361 -131 c 0,17,18
 389 -147 389 -147 425 -147 c 0,19,20
 459 -147 459 -147 486 -135 c 0,21,22
 488 -133 488 -133 516 -117 c 1,23,-1
 555 -178 l 1,0,1
535 554 m 1,24,-1
 458 554 l 1,25,-1
 458 385 l 1,26,-1
 130 385 l 2,27,28
 115 385 115 385 115 377 c 0,29,30
 115 363 115 363 152 329 c 2,31,-1
 179 304 l 1,32,33
 230 323 230 323 287 323 c 0,34,35
 487 323 487 323 490 202 c 0,36,37
 491 158 491 158 446 142 c 0,38,39
 430 134 430 134 364 127 c 0,40,41
 328 127 328 127 314 122 c 0,42,43
 289 113 289 113 288 82 c 0,44,45
 288 67 288 67 312 58 c 0,46,47
 336 47 336 47 366 46 c 0,48,49
 437 43 437 43 466 76 c 1,50,-1
 502 -2 l 1,51,52
 448 -28 448 -28 377 -28 c 0,53,54
 313 -28 313 -28 269 -4 c 0,55,56
 216 28 216 28 215 86 c 0,57,58
 214 193 214 193 368 193 c 2,59,-1
 389 193 l 2,60,61
 416 193 416 193 416 211 c 0,62,63
 416 230 416 230 360 242 c 0,64,65
 322 250 322 250 287 250 c 0,66,67
 236 250 236 250 180 222 c 0,68,69
 116 190 116 190 115 140 c 128,-1,70
 114 90 114 90 166 14 c 2,71,-1
 220 -68 l 1,72,-1
 167 -128 l 1,73,74
 114 -38 114 -38 97 -14 c 0,75,76
 43 61 43 61 42 140 c 0,77,78
 42 178 42 178 62 211 c 0,79,80
 77 235 77 235 114 266 c 1,81,82
 91 289 91 289 71 320 c 0,83,84
 42 365 42 365 42 401 c 0,85,86
 42 458 42 458 101 458 c 2,87,-1
 385 458 l 1,88,-1
 385 554 l 1,89,-1
 0 554 l 1,90,-1
 0 628 l 1,91,-1
 535 628 l 1,92,-1
 535 554 l 1,24,-1
EndSplineSet
Ligature2: "'blws' Below Base Substitutions in Devanagari lookup 9 subtable" uni0939 uni0944
EndChar

StartChar: uni0915_uni094D_uni0937.akhn
Encoding: 65552 -1 252
Width: 624
GlyphClass: 3
Flags: W
LayerCount: 2
Fore
SplineSet
624 540 m 1,0,-1
 552 540 l 1,1,-1
 552 -8 l 1,2,-1
 479 -8 l 1,3,-1
 479 335 l 1,4,5
 402 304 402 304 323 304 c 0,6,7
 254 304 254 304 203 324 c 2,8,-1
 187 330 l 1,9,10
 158 313 158 313 133 292 c 0,11,12
 89 252 89 252 88 223 c 0,13,14
 85 142 85 142 188 142 c 0,15,16
 200 142 200 142 203 143 c 0,17,18
 203 156 203 156 202 163 c 0,19,20
 202 227 202 227 257 228 c 0,21,22
 289 229 289 229 311 209 c 0,23,24
 331 187 331 187 332 155 c 0,25,26
 334 134 334 134 325 120 c 0,27,28
 316 104 316 104 294 94 c 1,29,30
 322 47 322 47 372 34 c 1,31,-1
 306 -13 l 1,32,33
 287 -2 287 -2 265 22 c 0,34,35
 240 49 240 49 229 73 c 1,36,-1
 182 70 l 2,37,38
 110 64 110 64 60 112 c 0,39,40
 16 154 16 154 14 227 c 0,41,42
 13 274 13 274 58 322 c 0,43,44
 77 342 77 342 118 370 c 1,45,46
 53 419 53 419 52 494 c 0,47,48
 50 544 50 544 90 572 c 0,49,50
 128 601 128 601 179 601 c 0,51,52
 232 601 232 601 271 569 c 0,53,54
 311 536 311 536 312 485 c 0,55,56
 313 454 313 454 293 422 c 0,57,58
 281 403 281 403 259 385 c 1,59,60
 270 385 270 385 292 382 c 0,61,62
 312 377 312 377 323 377 c 0,63,64
 408 377 408 377 479 415 c 1,65,-1
 479 540 l 1,66,-1
 376 540 l 1,67,-1
 376 613 l 1,68,-1
 624 613 l 1,69,-1
 624 540 l 1,0,-1
239 488 m 0,70,71
 240 527 240 527 179 528 c 0,72,73
 125 529 125 529 125 478 c 0,74,75
 125 452 125 452 154 430 c 0,76,77
 162 422 162 422 182 412 c 1,78,79
 238 445 238 445 239 488 c 0,70,71
EndSplineSet
Ligature2: "'akhn' Akhand in Devanagari lookup 0 subtable" uni0915 uni094D uni0937
EndChar

StartChar: uni091C_uni094D_uni091E.akhn
Encoding: 65553 -1 253
Width: 688
GlyphClass: 3
Flags: W
LayerCount: 2
Fore
SplineSet
689 540 m 1,0,-1
 610 540 l 1,1,-1
 610 -8 l 1,2,-1
 536 -8 l 1,3,-1
 536 540 l 1,4,-1
 457 540 l 1,5,-1
 457 613 l 1,6,-1
 689 613 l 1,7,-1
 689 540 l 1,0,-1
454 540 m 1,8,-1
 0 540 l 1,9,-1
 0 613 l 1,10,-1
 454 613 l 1,11,-1
 454 540 l 1,8,-1
538 371 m 1,12,-1
 137 371 l 2,13,14
 130 371 130 371 128 362 c 0,15,16
 128 338 128 338 161 312 c 0,17,18
 192 284 192 284 217 284 c 0,19,20
 235 284 235 284 260 288 c 2,21,-1
 330 296 l 1,22,23
 366 296 366 296 388 265 c 0,24,25
 404 238 404 238 406 199 c 0,26,27
 407 119 407 119 325 78 c 0,28,29
 300 66 300 66 266 58 c 1,30,-1
 366 -32 l 1,31,-1
 311 -77 l 1,32,-1
 185 42 l 1,33,-1
 164 42 l 2,34,35
 42 42 42 42 42 110 c 0,36,37
 42 132 42 132 59 146 c 0,38,39
 76 161 76 161 97 161 c 0,40,41
 131 161 131 161 169 140 c 0,42,43
 198 125 198 125 206 114 c 1,44,45
 223 108 223 108 271 127 c 0,46,47
 332 152 332 152 332 199 c 0,48,49
 332 235 332 235 305 235 c 0,50,51
 294 235 294 235 246 220 c 2,52,-1
 212 211 l 1,53,54
 157 211 157 211 103 268 c 2,55,-1
 101 270 l 2,56,57
 46 329 46 329 44 386 c 0,58,59
 44 413 44 413 65 428 c 0,60,61
 86 444 86 444 112 444 c 2,62,-1
 538 444 l 1,63,-1
 538 371 l 1,12,-1
EndSplineSet
Ligature2: "'akhn' Akhand in Devanagari lookup 0 subtable" uni091C uni094D uni091E
EndChar

StartChar: uni0924_uni094D.half_uni0924.pres
Encoding: 65554 -1 254
Width: 690
GlyphClass: 3
Flags: W
LayerCount: 2
Fore
SplineSet
689 557 m 1,0,-1
 610 557 l 1,1,-1
 610 8 l 1,2,-1
 536 8 l 1,3,-1
 536 557 l 1,4,-1
 457 557 l 1,5,-1
 457 630 l 1,6,-1
 689 630 l 1,7,-1
 689 557 l 1,0,-1
457 554 m 1,8,-1
 0 554 l 1,9,-1
 0 628 l 1,10,-1
 457 628 l 1,11,-1
 457 554 l 1,8,-1
539 370 m 1,12,-1
 322 370 l 2,13,14
 281 370 281 370 253 343 c 0,15,16
 226 316 226 316 224 275 c 0,17,18
 223 239 223 239 266 180 c 0,19,20
 314 114 314 114 368 70 c 1,21,-1
 325 11 l 1,22,23
 262 65 262 65 214 130 c 0,24,25
 152 212 152 212 151 275 c 0,26,27
 150 344 150 344 178 370 c 1,28,-1
 42 370 l 1,29,-1
 42 443 l 1,30,-1
 539 443 l 1,31,-1
 539 370 l 1,12,-1
EndSplineSet
Ligature2: "'pres' Pre Base Substitutions in Devanagari lookup 8 subtable" uni0924_uni094D.half uni0924
EndChar

StartChar: uni0924_uni0930_uni094D.blwf.vatu
Encoding: 65555 -1 255
Width: 619
GlyphClass: 3
Flags: W
LayerCount: 2
Fore
SplineSet
614 557 m 1,0,-1
 535 557 l 1,1,-1
 535 1 l 1,2,-1
 462 1 l 1,3,-1
 462 557 l 1,4,-1
 383 557 l 1,5,-1
 383 630 l 1,6,-1
 614 630 l 1,7,-1
 614 557 l 1,0,-1
383 554 m 1,8,-1
 0 554 l 1,9,-1
 0 628 l 1,10,-1
 383 628 l 1,11,-1
 383 554 l 1,8,-1
467 222 m 1,12,-1
 182 59 l 1,13,-1
 138 118 l 1,14,-1
 401 270 l 1,15,16
 301 380 301 380 270 385 c 1,17,18
 242 385 242 385 162 346 c 0,19,20
 142 336 142 336 86 306 c 1,21,-1
 42 362 l 1,22,23
 48 374 48 374 151 415 c 0,24,25
 254 457 254 457 277 458 c 0,26,27
 310 460 310 460 391 384 c 0,28,29
 414 364 414 364 467 308 c 1,30,-1
 467 222 l 1,12,-1
EndSplineSet
Ligature2: "'vatu' Vattu Variants in Devanagari lookup 6 subtable" uni0924 uni0930_uni094D.blwf
EndChar

